<svg width="342" height="256" viewBox="0 0 342 256" fill="none" xmlns="http://www.w3.org/2000/svg">
<path d="M81.2766 60.8345L128.06 60.8345V-1.14441e-05L81.2766 -1.14441e-05V60.8345Z" fill="#F4F4F4"/>
<path d="M81.2765 0H79.7588V60.8345H81.2765V0Z" fill="#F4F4F4"/>
<path opacity="0.05" d="M81.2765 0H79.7588V60.8345H81.2765V0Z" fill="#292A2E"/>
<path opacity="0.05" d="M89.7988 49.7527L119.538 49.7527V11.0816L89.7988 11.0816V49.7527Z" fill="#292A2E"/>
<path opacity="0.03" d="M89.7988 49.7527H91.3486V11.0816H89.7988V49.7527Z" fill="#292A2E"/>
<path d="M43.0147 114.37H81.2762V75.795H43.0147L43.0147 114.37Z" fill="#F4F4F4"/>
<path opacity="0.05" d="M49.9847 107.343H74.3066V82.8219H49.9847V107.343Z" fill="#292A2E"/>
<path d="M43.015 75.7947H41.4973V114.369H43.015V75.7947Z" fill="#F4F4F4"/>
<path opacity="0.05" d="M43.015 75.7947H41.4973V114.369H43.015V75.7947Z" fill="#292A2E"/>
<path opacity="0.03" d="M49.9849 107.343H51.5348V82.8219H49.9849V107.343Z" fill="#292A2E"/>
<path d="M288.556 2.16791H178.414V112.202H288.556V2.16791Z" fill="#F4F4F4"/>
<path d="M289.818 2.16791H288.556V112.202H289.818V2.16791Z" fill="#F4F4F4"/>
<path opacity="0.05" d="M289.818 2.16791H288.556V112.202H289.818V2.16791Z" fill="#292A2E"/>
<path opacity="0.05" d="M261.874 77.9901V49.2018H238.268V65.9271H201.704V95.5417H186.163V112.202H201.704H204.698H283.258V77.9901H261.874Z" fill="#292A2E"/>
<path opacity="0.34" d="M258.488 52.3275H241.298V55.4532H258.488V52.3275Z" fill="#FFFFFA"/>
<path opacity="0.34" d="M258.488 58.8049H241.298V61.9306H258.488V58.8049Z" fill="#FFFFFA"/>
<path opacity="0.34" d="M258.488 65.282H241.298V68.4077H258.488V65.282Z" fill="#FFFFFA"/>
<path opacity="0.34" d="M280.209 81.0242H277.041V84.1499H280.209V81.0242Z" fill="#FFFFFA"/>
<path opacity="0.34" d="M280.209 87.5016H277.041V90.6273H280.209V87.5016Z" fill="#FFFFFA"/>
<path opacity="0.34" d="M280.209 93.9787H277.041V97.1044H280.209V93.9787Z" fill="#FFFFFA"/>
<path opacity="0.34" d="M274.348 81.0242H271.18V84.1499H274.348V81.0242Z" fill="#FFFFFA"/>
<path opacity="0.34" d="M274.348 87.5016H271.18V90.6273H274.348V87.5016Z" fill="#FFFFFA"/>
<path opacity="0.34" d="M274.348 93.9787H271.18V97.1044H274.348V93.9787Z" fill="#FFFFFA"/>
<path opacity="0.34" d="M268.645 81.0242H265.477V84.1499H268.645V81.0242Z" fill="#FFFFFA"/>
<path opacity="0.34" d="M268.645 87.5016H265.477V90.6273H268.645V87.5016Z" fill="#FFFFFA"/>
<path opacity="0.34" d="M268.645 93.9787H265.477V97.1044H268.645V93.9787Z" fill="#FFFFFA"/>
<path d="M288.556 56.5677H266.394V2.16791H264.561V56.5677H204.698V2.16791H202.865V56.5677H178.414V58.3985H202.865V112.202H204.698V58.3985H264.561V112.202H266.394V58.3985H288.556V56.5677Z" fill="white"/>
<path d="M292.944 112.069H174.026V115.728H292.944V112.069Z" fill="#F4F4F4"/>
<path opacity="0.1" d="M292.944 112.069H174.026V115.728H292.944V112.069Z" fill="#292A2E"/>
<path opacity="0.1" d="M294.66 112.069H292.944V115.728H294.66V112.069Z" fill="#292A2E"/>
<path opacity="0.1" d="M294.66 112.069H292.944V115.728H294.66V112.069Z" fill="#292A2E"/>
<path d="M278.993 219.846C278.958 219.846 278.922 219.839 278.889 219.826C278.856 219.812 278.826 219.792 278.801 219.767C278.418 219.384 277.794 212.362 276.112 191.456C275.423 182.902 274.773 174.822 274.299 169.911C274.265 169.561 274.129 169.52 274.084 169.507C273.435 169.311 271.46 170.867 270.357 172.229C270.312 172.285 270.246 172.321 270.174 172.328C270.102 172.336 270.031 172.315 269.975 172.269C269.918 172.224 269.883 172.158 269.875 172.087C269.867 172.015 269.889 171.943 269.934 171.887C270.663 170.987 273.04 168.625 274.24 168.986C274.483 169.059 274.784 169.269 274.84 169.859C275.315 174.774 275.965 182.856 276.654 191.413C277.676 204.117 278.834 218.51 279.214 219.416C279.243 219.457 279.261 219.505 279.264 219.554C279.268 219.604 279.258 219.654 279.235 219.698C279.212 219.743 279.178 219.78 279.135 219.806C279.092 219.832 279.043 219.846 278.993 219.846Z" fill="#494949"/>
<path d="M273.6 178.922C278.112 175.309 279.607 169.685 276.94 166.361C274.273 163.037 268.453 163.271 263.941 166.884C259.429 170.497 257.934 176.121 260.601 179.445C263.268 182.769 269.088 182.535 273.6 178.922Z" fill="#0CBC8B"/>
<path opacity="0.2" d="M273.6 178.922C278.112 175.309 279.607 169.685 276.94 166.361C274.273 163.037 268.453 163.271 263.941 166.884C259.429 170.497 257.934 176.121 260.601 179.445C263.268 182.769 269.088 182.535 273.6 178.922Z" fill="white"/>
<path d="M261.866 180.291C261.84 180.291 261.815 180.283 261.793 180.269C261.772 180.255 261.754 180.236 261.743 180.212C261.732 180.189 261.728 180.163 261.731 180.138C261.735 180.112 261.745 180.088 261.762 180.068L274.62 164.577C274.631 164.563 274.645 164.551 274.661 164.543C274.677 164.534 274.695 164.529 274.713 164.527C274.73 164.525 274.749 164.527 274.766 164.532C274.783 164.537 274.799 164.546 274.813 164.558C274.827 164.569 274.838 164.583 274.847 164.599C274.855 164.615 274.86 164.633 274.862 164.651C274.863 164.669 274.861 164.687 274.856 164.704C274.85 164.721 274.841 164.737 274.829 164.751L261.971 180.242C261.958 180.257 261.942 180.269 261.924 180.278C261.906 180.286 261.886 180.291 261.866 180.291Z" fill="white"/>
<path d="M281.798 216.525C281.754 216.525 281.712 216.515 281.673 216.495C281.634 216.475 281.601 216.447 281.576 216.411C281.551 216.376 281.535 216.335 281.528 216.292C281.522 216.249 281.527 216.205 281.541 216.164L286.371 202.287C286.513 201.88 286.755 201.514 287.076 201.224C287.396 200.934 287.784 200.729 288.204 200.628C288.624 200.527 289.063 200.532 289.481 200.644C289.898 200.756 290.281 200.971 290.593 201.269L293.147 203.706C293.199 203.756 293.229 203.824 293.231 203.896C293.232 203.969 293.205 204.038 293.156 204.09C293.106 204.143 293.037 204.173 292.965 204.174C292.893 204.176 292.823 204.149 292.771 204.099L290.218 201.662C289.971 201.427 289.669 201.257 289.339 201.169C289.01 201.081 288.663 201.076 288.332 201.156C288 201.236 287.694 201.398 287.441 201.627C287.188 201.856 286.997 202.144 286.885 202.466L282.055 216.343C282.036 216.396 282.001 216.442 281.955 216.475C281.909 216.508 281.854 216.525 281.798 216.525Z" fill="#494949"/>
<path d="M300.281 211.389C303.625 208.745 303.426 202.93 299.837 198.4C296.248 193.871 290.628 192.342 287.285 194.987C283.941 197.631 284.14 203.446 287.729 207.976C291.317 212.505 296.937 214.034 300.281 211.389Z" fill="#0CBC8B"/>
<path d="M276.799 218.961C276.738 218.961 276.679 218.941 276.631 218.903C276.583 218.865 276.549 218.812 276.535 218.753L268.429 184.895C268.374 184.664 268.256 184.453 268.088 184.285C267.92 184.117 267.71 183.998 267.479 183.942C267.248 183.886 267.006 183.895 266.78 183.967C266.554 184.039 266.352 184.172 266.196 184.352L263.698 187.236C263.65 187.291 263.584 187.325 263.512 187.33C263.44 187.335 263.369 187.311 263.314 187.264C263.259 187.217 263.226 187.15 263.221 187.078C263.215 187.006 263.239 186.935 263.286 186.881L265.785 183.996C266.006 183.741 266.293 183.552 266.615 183.449C266.936 183.347 267.28 183.335 267.608 183.415C267.936 183.495 268.236 183.664 268.474 183.903C268.712 184.142 268.88 184.442 268.958 184.77L277.064 218.628C277.072 218.662 277.073 218.698 277.068 218.734C277.062 218.769 277.05 218.803 277.031 218.833C277.012 218.863 276.988 218.89 276.959 218.911C276.93 218.932 276.897 218.947 276.862 218.955C276.842 218.96 276.82 218.962 276.799 218.961Z" fill="#494949"/>
<path d="M273.81 194.758C274.795 189.066 272.187 183.863 267.985 183.137C263.783 182.411 259.578 186.437 258.593 192.129C257.607 197.822 260.215 203.025 264.417 203.75C268.619 204.476 272.824 200.45 273.81 194.758Z" fill="#0CBC8B"/>
<path d="M278.994 219.846C278.982 219.846 278.971 219.846 278.96 219.844C278.925 219.84 278.89 219.829 278.859 219.811C278.828 219.793 278.801 219.77 278.779 219.742C278.757 219.714 278.741 219.681 278.731 219.647C278.722 219.613 278.719 219.577 278.723 219.541L283.899 177.558C283.956 177.101 284.143 176.67 284.439 176.316C284.735 175.963 285.127 175.702 285.567 175.566C286.008 175.429 286.478 175.423 286.923 175.548C287.367 175.672 287.765 175.922 288.071 176.267L293.987 182.961C294.01 182.988 294.028 183.019 294.04 183.053C294.052 183.087 294.056 183.122 294.054 183.158C294.052 183.194 294.043 183.228 294.027 183.26C294.011 183.293 293.99 183.321 293.963 183.345C293.936 183.368 293.905 183.387 293.871 183.398C293.837 183.41 293.802 183.415 293.766 183.412C293.73 183.41 293.695 183.401 293.663 183.385C293.631 183.369 293.602 183.348 293.579 183.321L287.664 176.627C287.428 176.36 287.12 176.167 286.776 176.071C286.433 175.974 286.069 175.979 285.729 176.085C285.388 176.19 285.085 176.391 284.857 176.665C284.628 176.938 284.483 177.271 284.44 177.625L279.263 219.608C279.255 219.673 279.223 219.734 279.174 219.778C279.124 219.822 279.06 219.846 278.994 219.846Z" fill="#494949"/>
<path d="M300.054 186.681C302.118 182.953 299.69 177.665 294.63 174.868C289.57 172.072 283.795 172.828 281.73 176.556C279.666 180.283 282.095 185.572 287.155 188.368C292.215 191.165 297.99 190.409 300.054 186.681Z" fill="#0CBC8B"/>
<path opacity="0.2" d="M300.281 211.389C303.625 208.745 303.426 202.93 299.837 198.4C296.248 193.871 290.628 192.342 287.285 194.987C283.941 197.631 284.14 203.446 287.729 207.976C291.317 212.505 296.937 214.034 300.281 211.389Z" fill="white"/>
<path opacity="0.5" d="M273.81 194.758C274.795 189.066 272.187 183.863 267.985 183.137C263.783 182.411 259.578 186.437 258.593 192.129C257.607 197.822 260.215 203.025 264.417 203.75C268.619 204.476 272.824 200.45 273.81 194.758Z" fill="white"/>
<path opacity="0.5" d="M300.054 186.681C302.118 182.953 299.69 177.665 294.63 174.868C289.57 172.072 283.795 172.828 281.73 176.556C279.666 180.283 282.095 185.572 287.155 188.368C292.215 191.165 297.99 190.409 300.054 186.681Z" fill="white"/>
<path d="M285.613 255.469H272.373L270.179 213.147H287.808L285.613 255.469Z" fill="#292A2E"/>
<path opacity="0.3" d="M285.613 255.469H272.373L270.179 213.147H287.808L285.613 255.469Z" fill="white"/>
<path d="M300.281 211.524C300.261 211.524 300.241 211.519 300.222 211.51C300.204 211.501 300.187 211.488 300.175 211.472L287.178 195.069C287.167 195.055 287.158 195.039 287.154 195.022C287.149 195.005 287.147 194.987 287.149 194.969C287.151 194.952 287.157 194.934 287.166 194.919C287.174 194.903 287.186 194.89 287.2 194.879C287.214 194.867 287.23 194.859 287.247 194.854C287.264 194.849 287.282 194.848 287.3 194.85C287.318 194.852 287.335 194.858 287.35 194.866C287.366 194.875 287.38 194.887 287.391 194.901L300.389 211.304C300.411 211.332 300.421 211.368 300.417 211.403C300.413 211.439 300.395 211.472 300.367 211.494C300.342 211.513 300.312 211.524 300.281 211.524Z" fill="white"/>
<path d="M299.19 187.995C299.161 187.995 299.133 187.986 299.11 187.968L282.479 175.837C282.464 175.826 282.452 175.813 282.443 175.798C282.433 175.782 282.427 175.765 282.424 175.748C282.422 175.73 282.422 175.712 282.427 175.695C282.431 175.677 282.438 175.661 282.449 175.647C282.46 175.632 282.473 175.62 282.488 175.611C282.503 175.602 282.52 175.595 282.538 175.593C282.556 175.59 282.574 175.591 282.591 175.595C282.608 175.599 282.625 175.607 282.639 175.617L299.27 187.749C299.293 187.766 299.31 187.79 299.318 187.817C299.327 187.844 299.327 187.873 299.318 187.9C299.309 187.927 299.292 187.951 299.269 187.967C299.246 187.984 299.218 187.993 299.19 187.994V187.995Z" fill="white"/>
<path d="M263.741 203.573C263.729 203.573 263.717 203.572 263.706 203.569C263.671 203.559 263.641 203.537 263.623 203.506C263.605 203.474 263.6 203.437 263.61 203.403L268.904 183.586C268.914 183.552 268.937 183.523 268.968 183.506C268.999 183.489 269.035 183.484 269.069 183.493C269.104 183.502 269.133 183.525 269.151 183.555C269.169 183.585 269.175 183.621 269.167 183.656L263.872 203.473C263.865 203.501 263.847 203.527 263.824 203.545C263.8 203.563 263.771 203.573 263.741 203.573Z" fill="white"/>
<path d="M84.8406 171.597H62.9998V177.945H84.8406V171.597Z" fill="#F4F4F4"/>
<path opacity="0.05" d="M68.7946 171.597H65.9328V177.945H68.7946V171.597Z" fill="#292A2E"/>
<path d="M82.0499 172.977H70.1503V176.739H82.0499V172.977Z" fill="white"/>
<path d="M102.262 172.425L81.9678 163.57L79.4242 169.388L99.718 178.243L102.262 172.425Z" fill="#F4F4F4"/>
<path opacity="0.05" d="M102.262 172.425L81.9678 163.57L79.4242 169.388L99.718 178.243L102.262 172.425Z" fill="#292A2E"/>
<path d="M99.5364 171.236L96.8773 170.075L94.3337 175.893L96.9929 177.054L99.5364 171.236Z" fill="white"/>
<path d="M95.0648 170.79L84.0083 165.966L82.501 169.414L93.5575 174.238L95.0648 170.79Z" fill="white"/>
<path opacity="0.05" d="M102.3 252.021H96.8111V255.683H102.3V252.021Z" fill="#292A2E"/>
<path opacity="0.05" d="M46.1845 252.021H40.6959V255.683H46.1845V252.021Z" fill="#292A2E"/>
<path d="M107.331 178.243H35.6647V251.897H107.331V178.243Z" fill="#F4F4F4"/>
<path opacity="0.03" d="M107.331 178.243H35.6647V251.897H107.331V178.243Z" fill="#292A2E"/>
<path d="M120.612 178.243H48.9454V251.897H120.612V178.243Z" fill="#F4F4F4"/>
<path opacity="0.05" d="M115.581 252.021H110.092V255.683H115.581V252.021Z" fill="#292A2E"/>
<path opacity="0.05" d="M59.4654 252.021H53.9767V255.683H59.4654V252.021Z" fill="#292A2E"/>
<path opacity="0.7" d="M117.922 181.692H51.6359V195.843H117.922V181.692Z" fill="white"/>
<path opacity="0.7" d="M117.922 199.307H51.6359V213.457H117.922V199.307Z" fill="white"/>
<path opacity="0.7" d="M117.922 216.92H51.6359V231.071H117.922V216.92Z" fill="white"/>
<path opacity="0.05" d="M84.7789 190.748C85.8735 190.748 86.7608 189.861 86.7608 188.768C86.7608 187.674 85.8735 186.788 84.7789 186.788C83.6843 186.788 82.797 187.674 82.797 188.768C82.797 189.861 83.6843 190.748 84.7789 190.748Z" fill="#292A2E"/>
<path opacity="0.05" d="M84.7789 208.362C85.8735 208.362 86.7608 207.475 86.7608 206.382C86.7608 205.288 85.8735 204.402 84.7789 204.402C83.6843 204.402 82.797 205.288 82.797 206.382C82.797 207.475 83.6843 208.362 84.7789 208.362Z" fill="#292A2E"/>
<path opacity="0.05" d="M84.7789 225.976C85.8735 225.976 86.7608 225.089 86.7608 223.996C86.7608 222.902 85.8735 222.016 84.7789 222.016C83.6843 222.016 82.797 222.902 82.797 223.996C82.797 225.089 83.6843 225.976 84.7789 225.976Z" fill="#292A2E"/>
<path opacity="0.7" d="M117.922 234.931H51.6359V249.082H117.922V234.931Z" fill="white"/>
<path opacity="0.05" d="M84.7789 243.986C85.8735 243.986 86.7608 243.1 86.7608 242.006C86.7608 240.913 85.8735 240.026 84.7789 240.026C83.6843 240.026 82.797 240.913 82.797 242.006C82.797 243.1 83.6843 243.986 84.7789 243.986Z" fill="#292A2E"/>
<path d="M208.797 196.833H68.2195C66.322 196.833 64.5023 196.08 63.1606 194.739C61.8189 193.399 61.0652 191.581 61.0652 189.686L65.9594 31.151H220.574L215.951 189.686C215.951 191.581 215.197 193.399 213.856 194.739C212.514 196.08 210.694 196.833 208.797 196.833Z" fill="#292A2E"/>
<path opacity="0.9" d="M208.797 196.833H68.2195C66.322 196.833 64.5023 196.08 63.1606 194.739C61.8189 193.399 61.0652 191.581 61.0652 189.686L65.9594 31.151H220.574L215.951 189.686C215.951 191.581 215.197 193.399 213.856 194.739C212.514 196.08 210.694 196.833 208.797 196.833Z" fill="white"/>
<path d="M208.797 197.104H68.2195C66.2506 197.102 64.363 196.32 62.9708 194.929C61.5785 193.538 60.7953 191.653 60.793 189.686L65.6873 30.8793H220.845L216.223 189.686C216.221 191.653 215.438 193.538 214.046 194.929C212.653 196.32 210.766 197.102 208.797 197.104ZM66.2311 31.4226L61.3368 189.686C61.3389 191.509 62.0647 193.256 63.355 194.545C64.6453 195.834 66.3948 196.559 68.2195 196.561H208.797C210.622 196.559 212.371 195.834 213.661 194.545C214.951 193.256 215.677 191.508 215.679 189.686L220.302 31.4226H66.2311Z" fill="#292A2E"/>
<path d="M213.963 15.4318H73.3856C71.4167 15.434 69.5291 16.2164 68.1369 17.6072C66.7446 18.998 65.9615 20.8837 65.9592 22.8506L65.6873 31.4226H220.845L221.389 22.8506C221.387 20.8837 220.604 18.998 219.212 17.6072C217.82 16.2164 215.932 15.434 213.963 15.4318Z" fill="#0C0C0C"/>
<path d="M216.682 15.4318H74.4732C72.5043 15.434 70.6167 16.2164 69.2245 17.6072C67.8322 18.998 67.0491 20.8837 67.0468 22.8506V31.4226H224.108V22.8506C224.106 20.8837 223.323 18.998 221.931 17.6072C220.539 16.2164 218.651 15.434 216.682 15.4318Z" fill="#292A2E"/>
<path d="M67.3189 31.151H223.837V192.402C223.837 194.297 223.083 196.115 221.741 197.456C220.4 198.796 218.58 199.549 216.682 199.549H74.4732C72.5758 199.549 70.756 198.796 69.4144 197.456C68.0727 196.115 67.3189 194.297 67.3189 192.402V31.151Z" fill="white"/>
<path d="M216.682 199.821H74.4732C72.5043 199.819 70.6167 199.036 69.2245 197.645C67.8322 196.255 67.0491 194.369 67.0468 192.402V30.8793H224.108V192.402C224.106 194.369 223.323 196.255 221.931 197.645C220.539 199.036 218.651 199.819 216.682 199.821ZM67.5906 31.4226V192.402C67.5926 194.225 68.3185 195.973 69.6088 197.261C70.8991 198.55 72.6485 199.275 74.4732 199.278H216.682C218.507 199.275 220.256 198.55 221.546 197.261C222.837 195.972 223.562 194.225 223.564 192.402V31.4226H67.5906Z" fill="#292A2E"/>
<path d="M86.1262 9.01172C84.4224 9.01366 82.7889 9.69068 81.5842 10.8943C80.3794 12.0978 79.7017 13.7297 79.6998 15.4318H80.2436C80.2433 14.3039 80.5679 13.1998 81.1787 12.2512C81.7894 11.3027 82.6605 10.5497 83.6879 10.0821C84.7153 9.61463 85.8557 9.45232 86.9729 9.6146C88.0901 9.77688 89.137 10.2569 89.9886 10.9973C90.8402 11.7378 91.4606 12.7074 91.7756 13.7904C92.0907 14.8735 92.0871 16.0242 91.7654 17.1053C91.4437 18.1864 90.8173 19.1522 89.9612 19.8874C89.105 20.6226 88.0552 21.0961 86.937 21.2515C86.8428 21.0576 86.6822 20.9037 86.4843 20.8177C86.2864 20.7318 86.0643 20.7194 85.8581 20.7829C85.6518 20.8464 85.4752 20.9815 85.36 21.1638C85.2448 21.3461 85.1988 21.5636 85.2302 21.7769C85.2616 21.9901 85.3683 22.1852 85.5311 22.3266C85.694 22.4681 85.9021 22.5467 86.1179 22.5482C86.3337 22.5496 86.5429 22.4739 86.7076 22.3347C86.8724 22.1955 86.9818 22.0019 87.0161 21.7891C88.6278 21.5643 90.094 20.7371 91.1189 19.4743C92.1438 18.2116 92.6509 16.6074 92.538 14.9856C92.425 13.3639 91.7004 11.8453 90.5103 10.7366C89.3203 9.62778 87.7535 9.01135 86.1262 9.01172Z" fill="#F4F4F4"/>
<path d="M211.456 15.4318C211.445 13.7363 210.763 12.114 209.559 10.919C208.355 9.72393 206.726 9.05322 205.029 9.05322C203.332 9.05322 201.704 9.72393 200.5 10.919C199.296 12.114 198.614 13.7363 198.603 15.4318H199.146C199.146 14.3039 199.471 13.1998 200.081 12.2512C200.692 11.3027 201.563 10.5497 202.591 10.0822C203.618 9.61464 204.758 9.45234 205.876 9.61462C206.993 9.77689 208.04 10.2569 208.891 10.9974C209.743 11.7378 210.363 12.7074 210.678 13.7905C210.993 14.8735 210.99 16.0243 210.668 17.1053C210.346 18.1864 209.72 19.1522 208.864 19.8874C208.008 20.6226 206.958 21.0961 205.84 21.2515C205.746 21.0576 205.585 20.9037 205.387 20.8178C205.189 20.7318 204.967 20.7195 204.761 20.7829C204.555 20.8464 204.378 20.9815 204.263 21.1638C204.148 21.3461 204.102 21.5636 204.133 21.7769C204.164 21.9902 204.271 22.1852 204.434 22.3266C204.597 22.4681 204.805 22.5467 205.021 22.5482C205.236 22.5496 205.446 22.4739 205.61 22.3347C205.775 22.1955 205.885 22.0019 205.919 21.7891C207.453 21.5729 208.858 20.8109 209.875 19.643C210.892 18.4752 211.454 16.9798 211.456 15.4318Z" fill="#F4F4F4"/>
<path d="M194.469 15.4318C194.469 13.7291 193.792 12.0961 192.587 10.8921C191.382 9.68812 189.747 9.01172 188.043 9.01172C186.339 9.01172 184.704 9.68812 183.499 10.8921C182.294 12.0961 181.617 13.7291 181.617 15.4318H182.16C182.16 14.304 182.485 13.2 183.096 12.2516C183.706 11.3031 184.577 10.5502 185.605 10.0828C186.632 9.61529 187.772 9.453 188.889 9.61525C190.006 9.77749 191.053 10.2574 191.905 10.9978C192.756 11.7381 193.377 12.7076 193.692 13.7905C194.007 14.8735 194.003 16.0241 193.682 17.1051C193.36 18.1861 192.734 19.1519 191.878 19.8871C191.022 20.6223 189.972 21.096 188.854 21.2515C188.76 21.0574 188.6 20.9033 188.402 20.8172C188.204 20.731 187.981 20.7185 187.775 20.7819C187.569 20.8453 187.392 20.9804 187.276 21.1628C187.161 21.3451 187.115 21.5627 187.146 21.7762C187.177 21.9896 187.284 22.1848 187.447 22.3264C187.61 22.4681 187.818 22.5468 188.034 22.5484C188.25 22.5499 188.459 22.4742 188.624 22.335C188.789 22.1957 188.899 22.0021 188.933 21.7891C190.467 21.5728 191.872 20.8107 192.889 19.6429C193.906 18.475 194.467 16.9798 194.469 15.4318Z" fill="#F4F4F4"/>
<path d="M177.483 15.4318C177.472 13.7363 176.79 12.114 175.586 10.919C174.382 9.72393 172.754 9.05322 171.057 9.05322C169.36 9.05322 167.731 9.72393 166.527 10.919C165.323 12.114 164.641 13.7363 164.63 15.4318H165.174C165.174 14.3039 165.498 13.1998 166.109 12.2512C166.72 11.3027 167.591 10.5497 168.618 10.0822C169.646 9.61464 170.786 9.45234 171.903 9.61462C173.021 9.77689 174.067 10.2569 174.919 10.9974C175.771 11.7378 176.391 12.7074 176.706 13.7905C177.021 14.8735 177.018 16.0243 176.696 17.1053C176.374 18.1864 175.748 19.1522 174.892 19.8874C174.036 20.6226 172.986 21.0961 171.867 21.2515C171.773 21.0576 171.613 20.9037 171.415 20.8178C171.217 20.7318 170.995 20.7195 170.789 20.7829C170.582 20.8464 170.406 20.9815 170.29 21.1638C170.175 21.3461 170.129 21.5636 170.161 21.7769C170.192 21.9902 170.299 22.1852 170.462 22.3266C170.624 22.4681 170.833 22.5467 171.048 22.5482C171.264 22.5496 171.473 22.4739 171.638 22.3347C171.803 22.1955 171.912 22.0019 171.947 21.7891C173.481 21.5729 174.886 20.8109 175.903 19.643C176.92 18.4752 177.481 16.9798 177.483 15.4318Z" fill="#F4F4F4"/>
<path d="M160.497 15.4318C160.497 14.5887 160.331 13.7538 160.008 12.9749C159.685 12.196 159.212 11.4883 158.615 10.8921C158.018 10.296 157.31 9.82305 156.53 9.50042C155.75 9.17778 154.915 9.01172 154.071 9.01172C153.227 9.01172 152.391 9.17778 151.611 9.50042C150.832 9.82305 150.123 10.296 149.527 10.8921C148.93 11.4883 148.456 12.196 148.133 12.9749C147.811 13.7538 147.644 14.5887 147.644 15.4318H148.188C148.188 14.304 148.513 13.2 149.123 12.2515C149.734 11.303 150.605 10.5501 151.632 10.0826C152.66 9.61518 153.8 9.45291 154.917 9.61519C156.034 9.77747 157.081 10.2575 157.933 10.9979C158.784 11.7382 159.405 12.7078 159.72 13.7908C160.035 14.8737 160.031 16.0244 159.709 17.1054C159.388 18.1864 158.761 19.1522 157.905 19.8873C157.049 20.6225 156 21.0961 154.881 21.2515C154.787 21.0576 154.627 20.9037 154.429 20.8177C154.231 20.7318 154.009 20.7194 153.803 20.7829C153.596 20.8464 153.42 20.9815 153.305 21.1638C153.189 21.3461 153.143 21.5636 153.175 21.7769C153.206 21.9901 153.313 22.1852 153.476 22.3266C153.638 22.4681 153.847 22.5467 154.062 22.5482C154.278 22.5496 154.487 22.4739 154.652 22.3347C154.817 22.1955 154.926 22.0019 154.961 21.7891C156.495 21.5729 157.9 20.8108 158.917 19.6429C159.934 18.4751 160.495 16.9798 160.497 15.4318Z" fill="#F4F4F4"/>
<path d="M143.511 15.4318C143.5 13.7363 142.818 12.114 141.614 10.919C140.41 9.72393 138.782 9.05322 137.085 9.05322C135.387 9.05322 133.759 9.72393 132.555 10.919C131.351 12.114 130.669 13.7363 130.658 15.4318H131.202C131.202 14.3039 131.526 13.1998 132.137 12.2512C132.748 11.3027 133.619 10.5497 134.646 10.0822C135.674 9.61464 136.814 9.45234 137.931 9.61462C139.048 9.77689 140.095 10.2569 140.947 10.9974C141.799 11.7378 142.419 12.7074 142.734 13.7905C143.049 14.8735 143.045 16.0243 142.724 17.1053C142.402 18.1864 141.776 19.1522 140.919 19.8874C140.063 20.6226 139.014 21.0961 137.895 21.2515C137.801 21.0576 137.641 20.9037 137.443 20.8178C137.245 20.7318 137.023 20.7195 136.816 20.7829C136.61 20.8464 136.433 20.9815 136.318 21.1638C136.203 21.3461 136.157 21.5636 136.188 21.7769C136.22 21.9902 136.327 22.1852 136.489 22.3266C136.652 22.4681 136.86 22.5467 137.076 22.5482C137.292 22.5496 137.501 22.4739 137.666 22.3347C137.831 22.1955 137.94 22.0019 137.974 21.7891C139.509 21.5729 140.914 20.8109 141.931 19.643C142.948 18.4752 143.509 16.9798 143.511 15.4318Z" fill="#F4F4F4"/>
<path d="M126.525 15.4318C126.525 13.7291 125.848 12.0961 124.643 10.8921C123.437 9.68812 121.803 9.01172 120.098 9.01172C118.394 9.01172 116.759 9.68812 115.554 10.8921C114.349 12.0961 113.672 13.7291 113.672 15.4318H114.216C114.216 14.304 114.54 13.2 115.151 12.2515C115.762 11.303 116.633 10.5501 117.66 10.0826C118.687 9.61518 119.828 9.45291 120.945 9.61519C122.062 9.77747 123.109 10.2575 123.96 10.9979C124.812 11.7382 125.432 12.7078 125.747 13.7908C126.062 14.8737 126.059 16.0244 125.737 17.1054C125.415 18.1864 124.789 19.1522 123.933 19.8873C123.077 20.6225 122.027 21.0961 120.909 21.2515C120.815 21.0576 120.654 20.9037 120.457 20.8177C120.259 20.7318 120.037 20.7194 119.83 20.7829C119.624 20.8464 119.447 20.9815 119.332 21.1638C119.217 21.3461 119.171 21.5636 119.202 21.7769C119.234 21.9901 119.341 22.1852 119.503 22.3266C119.666 22.4681 119.874 22.5467 120.09 22.5482C120.306 22.5496 120.515 22.4739 120.68 22.3347C120.845 22.1955 120.954 22.0019 120.988 21.7891C122.523 21.5729 123.927 20.8108 124.945 19.6429C125.962 18.4751 126.523 16.9798 126.525 15.4318Z" fill="#F4F4F4"/>
<path d="M109.539 15.4318C109.528 13.7363 108.846 12.114 107.642 10.919C106.438 9.72393 104.81 9.05322 103.112 9.05322C101.415 9.05322 99.7868 9.72393 98.5828 10.919C97.3788 12.114 96.6968 13.7363 96.6858 15.4318H97.2296C97.2294 14.3039 97.554 13.1998 98.1647 12.2512C98.7754 11.3027 99.6465 10.5497 100.674 10.0822C101.701 9.61464 102.842 9.45234 103.959 9.61462C105.076 9.77689 106.123 10.2569 106.975 10.9974C107.826 11.7378 108.447 12.7074 108.762 13.7905C109.077 14.8735 109.073 16.0243 108.751 17.1053C108.43 18.1864 107.803 19.1522 106.947 19.8874C106.091 20.6226 105.041 21.0961 103.923 21.2515C103.829 21.0576 103.668 20.9037 103.47 20.8178C103.272 20.7318 103.05 20.7195 102.844 20.7829C102.638 20.8464 102.461 20.9815 102.346 21.1638C102.231 21.3461 102.185 21.5636 102.216 21.7769C102.248 21.9902 102.354 22.1852 102.517 22.3266C102.68 22.4681 102.888 22.5467 103.104 22.5482C103.32 22.5496 103.529 22.4739 103.694 22.3347C103.858 22.1955 103.968 22.0019 104.002 21.7891C105.537 21.5729 106.941 20.8109 107.958 19.643C108.976 18.4752 109.537 16.9798 109.539 15.4318Z" fill="#F4F4F4"/>
<g opacity="0.6">
<path d="M86.1262 9.01172C84.4224 9.01366 82.7889 9.69068 81.5842 10.8943C80.3794 12.0978 79.7017 13.7297 79.6998 15.4318H80.2436C80.2433 14.3039 80.5679 13.1998 81.1787 12.2512C81.7894 11.3027 82.6605 10.5497 83.6879 10.0821C84.7153 9.61463 85.8557 9.45232 86.9729 9.6146C88.0901 9.77688 89.137 10.2569 89.9886 10.9973C90.8402 11.7378 91.4606 12.7074 91.7756 13.7904C92.0907 14.8735 92.0871 16.0242 91.7654 17.1053C91.4437 18.1864 90.8173 19.1522 89.9612 19.8874C89.105 20.6226 88.0552 21.0961 86.937 21.2515C86.8428 21.0576 86.6822 20.9037 86.4843 20.8177C86.2864 20.7318 86.0643 20.7194 85.8581 20.7829C85.6518 20.8464 85.4752 20.9815 85.36 21.1638C85.2448 21.3461 85.1988 21.5636 85.2302 21.7769C85.2616 21.9901 85.3683 22.1852 85.5311 22.3266C85.694 22.4681 85.9021 22.5467 86.1179 22.5482C86.3337 22.5496 86.5429 22.4739 86.7076 22.3347C86.8724 22.1955 86.9818 22.0019 87.0161 21.7891C88.6278 21.5643 90.094 20.7371 91.1189 19.4743C92.1438 18.2116 92.6509 16.6074 92.538 14.9856C92.425 13.3639 91.7004 11.8453 90.5103 10.7366C89.3203 9.62778 87.7535 9.01135 86.1262 9.01172Z" fill="#292A2E"/>
<path d="M211.456 15.4318C211.445 13.7363 210.763 12.114 209.559 10.919C208.355 9.72393 206.726 9.05322 205.029 9.05322C203.332 9.05322 201.704 9.72393 200.5 10.919C199.296 12.114 198.614 13.7363 198.603 15.4318H199.146C199.146 14.3039 199.471 13.1998 200.081 12.2512C200.692 11.3027 201.563 10.5497 202.591 10.0822C203.618 9.61464 204.758 9.45234 205.876 9.61462C206.993 9.77689 208.04 10.2569 208.891 10.9974C209.743 11.7378 210.363 12.7074 210.678 13.7905C210.993 14.8735 210.99 16.0243 210.668 17.1053C210.346 18.1864 209.72 19.1522 208.864 19.8874C208.008 20.6226 206.958 21.0961 205.84 21.2515C205.746 21.0576 205.585 20.9037 205.387 20.8178C205.189 20.7318 204.967 20.7195 204.761 20.7829C204.555 20.8464 204.378 20.9815 204.263 21.1638C204.148 21.3461 204.102 21.5636 204.133 21.7769C204.164 21.9902 204.271 22.1852 204.434 22.3266C204.597 22.4681 204.805 22.5467 205.021 22.5482C205.236 22.5496 205.446 22.4739 205.61 22.3347C205.775 22.1955 205.885 22.0019 205.919 21.7891C207.453 21.5729 208.858 20.8109 209.875 19.643C210.892 18.4752 211.454 16.9798 211.456 15.4318Z" fill="#292A2E"/>
<path d="M194.469 15.4318C194.469 13.7291 193.792 12.0961 192.587 10.8921C191.382 9.68812 189.747 9.01172 188.043 9.01172C186.339 9.01172 184.704 9.68812 183.499 10.8921C182.294 12.0961 181.617 13.7291 181.617 15.4318H182.16C182.16 14.304 182.485 13.2 183.096 12.2516C183.706 11.3031 184.577 10.5502 185.605 10.0828C186.632 9.61529 187.772 9.453 188.889 9.61525C190.006 9.77749 191.053 10.2574 191.905 10.9978C192.756 11.7381 193.377 12.7076 193.692 13.7905C194.007 14.8735 194.003 16.0241 193.682 17.1051C193.36 18.1861 192.734 19.1519 191.878 19.8871C191.022 20.6223 189.972 21.096 188.854 21.2515C188.76 21.0574 188.6 20.9033 188.402 20.8172C188.204 20.731 187.981 20.7185 187.775 20.7819C187.569 20.8453 187.392 20.9804 187.276 21.1628C187.161 21.3451 187.115 21.5627 187.146 21.7762C187.177 21.9896 187.284 22.1848 187.447 22.3264C187.61 22.4681 187.818 22.5468 188.034 22.5484C188.25 22.5499 188.459 22.4742 188.624 22.335C188.789 22.1957 188.899 22.0021 188.933 21.7891C190.467 21.5728 191.872 20.8107 192.889 19.6429C193.906 18.475 194.467 16.9798 194.469 15.4318Z" fill="#292A2E"/>
<path d="M177.483 15.4318C177.472 13.7363 176.79 12.114 175.586 10.919C174.382 9.72393 172.754 9.05322 171.057 9.05322C169.36 9.05322 167.731 9.72393 166.527 10.919C165.323 12.114 164.641 13.7363 164.63 15.4318H165.174C165.174 14.3039 165.498 13.1998 166.109 12.2512C166.72 11.3027 167.591 10.5497 168.618 10.0822C169.646 9.61464 170.786 9.45234 171.903 9.61462C173.021 9.77689 174.067 10.2569 174.919 10.9974C175.771 11.7378 176.391 12.7074 176.706 13.7905C177.021 14.8735 177.018 16.0243 176.696 17.1053C176.374 18.1864 175.748 19.1522 174.892 19.8874C174.036 20.6226 172.986 21.0961 171.867 21.2515C171.773 21.0576 171.613 20.9037 171.415 20.8178C171.217 20.7318 170.995 20.7195 170.789 20.7829C170.582 20.8464 170.406 20.9815 170.29 21.1638C170.175 21.3461 170.129 21.5636 170.161 21.7769C170.192 21.9902 170.299 22.1852 170.462 22.3266C170.624 22.4681 170.833 22.5467 171.048 22.5482C171.264 22.5496 171.473 22.4739 171.638 22.3347C171.803 22.1955 171.912 22.0019 171.947 21.7891C173.481 21.5729 174.886 20.8109 175.903 19.643C176.92 18.4752 177.481 16.9798 177.483 15.4318Z" fill="#292A2E"/>
<path d="M160.497 15.4318C160.497 14.5887 160.331 13.7538 160.008 12.9749C159.685 12.196 159.212 11.4883 158.615 10.8921C158.018 10.296 157.31 9.82305 156.53 9.50042C155.75 9.17778 154.915 9.01172 154.071 9.01172C153.227 9.01172 152.391 9.17778 151.611 9.50042C150.832 9.82305 150.123 10.296 149.527 10.8921C148.93 11.4883 148.456 12.196 148.133 12.9749C147.811 13.7538 147.644 14.5887 147.644 15.4318H148.188C148.188 14.304 148.513 13.2 149.123 12.2515C149.734 11.303 150.605 10.5501 151.632 10.0826C152.66 9.61518 153.8 9.45291 154.917 9.61519C156.034 9.77747 157.081 10.2575 157.933 10.9979C158.784 11.7382 159.405 12.7078 159.72 13.7908C160.035 14.8737 160.031 16.0244 159.709 17.1054C159.388 18.1864 158.761 19.1522 157.905 19.8873C157.049 20.6225 156 21.0961 154.881 21.2515C154.787 21.0576 154.627 20.9037 154.429 20.8177C154.231 20.7318 154.009 20.7194 153.803 20.7829C153.596 20.8464 153.42 20.9815 153.305 21.1638C153.189 21.3461 153.143 21.5636 153.175 21.7769C153.206 21.9901 153.313 22.1852 153.476 22.3266C153.638 22.4681 153.847 22.5467 154.062 22.5482C154.278 22.5496 154.487 22.4739 154.652 22.3347C154.817 22.1955 154.926 22.0019 154.961 21.7891C156.495 21.5729 157.9 20.8108 158.917 19.6429C159.934 18.4751 160.495 16.9798 160.497 15.4318Z" fill="#292A2E"/>
<path d="M143.511 15.4318C143.5 13.7363 142.818 12.114 141.614 10.919C140.41 9.72393 138.782 9.05322 137.085 9.05322C135.387 9.05322 133.759 9.72393 132.555 10.919C131.351 12.114 130.669 13.7363 130.658 15.4318H131.202C131.202 14.3039 131.526 13.1998 132.137 12.2512C132.748 11.3027 133.619 10.5497 134.646 10.0822C135.674 9.61464 136.814 9.45234 137.931 9.61462C139.048 9.77689 140.095 10.2569 140.947 10.9974C141.799 11.7378 142.419 12.7074 142.734 13.7905C143.049 14.8735 143.045 16.0243 142.724 17.1053C142.402 18.1864 141.776 19.1522 140.919 19.8874C140.063 20.6226 139.014 21.0961 137.895 21.2515C137.801 21.0576 137.641 20.9037 137.443 20.8178C137.245 20.7318 137.023 20.7195 136.816 20.7829C136.61 20.8464 136.433 20.9815 136.318 21.1638C136.203 21.3461 136.157 21.5636 136.188 21.7769C136.22 21.9902 136.327 22.1852 136.489 22.3266C136.652 22.4681 136.86 22.5467 137.076 22.5482C137.292 22.5496 137.501 22.4739 137.666 22.3347C137.831 22.1955 137.94 22.0019 137.974 21.7891C139.509 21.5729 140.914 20.8109 141.931 19.643C142.948 18.4752 143.509 16.9798 143.511 15.4318Z" fill="#292A2E"/>
<path d="M126.525 15.4318C126.525 13.7291 125.848 12.0961 124.643 10.8921C123.437 9.68812 121.803 9.01172 120.098 9.01172C118.394 9.01172 116.759 9.68812 115.554 10.8921C114.349 12.0961 113.672 13.7291 113.672 15.4318H114.216C114.216 14.304 114.54 13.2 115.151 12.2515C115.762 11.303 116.633 10.5501 117.66 10.0826C118.687 9.61518 119.828 9.45291 120.945 9.61519C122.062 9.77747 123.109 10.2575 123.96 10.9979C124.812 11.7382 125.432 12.7078 125.747 13.7908C126.062 14.8737 126.059 16.0244 125.737 17.1054C125.415 18.1864 124.789 19.1522 123.933 19.8873C123.077 20.6225 122.027 21.0961 120.909 21.2515C120.815 21.0576 120.654 20.9037 120.457 20.8177C120.259 20.7318 120.037 20.7194 119.83 20.7829C119.624 20.8464 119.447 20.9815 119.332 21.1638C119.217 21.3461 119.171 21.5636 119.202 21.7769C119.234 21.9901 119.341 22.1852 119.503 22.3266C119.666 22.4681 119.874 22.5467 120.09 22.5482C120.306 22.5496 120.515 22.4739 120.68 22.3347C120.845 22.1955 120.954 22.0019 120.988 21.7891C122.523 21.5729 123.927 20.8108 124.945 19.6429C125.962 18.4751 126.523 16.9798 126.525 15.4318Z" fill="#292A2E"/>
<path d="M109.539 15.4318C109.528 13.7363 108.846 12.114 107.642 10.919C106.438 9.72393 104.81 9.05322 103.112 9.05322C101.415 9.05322 99.7868 9.72393 98.5828 10.919C97.3788 12.114 96.6968 13.7363 96.6858 15.4318H97.2296C97.2294 14.3039 97.554 13.1998 98.1647 12.2512C98.7754 11.3027 99.6465 10.5497 100.674 10.0822C101.701 9.61464 102.842 9.45234 103.959 9.61462C105.076 9.77689 106.123 10.2569 106.975 10.9974C107.826 11.7378 108.447 12.7074 108.762 13.7905C109.077 14.8735 109.073 16.0243 108.751 17.1053C108.43 18.1864 107.803 19.1522 106.947 19.8874C106.091 20.6226 105.041 21.0961 103.923 21.2515C103.829 21.0576 103.668 20.9037 103.47 20.8178C103.272 20.7318 103.05 20.7195 102.844 20.7829C102.638 20.8464 102.461 20.9815 102.346 21.1638C102.231 21.3461 102.185 21.5636 102.216 21.7769C102.248 21.9902 102.354 22.1852 102.517 22.3266C102.68 22.4681 102.888 22.5467 103.104 22.5482C103.32 22.5496 103.529 22.4739 103.694 22.3347C103.858 22.1955 103.968 22.0019 104.002 21.7891C105.537 21.5729 106.941 20.8109 107.958 19.643C108.976 18.4752 109.537 16.9798 109.539 15.4318Z" fill="#292A2E"/>
</g>
<g opacity="0.72">
<path d="M208.979 48.7528H81.4372C81.3651 48.7528 81.2959 48.7242 81.2449 48.6732C81.1939 48.6223 81.1653 48.5532 81.1653 48.4812C81.1653 48.4091 81.1939 48.34 81.2449 48.2891C81.2959 48.2382 81.3651 48.2095 81.4372 48.2095H208.979C209.052 48.2095 209.121 48.2382 209.172 48.2891C209.223 48.34 209.251 48.4091 209.251 48.4812C209.251 48.5532 209.223 48.6223 209.172 48.6732C209.121 48.7242 209.052 48.7528 208.979 48.7528Z" fill="#292A2E"/>
</g>
<g opacity="0.72">
<path d="M208.979 64.1531H81.4372C81.3651 64.1531 81.2959 64.1245 81.2449 64.0735C81.1939 64.0226 81.1653 63.9535 81.1653 63.8814C81.1653 63.8094 81.1939 63.7403 81.2449 63.6894C81.2959 63.6384 81.3651 63.6098 81.4372 63.6098H208.979C209.052 63.6098 209.121 63.6384 209.172 63.6894C209.223 63.7403 209.251 63.8094 209.251 63.8814C209.251 63.9535 209.223 64.0226 209.172 64.0735C209.121 64.1245 209.052 64.1531 208.979 64.1531Z" fill="#292A2E"/>
</g>
<g opacity="0.72">
<path d="M137.015 79.5536H81.4377C81.3656 79.5536 81.2965 79.525 81.2455 79.474C81.1945 79.4231 81.1658 79.354 81.1658 79.282C81.1658 79.2099 81.1945 79.1408 81.2455 79.0899C81.2965 79.039 81.3656 79.0103 81.4377 79.0103H137.015C137.087 79.0103 137.156 79.039 137.207 79.0899C137.258 79.1408 137.286 79.2099 137.286 79.282C137.286 79.354 137.258 79.4231 137.207 79.474C137.156 79.525 137.087 79.5536 137.015 79.5536Z" fill="#292A2E"/>
</g>
<path d="M269.732 129.032C270.934 129.032 272.119 128.742 273.185 128.186C274.251 127.63 275.167 126.825 275.855 125.839C276.542 124.854 276.982 123.717 277.135 122.525C277.288 121.334 277.151 120.123 276.735 118.995C276.312 117.851 266.409 91.6538 264.524 86.8L250.565 92.45C251.626 95.1793 255.466 105.524 258.551 113.858L253.425 113.301L251.812 128.13L268.924 128.99C269.192 129.019 269.462 129.033 269.732 129.032Z" fill="#B0ECFF"/>
<path d="M146.975 92.2199L152.134 73.7928L273.703 106.235L268.543 124.662L146.975 92.2199Z" fill="#B0ECFF"/>
<path opacity="0.5" d="M146.975 92.2199L152.134 73.7928L273.703 106.235L268.543 124.662L146.975 92.2199Z" fill="white"/>
<path d="M281.887 128.392L287.047 109.964L273.704 106.236L268.545 124.663L281.887 128.392Z" fill="#262626"/>
<path d="M146.975 92.2197C146.975 92.2197 143.474 88.2997 140.347 84.7769C137.868 81.9826 135.625 79.4379 135.556 79.2986C135.488 79.1592 138.856 78.0197 142.577 76.8175C147.097 75.3556 152.135 73.7934 152.135 73.7934L146.975 92.2197Z" fill="#B0ECFF"/>
<path opacity="0.9" d="M146.975 92.2197C146.975 92.2197 143.474 88.2997 140.347 84.7769C137.868 81.9826 135.625 79.4379 135.556 79.2986C135.488 79.1592 138.856 78.0197 142.577 76.8175C147.097 75.3556 152.135 73.7934 152.135 73.7934L146.975 92.2197Z" fill="white"/>
<path d="M140.347 84.7768C137.868 81.9825 135.625 79.4379 135.556 79.2985C135.488 79.1592 138.856 78.0197 142.577 76.8174L140.347 84.7768Z" fill="#262626"/>
<path d="M148.617 86.4919L270.217 118.59L269.985 119.432L148.384 87.3337L148.617 86.4919Z" fill="white"/>
<path d="M150.632 79.282L272.233 111.38L272 112.222L150.4 80.1235L150.632 79.282Z" fill="white"/>
<path d="M253.886 243.981C253.886 243.981 252.658 250.338 246.7 250.693C240.742 251.049 242.034 255.789 242.034 255.789H264.803V244.425L253.886 243.981Z" fill="#B0ECFF"/>
<path d="M260.908 128.014C260.908 128.014 260.837 126.102 260.852 130.438C260.908 146.608 261.189 165.078 261.876 175.886C262.979 193.261 265.807 248.04 265.807 248.04L250.846 247.914L236.345 127.357L260.908 128.014Z" fill="#262626"/>
<path d="M244.013 147.082C244.013 147.082 243.393 158.816 243.279 161.571C243.013 167.942 242.92 174.539 242.92 182.018L240.562 162.411C240.562 162.411 242.287 156.267 244.013 147.082Z" fill="#0A0A0A"/>
<path d="M227.25 243.981C227.25 243.981 226.023 250.338 220.064 250.693C214.106 251.049 215.398 255.789 215.398 255.789H238.167V244.425L227.25 243.981Z" fill="#B0ECFF"/>
<path d="M220.006 129.27C220.006 129.27 218.681 184.536 218.875 187.237L224.439 247.621L239.153 247.893L237.719 185.052C237.719 185.052 238.731 167.718 242.923 151.622C245.068 143.36 246.359 134.901 246.775 126.376L220.006 129.27Z" fill="#262626"/>
<path d="M261.072 128.012L261.12 128.015C261.12 128.015 261.085 127.072 261.072 128.012Z" fill="#333333"/>
<path d="M217.899 98.5932C218.208 102.215 219.709 124.809 220.006 129.269H260.892C261.123 125.246 261.162 107.815 262.038 99.9473C262.874 92.4399 265.513 88.5202 264.31 86.301C262.346 82.6736 256.977 80.5774 253.316 80.0822C251.08 79.7799 247.718 79.5631 247.718 79.5631C247.718 79.5631 247.433 85.3166 240.645 85.6368C231.404 86.0714 232.021 79.5631 231.976 79.5631C230.48 79.5631 222.2 80.4101 220.378 82.0203C215.481 86.3504 217.245 90.9187 217.899 98.5932Z" fill="#B0ECFF"/>
<path d="M227.105 79.0671C227.15 79.0611 228.404 83.7762 238.192 83.0425C244.968 82.5353 246.621 77.9276 246.775 77.9276C246.045 77.7725 244.859 77.6114 244.534 77.4387C243.467 76.8661 242.69 76.1688 242.299 74.6726C241.993 73.5024 241.837 68.9979 241.837 66.7379L231.41 69.0786C231.555 71.6279 232.572 77.5381 229.008 78.5842C228.414 78.7569 227.776 78.9161 227.105 79.0671Z" fill="#E98862"/>
<path d="M231.771 74.0905C235.881 74.4146 241.162 72.6807 242.165 67.2021L243.07 62.2584C244.072 56.7798 242.005 51.8122 236.843 50.8688C231.68 49.9254 227.007 53.6615 226.004 59.1401L225.603 61.3286C225.217 63.4311 224.437 73.5125 231.771 74.0905Z" fill="#E98862"/>
<path d="M227.96 69.0604C228.698 65.357 229.036 62.8859 228.997 60.279C227.957 58.4591 228.231 56.3675 228.467 55.4646C227.751 55.9189 226.91 56.1345 226.064 56.0804C226.064 56.0804 227.782 49.1896 233.622 47.3354C234.697 46.9176 237.439 46.3901 241.081 46.8891C244.178 47.3134 251.813 49.6272 252.904 58.2143V58.2192C252.94 58.5039 253.673 66.4158 255.134 70.2119C257.098 75.315 259.857 76.9006 259.787 82.7885C259.697 90.3619 245.76 91.3699 237.355 90.8036C228.95 90.2372 224.256 87.4755 224.195 82.0176C224.129 75.9023 226.483 76.4703 227.96 69.0604Z" fill="#0A0A0A"/>
<path d="M261.766 99.9388L260.761 129.266L261.033 129.275L262.038 99.948L261.766 99.9388Z" fill="#0C0C0C"/>
<path d="M179.537 100.518L175.497 94.7434C175.408 94.6165 175.294 94.5095 175.162 94.4291C175.029 94.3488 174.881 94.2969 174.728 94.2767C174.574 94.2566 174.418 94.2686 174.269 94.312C174.12 94.3555 173.982 94.4294 173.864 94.5291C173.651 94.7198 173.516 94.9829 173.486 95.2672C173.456 95.5516 173.532 95.837 173.701 96.0681L174.567 97.3062L170.053 94.6616C169.557 94.359 168.753 94.3047 168.449 94.8838C168.318 95.0989 168.263 95.3522 168.295 95.6023C168.326 95.8523 168.441 96.0843 168.622 96.2604C168.618 96.2643 168.614 96.2687 168.611 96.2735C168.609 96.2775 168.608 96.2815 168.607 96.2857L167.841 95.8188C167.699 95.7324 167.539 95.6787 167.374 95.6617C167.209 95.6447 167.042 95.6647 166.885 95.7203C166.729 95.7759 166.586 95.8657 166.469 95.9832C166.351 96.1006 166.262 96.2428 166.206 96.3992C166.124 96.6475 166.129 96.9165 166.222 97.1612C166.314 97.4059 166.488 97.6115 166.714 97.7436L167.04 97.9421C167.039 97.9542 167.039 97.9664 167.042 97.9783C166.791 97.895 166.518 97.904 166.272 98.0035C166.027 98.1031 165.825 98.2867 165.702 98.5215C165.576 98.7819 165.553 99.0803 165.637 99.3572C165.721 99.634 165.906 99.8691 166.156 100.016L166.966 100.509C166.953 100.509 166.94 100.513 166.928 100.518C166.916 100.524 166.905 100.531 166.897 100.541C166.888 100.551 166.881 100.562 166.877 100.575C166.873 100.587 166.871 100.6 166.872 100.613C166.628 100.602 166.387 100.67 166.185 100.809C165.984 100.948 165.834 101.148 165.758 101.38C165.683 101.626 165.693 101.89 165.787 102.129C165.88 102.369 166.052 102.569 166.274 102.699L173.105 106.862C174.06 107.445 175.168 107.729 176.286 107.678C177.405 107.627 178.482 107.244 179.381 106.578C180.156 106.003 180.676 105.149 180.831 104.197C180.986 103.246 180.763 102.271 180.211 101.481L179.537 100.518Z" fill="#E98862"/>
<g opacity="0.2">
<path d="M173.078 98.9018C173.064 98.9247 173.041 98.941 173.015 98.9474C172.989 98.9538 172.961 98.9498 172.938 98.936L168.649 96.4156C168.627 96.4012 168.61 96.3787 168.604 96.3528C168.598 96.3269 168.602 96.2995 168.616 96.2765C168.629 96.2535 168.651 96.2367 168.677 96.2295C168.702 96.2224 168.73 96.2255 168.753 96.2382L173.043 98.7589C173.054 98.7658 173.065 98.7748 173.073 98.7856C173.081 98.7964 173.087 98.8087 173.09 98.8217C173.094 98.8348 173.094 98.8484 173.092 98.8618C173.091 98.8752 173.086 98.888 173.079 98.8996L173.078 98.9018Z" fill="#0C0C0C"/>
</g>
<g opacity="0.2">
<path d="M172.017 100.821C172.003 100.844 171.981 100.86 171.954 100.867C171.928 100.873 171.901 100.869 171.878 100.855L167.092 98.0424C167.08 98.0355 167.07 98.0264 167.062 98.0156C167.054 98.0048 167.048 97.9925 167.045 97.9794C167.041 97.9663 167.041 97.9527 167.042 97.9393C167.044 97.9259 167.049 97.913 167.056 97.9014C167.07 97.8786 167.093 97.8621 167.119 97.8553C167.145 97.8486 167.173 97.852 167.197 97.865L171.982 100.678C172.005 100.692 172.022 100.714 172.029 100.741C172.036 100.767 172.032 100.795 172.019 100.819L172.017 100.821Z" fill="#0C0C0C"/>
</g>
<g opacity="0.2">
<path d="M170.882 102.907C170.868 102.93 170.845 102.947 170.819 102.953C170.793 102.959 170.765 102.955 170.742 102.942L166.924 100.698C166.901 100.684 166.885 100.661 166.879 100.635C166.873 100.609 166.877 100.582 166.89 100.559C166.904 100.536 166.926 100.519 166.952 100.512C166.977 100.505 167.005 100.508 167.028 100.521L170.847 102.764C170.858 102.771 170.868 102.78 170.877 102.791C170.885 102.802 170.891 102.814 170.894 102.827C170.897 102.84 170.898 102.854 170.896 102.867C170.894 102.881 170.89 102.894 170.883 102.905L170.882 102.907Z" fill="#0C0C0C"/>
</g>
<path d="M218.858 83.7639L201.906 109.147L180.501 96.7488L172.771 109.397L200.189 126.989C201.948 128.114 204.078 128.506 206.123 128.079C208.167 127.653 209.963 126.442 211.123 124.707L211.225 124.555L232.428 92.8093L218.858 83.7639Z" fill="#B0ECFF"/>
<path d="M218.91 113.366C218.885 113.366 218.861 113.359 218.84 113.346C218.819 113.334 218.801 113.316 218.79 113.294C218.778 113.272 218.773 113.248 218.774 113.223C218.775 113.199 218.783 113.175 218.797 113.154L223.267 106.505C223.288 106.477 223.319 106.457 223.354 106.451C223.388 106.444 223.424 106.452 223.454 106.472C223.483 106.491 223.504 106.522 223.511 106.556C223.518 106.591 223.512 106.627 223.493 106.657L219.022 113.306C219.01 113.324 218.993 113.339 218.974 113.35C218.954 113.36 218.932 113.366 218.91 113.366Z" fill="#0C0C0C"/>
<path d="M294.38 256H38.3908C38.335 256 38.2816 255.978 38.2422 255.939C38.2027 255.899 38.1806 255.846 38.1806 255.79C38.1806 255.734 38.2027 255.681 38.2422 255.642C38.2816 255.602 38.335 255.58 38.3908 255.58H294.38C294.435 255.58 294.489 255.602 294.528 255.642C294.568 255.681 294.59 255.734 294.59 255.79C294.59 255.846 294.568 255.899 294.528 255.939C294.489 255.978 294.435 256 294.38 256Z" fill="#3F3F3F"/>
</svg>
