<svg width="342" height="284" viewBox="0 0 342 284" fill="none" xmlns="http://www.w3.org/2000/svg">
<g clip-path="url(#clip0_103_175)">
<g clip-path="url(#clip1_103_175)">
<path d="M88.828 82.5925L86.1965 85.0642L94.7013 95.0234L97.3328 92.5517L88.828 82.5925Z" fill="#00677C"/>
<path d="M127.82 127.168L117.617 135.183L119.735 138.149L129.938 130.134L127.82 127.168Z" fill="#B0ECFF"/>
<path d="M245.827 35.1906L243.407 37.8888L252.691 47.0512L255.112 44.3531L245.827 35.1906Z" fill="#B0ECFF"/>
<path d="M178.321 38.17L171.967 49.7612L175.029 51.6077L181.383 40.0165L178.321 38.17Z" fill="#00677C"/>
<path d="M270.583 137.293L267.596 139.27L274.399 150.577L277.387 148.6L270.583 137.293Z" fill="#00677C"/>
<path d="M132.056 192.351L128.895 194.006L134.593 205.966L137.753 204.311L132.056 192.351Z" fill="#00677C"/>
<path d="M85.8209 160.881L82.1602 173.688L85.5436 174.752L89.2043 161.945L85.8209 160.881Z" fill="#B0ECFF"/>
<path d="M306.961 200.788L296.374 208.234L298.341 211.311L308.929 203.865L306.961 200.788Z" fill="#B0ECFF"/>
<path d="M308.547 14.001L302.194 25.5919L305.257 27.4383L311.61 15.8475L308.547 14.001Z" fill="#00677C"/>
<path d="M296.955 93.4435L294.836 96.4091L305.039 104.424L307.158 101.459L296.955 93.4435Z" fill="#00677C"/>
<path d="M10.3549 38.8163L1.07075 47.9788L3.49163 50.6769L12.7758 41.5144L10.3549 38.8163Z" fill="#B0ECFF"/>
<path d="M113.187 27.9053L110.124 29.7518L116.478 41.343L119.541 39.4965L113.187 27.9053Z" fill="#B0ECFF"/>
<path d="M234.114 88.3487L225.609 98.3079L228.241 100.78L236.745 90.8204L234.114 88.3487Z" fill="#B0ECFF"/>
<path d="M159.451 200.606L153.754 212.566L156.914 214.222L162.611 202.262L159.451 200.606Z" fill="#00677C"/>
<path d="M205.688 169.137L202.304 170.201L205.965 183.008L209.348 181.944L205.688 169.137Z" fill="#B0ECFF"/>
<path d="M206.827 176.446L194.786 166.847C194.522 166.636 194.218 166.485 193.895 166.404C193.572 166.323 193.236 166.314 192.909 166.376C192.582 166.439 192.271 166.572 191.996 166.767C191.721 166.963 191.487 167.216 191.311 167.511C191.001 168.067 190.898 168.723 191.024 169.353C191.149 169.983 191.493 170.542 191.989 170.922L194.57 172.98L183.619 170.416C182.407 170.109 180.731 170.545 180.492 171.995C180.365 172.546 180.42 173.127 180.648 173.641C180.877 174.155 181.264 174.574 181.748 174.827C181.742 174.838 181.738 174.85 181.735 174.862C181.734 174.872 181.734 174.882 181.735 174.891L179.864 174.417C179.518 174.33 179.157 174.324 178.808 174.402C178.459 174.479 178.132 174.637 177.848 174.864C177.565 175.09 177.334 175.381 177.171 175.713C177.009 176.046 176.919 176.413 176.908 176.786C176.903 177.375 177.091 177.948 177.44 178.409C177.789 178.869 178.279 179.191 178.827 179.318L179.621 179.52C179.627 179.547 179.636 179.572 179.65 179.596C179.082 179.591 178.531 179.797 178.095 180.179C177.659 180.561 177.367 181.093 177.27 181.68C177.183 182.325 177.331 182.982 177.684 183.518C178.038 184.054 178.571 184.431 179.178 184.573L181.155 185.074C181.123 185.087 181.094 185.109 181.071 185.136C181.048 185.164 181.031 185.197 181.023 185.233C181.015 185.276 181.019 185.321 181.035 185.361C180.528 185.504 180.079 185.817 179.759 186.253C179.438 186.689 179.263 187.223 179.26 187.774C179.268 188.352 179.462 188.91 179.81 189.358C180.159 189.807 180.641 190.118 181.18 190.243L197.86 194.47C200.193 195.061 202.642 194.907 204.892 194.029C207.142 193.152 209.091 191.589 210.489 189.543C211.694 187.778 212.196 185.589 211.887 183.443C211.578 181.296 210.484 179.36 208.836 178.047L206.827 176.446Z" fill="#E98862"/>
<g opacity="0.2">
<path d="M192.576 177.422C192.562 177.48 192.527 177.531 192.478 177.563C192.428 177.595 192.369 177.605 192.313 177.592L181.901 175.137C181.872 175.13 181.846 175.118 181.822 175.1C181.798 175.083 181.778 175.061 181.763 175.035C181.747 175.009 181.737 174.98 181.732 174.95C181.727 174.921 181.727 174.89 181.734 174.86C181.74 174.83 181.752 174.802 181.769 174.778C181.786 174.753 181.807 174.731 181.831 174.715C181.856 174.699 181.883 174.688 181.912 174.683C181.94 174.678 181.97 174.678 181.998 174.685L192.41 177.14C192.438 177.146 192.465 177.159 192.489 177.176C192.513 177.194 192.533 177.216 192.548 177.242C192.564 177.268 192.574 177.297 192.579 177.327C192.584 177.357 192.583 177.388 192.577 177.417L192.576 177.422Z" fill="#0C0C0C"/>
</g>
<g opacity="0.2">
<path d="M191.671 182.268C191.657 182.327 191.622 182.378 191.572 182.41C191.522 182.442 191.463 182.452 191.406 182.438L179.786 179.701C179.758 179.694 179.731 179.681 179.707 179.664C179.683 179.646 179.663 179.624 179.647 179.598C179.632 179.572 179.622 179.543 179.617 179.513C179.612 179.483 179.613 179.452 179.619 179.423C179.634 179.364 179.669 179.313 179.719 179.28C179.768 179.248 179.827 179.236 179.884 179.248L191.504 181.985C191.533 181.991 191.559 182.004 191.583 182.021C191.607 182.039 191.627 182.061 191.643 182.087C191.658 182.113 191.669 182.142 191.674 182.172C191.678 182.202 191.678 182.233 191.671 182.263V182.268Z" fill="#0C0C0C"/>
</g>
<g opacity="0.2">
<path d="M190.72 187.522C190.706 187.581 190.671 187.631 190.622 187.663C190.573 187.695 190.514 187.705 190.458 187.692L181.188 185.509C181.131 185.495 181.082 185.459 181.05 185.407C181.019 185.355 181.009 185.292 181.021 185.232C181.034 185.172 181.069 185.12 181.119 185.087C181.168 185.054 181.228 185.043 181.285 185.057L190.554 187.24C190.583 187.247 190.61 187.259 190.633 187.277C190.657 187.294 190.678 187.317 190.693 187.342C190.709 187.368 190.719 187.397 190.724 187.427C190.729 187.457 190.728 187.488 190.722 187.518L190.72 187.522Z" fill="#0C0C0C"/>
</g>
<path d="M149.663 110.423L156.386 96.214C156.534 95.9018 156.742 95.6252 156.997 95.402C157.252 95.1787 157.549 95.0137 157.868 94.9173C158.188 94.821 158.523 94.7954 158.852 94.8423C159.181 94.8891 159.498 95.0074 159.781 95.1896C160.294 95.5427 160.664 96.0831 160.819 96.7061C160.974 97.3291 160.903 97.9903 160.62 98.5615L159.178 101.608L167.903 94.211C168.86 93.3705 170.546 92.981 171.374 94.1684C171.721 94.6035 171.917 95.1492 171.931 95.7163C171.944 96.2834 171.774 96.8386 171.448 97.2912C171.458 97.2987 171.467 97.3072 171.475 97.3166C171.48 97.3248 171.484 97.3333 171.488 97.3421L172.963 96.0454C173.236 95.8055 173.557 95.6326 173.902 95.5393C174.247 95.446 174.608 95.4347 174.958 95.5061C175.308 95.5774 175.638 95.7298 175.924 95.952C176.211 96.1742 176.447 96.4607 176.614 96.7905C176.868 97.3156 176.943 97.9161 176.825 98.4918C176.707 99.0674 176.405 99.5833 175.968 99.9531L175.34 100.505C175.347 100.531 175.35 100.559 175.347 100.586C175.853 100.316 176.435 100.245 176.987 100.384C177.539 100.523 178.026 100.863 178.361 101.344C178.713 101.882 178.858 102.539 178.768 103.184C178.678 103.829 178.359 104.415 177.875 104.824L176.316 106.194C176.351 106.19 176.387 106.196 176.419 106.21C176.452 106.224 176.481 106.246 176.503 106.274C176.529 106.309 176.544 106.351 176.548 106.395C177.062 106.286 177.597 106.358 178.069 106.599C178.54 106.84 178.924 107.237 179.159 107.729C179.397 108.251 179.46 108.842 179.337 109.406C179.215 109.97 178.915 110.474 178.485 110.836L165.331 122.393C163.49 124.01 161.232 125.013 158.844 125.275C156.457 125.536 154.049 125.044 151.93 123.861C150.103 122.841 148.727 121.115 148.094 119.048C147.462 116.981 147.622 114.737 148.542 112.793L149.663 110.423Z" fill="#E98862"/>
<g opacity="0.2">
<path d="M162.845 104.658C162.882 104.705 162.936 104.734 162.994 104.74C163.051 104.745 163.109 104.727 163.154 104.688L171.444 97.6403C171.49 97.6016 171.519 97.5456 171.525 97.4845C171.531 97.4234 171.514 97.3623 171.477 97.3145C171.44 97.2668 171.386 97.2364 171.328 97.23C171.27 97.2237 171.212 97.2418 171.166 97.2805L162.876 104.328C162.831 104.367 162.802 104.422 162.796 104.483C162.79 104.544 162.807 104.605 162.843 104.652L162.845 104.658Z" fill="#0C0C0C"/>
</g>
<g opacity="0.2">
<path d="M165.708 108.579C165.745 108.625 165.799 108.654 165.856 108.66C165.914 108.666 165.972 108.647 166.017 108.608L175.269 100.743C175.314 100.705 175.342 100.649 175.348 100.588C175.354 100.527 175.337 100.467 175.301 100.419C175.263 100.373 175.21 100.345 175.153 100.338C175.095 100.332 175.038 100.348 174.992 100.385L165.737 108.248C165.692 108.287 165.663 108.343 165.657 108.403C165.651 108.464 165.668 108.525 165.704 108.573L165.708 108.579Z" fill="#0C0C0C"/>
</g>
<g opacity="0.2">
<path d="M168.785 112.843C168.822 112.89 168.876 112.919 168.934 112.925C168.992 112.93 169.049 112.912 169.094 112.873L176.474 106.599C176.52 106.561 176.549 106.505 176.555 106.443C176.561 106.382 176.544 106.321 176.507 106.273C176.47 106.226 176.416 106.195 176.358 106.189C176.3 106.183 176.242 106.201 176.196 106.239L168.814 112.513C168.769 112.552 168.74 112.608 168.734 112.668C168.728 112.729 168.745 112.79 168.782 112.837L168.785 112.843Z" fill="#0C0C0C"/>
</g>
<path d="M-1.20541 98.2401C-1.20541 98.2401 -2.15347 113.159 -5.35358 118.571C-14.5675 134.153 -17.2368 151.683 -8.0101 160.842C1.21663 170.001 60.0677 170.128 64.5263 149.063C68.2797 131.328 60.2249 129.421 58.2647 114.793C57.3781 108.173 54.9383 94.2921 54.9383 94.2921" fill="#0A0A0A"/>
<path d="M49.295 145.974C49.1934 145.961 48.0661 165.578 26.3357 163.868C11.2921 162.686 5.92825 145.946 5.58382 145.946C7.20573 145.584 9.93688 145.058 10.6571 144.655C13.0261 143.32 15.956 141.931 16.7208 137.106C17.1624 134.328 16.4139 120.1 16.644 117.285L39.7358 122.692C39.413 128.635 37.1548 142.409 45.07 144.847C46.3868 145.252 47.8056 145.622 49.295 145.974Z" fill="#E98862"/>
<path opacity="0.5" d="M40.0594 139.219C39.6977 137.996 39.4648 136.736 39.3648 135.46C39.1111 132.549 39.1618 129.617 39.5159 126.718C34.8227 126.053 30.4014 124.022 26.7543 120.853C26.3255 122.514 23.9671 129.771 24.6202 131.349C25.8535 134.333 31.6527 139.219 40.0594 139.219Z" fill="#0C0C0C"/>
<path d="M37.0735 133.107C27.9691 134.033 16.1896 130.211 13.7495 117.496L11.5477 106.023C9.1076 93.3075 13.4973 81.6556 24.9125 79.246C36.3281 76.8378 46.8385 85.3429 49.2787 98.0585L50.2537 103.138C51.1898 108.017 53.3169 131.458 37.0735 133.107Z" fill="#E98862"/>
<path opacity="0.1" d="M31.2862 116.444C32.7844 116.257 33.8927 115.171 33.7616 114.018C33.6305 112.865 32.3096 112.083 30.8114 112.271C29.3132 112.458 28.2049 113.544 28.336 114.697C28.4671 115.849 29.788 116.632 31.2862 116.444Z" fill="#0C0C0C"/>
<path opacity="0.1" d="M47.1176 111.837C47.2501 112.987 48.5726 113.769 50.0709 113.583C50.3298 113.551 50.5847 113.49 50.8317 113.402C50.9015 112.03 50.9054 110.71 50.8675 109.488C50.4513 109.379 50.0194 109.352 49.594 109.41C48.0957 109.595 46.9878 110.681 47.1176 111.837Z" fill="#0C0C0C"/>
<path opacity="0.5" d="M40.4975 115.394C40.5049 115.393 40.5123 115.392 40.5196 115.39C40.9822 115.289 41.4392 115.161 41.8884 115.007C42.5588 114.772 43.434 114.386 43.3139 113.75C43.1752 113.025 39.7812 105.608 39.3962 104.765C39.3804 104.727 39.3575 104.693 39.3288 104.664C39.3001 104.636 39.2662 104.614 39.2291 104.599C39.1921 104.585 39.1526 104.578 39.1131 104.58C39.0736 104.582 39.0349 104.592 38.9993 104.61C38.9636 104.628 38.9318 104.654 38.9057 104.685C38.8796 104.716 38.8597 104.752 38.8473 104.792C38.8349 104.831 38.8302 104.873 38.8334 104.914C38.8367 104.955 38.8479 104.995 38.8663 105.032C40.3133 108.191 42.644 113.385 42.7376 113.872C42.6643 114.1 41.5524 114.544 40.4047 114.787C40.3667 114.793 40.3302 114.807 40.2974 114.829C40.2646 114.85 40.236 114.878 40.2135 114.91C40.1909 114.943 40.1747 114.98 40.1658 115.02C40.1569 115.059 40.1555 115.1 40.1617 115.14C40.1678 115.18 40.1814 115.218 40.2016 115.252C40.2219 115.287 40.2484 115.317 40.2797 115.34C40.3109 115.364 40.3463 115.381 40.3839 115.39C40.4214 115.4 40.4603 115.401 40.4984 115.395L40.4975 115.394Z" fill="#0C0C0C"/>
<path d="M2.43936 110.142L12.6733 108.046C20.404 104.655 22.5973 90.5251 22.5973 90.5251C22.5973 90.5251 32.138 100.055 54.9401 94.2921C54.9401 94.2921 49.9869 60.9082 16.3177 71.0438C5.4615 74.3111 -2.22854 85.9167 -1.08486 101.288C-0.283402 112.057 2.43936 110.142 2.43936 110.142Z" fill="#0A0A0A"/>
<path d="M15.2018 121.22C11.7328 121.952 8.17367 118.654 7.47422 115.014C6.77476 111.375 9.20343 108.776 12.6725 108.044L14.928 110.105L18.1838 120.59L15.2018 121.22Z" fill="#E98862"/>
<path d="M41.8553 98.85C42.7233 98.2063 43.7383 97.8152 44.7971 97.7163C45.3292 97.6628 45.8659 97.694 46.389 97.8089C46.9165 97.9217 47.4285 98.1034 47.9129 98.3498L47.9279 98.3572C47.9816 98.3821 48.0424 98.3839 48.0973 98.3624C48.1523 98.3408 48.1971 98.2976 48.222 98.2419C48.247 98.1862 48.2502 98.1225 48.231 98.0643C48.2117 98.0062 48.1716 97.9582 48.1191 97.9307C47.6058 97.6465 47.0604 97.4312 46.4959 97.2898C45.9274 97.1448 45.3413 97.0903 44.7574 97.1281C43.5746 97.1967 42.431 97.5965 41.4455 98.2859C41.4088 98.312 41.3773 98.3455 41.3529 98.3843C41.3285 98.4232 41.3117 98.4668 41.3033 98.5125C41.295 98.5582 41.2954 98.6052 41.3044 98.6507C41.3134 98.6963 41.3309 98.7396 41.3559 98.778C41.3808 98.8165 41.4128 98.8494 41.4499 98.8749C41.4871 98.9004 41.5286 98.918 41.5722 98.9266C41.6158 98.9352 41.6606 98.9347 41.7041 98.9252C41.7475 98.9156 41.7887 98.8971 41.8253 98.8708L41.8332 98.8653L41.8553 98.85Z" fill="#0C0C0C"/>
<path d="M32.5067 100.205C31.3446 99.9626 30.1417 100.052 29.0236 100.463C28.4709 100.663 27.9499 100.948 27.478 101.31C27.008 101.667 26.5828 102.085 26.2125 102.554C26.1751 102.601 26.1563 102.661 26.1602 102.721C26.164 102.782 26.1902 102.839 26.2331 102.88C26.276 102.921 26.3325 102.943 26.3905 102.941C26.4486 102.94 26.5038 102.915 26.5446 102.871L26.5565 102.858C26.9138 102.436 27.3203 102.063 27.7664 101.747C28.2079 101.431 28.6923 101.187 29.2033 101.023C30.2175 100.689 31.2981 100.642 32.3349 100.889L32.3606 100.896C32.4476 100.918 32.5394 100.903 32.6158 100.854C32.6923 100.805 32.747 100.726 32.7681 100.635C32.7892 100.544 32.7749 100.447 32.7282 100.367C32.6816 100.287 32.6065 100.229 32.5195 100.207L32.5067 100.205Z" fill="#0C0C0C"/>
<path d="M12.6804 107.869C19.5597 105.183 21.8427 100.2 22.5456 96.4928C23.0006 94.02 22.9581 91.4749 22.4207 89.0204L22.2078 89.082C22.7372 91.5045 22.7781 94.0162 22.3279 96.4562C21.6338 100.103 19.3835 105.006 12.6031 107.652L12.6804 107.869Z" fill="#0C0C0C"/>
<path d="M66.9929 148.308L132.314 171.208L113.136 180.148L145.707 110.07L172.327 123.08L142.106 194.307C140.578 197.909 137.865 200.814 134.463 202.491C131.061 204.168 127.197 204.505 123.577 203.441L122.928 203.248L56.6181 183.723L66.9929 148.308Z" fill="#B0ECFF"/>
<path d="M25.9303 158.964C10.8761 158.22 10.2425 144.819 10.2425 144.819C10.2425 144.819 2.78335 145.325 -2.17511 146.028C-10.293 147.18 -15.6485 150.067 -19.9106 154.536C-23.875 158.695 -26.2887 163.193 -23.7346 191.915C-21.8853 212.711 -23.1866 258.454 -23.1866 258.454H68.5508C68.5508 258.454 74.9568 192.368 75.7163 183.008C77.1655 165.137 81.2603 161.192 72.9639 151.986C66.9475 145.31 51.415 144.819 45.1632 144.82C45.0612 144.82 46.4318 159.978 25.9303 158.964Z" fill="#B0ECFF"/>
<path d="M43.5492 117.9C40.5912 119.478 37.2163 119.976 33.9577 119.318C33.8449 119.296 33.7284 119.307 33.6218 119.352C33.5153 119.397 33.423 119.472 33.3558 119.57C33.2886 119.668 33.2493 119.783 33.2424 119.903C33.2356 120.024 33.2614 120.143 33.317 120.249C34.2885 122.044 36.5926 125.111 40.5456 123.861C43.0979 123.053 44.0628 120.3 44.4204 118.596C44.4449 118.478 44.4368 118.355 44.3971 118.242C44.3573 118.129 44.2876 118.03 44.1961 117.957C44.1046 117.884 43.9951 117.84 43.8805 117.83C43.766 117.82 43.651 117.844 43.5492 117.9Z" fill="white"/>
<path d="M43.7342 104.103C44.5237 104.103 45.1636 103.432 45.1636 102.604C45.1636 101.776 44.5237 101.105 43.7342 101.105C42.9448 101.105 42.3048 101.776 42.3048 102.604C42.3048 103.432 42.9448 104.103 43.7342 104.103Z" fill="#0C0C0C"/>
<path d="M29.9995 106.625C30.7889 106.625 31.4288 105.954 31.4288 105.126C31.4288 104.298 30.7889 103.627 29.9995 103.627C29.21 103.627 28.5701 104.298 28.5701 105.126C28.5701 105.954 29.21 106.625 29.9995 106.625Z" fill="#0C0C0C"/>
<path d="M75.5123 189.519C75.503 189.52 75.4937 189.52 75.4844 189.519C75.4264 189.512 75.3737 189.48 75.3378 189.432C75.3019 189.384 75.2857 189.322 75.2928 189.262L76.7134 177.184C76.7164 177.154 76.7252 177.125 76.7393 177.098C76.7535 177.071 76.7726 177.048 76.7956 177.029C76.8185 177.01 76.8449 176.997 76.873 176.989C76.9011 176.981 76.9305 176.979 76.9593 176.983C76.9881 176.987 77.0159 176.997 77.0412 177.012C77.0664 177.027 77.0886 177.047 77.1064 177.071C77.1243 177.095 77.1374 177.122 77.1451 177.152C77.1528 177.181 77.155 177.212 77.1514 177.242L75.7308 189.318C75.7238 189.374 75.6977 189.425 75.6575 189.462C75.6173 189.499 75.5657 189.519 75.5123 189.519Z" fill="#0C0C0C"/>
<path d="M307.721 96.3311C307.721 96.3311 302.249 89.886 302.884 77.8159C303.375 68.4703 310.249 76.0283 310.249 76.0283C310.249 76.0283 310.665 69.3025 315.092 70.904C319.518 72.5054 320.761 79.9217 320.761 79.9217" fill="#0C0C0C"/>
<path d="M338.475 76.5891C338.475 76.5891 360.578 83.8503 346.313 114.24L344.288 113.962L340.177 113.4" fill="#0C0C0C"/>
<path d="M307.033 145.925C307.134 145.911 308.258 165.464 329.916 163.76C344.91 162.582 350.256 145.898 350.6 145.898C348.983 145.537 346.261 145.013 345.543 144.612C343.182 143.281 340.261 141.897 339.499 137.088C339.061 134.317 339.805 120.138 339.576 117.334L316.56 122.721C316.882 128.643 319.133 142.373 311.244 144.803C309.931 145.205 308.516 145.574 307.033 145.925Z" fill="#E98862"/>
<path opacity="0.52" d="M316.238 139.192C316.598 137.974 316.83 136.717 316.93 135.446C317.183 132.544 317.133 129.622 316.78 126.732C321.458 126.07 325.865 124.045 329.5 120.888C329.927 122.543 332.278 129.776 331.627 131.349C330.397 134.323 324.616 139.192 316.238 139.192Z" fill="#0C0C0C"/>
<path d="M318.998 132.571C328.062 133.595 339.84 129.922 342.404 117.277L344.717 105.867C347.278 93.2241 343.025 81.5597 331.673 79.0288C320.321 76.4979 309.758 84.8571 307.195 97.5019L306.171 102.553C305.848 104.294 305.639 106.056 305.545 107.826C305.263 112.503 304.851 119.619 306.909 124.921C308.852 129.926 313.207 131.916 318.998 132.571Z" fill="#E98862"/>
<path d="M311.798 103.44C312.587 103.44 313.227 102.769 313.227 101.941C313.227 101.113 312.587 100.442 311.798 100.442C311.008 100.442 310.368 101.113 310.368 101.941C310.368 102.769 311.008 103.44 311.798 103.44Z" fill="#0C0C0C"/>
<path d="M325.374 104.939C326.163 104.939 326.803 104.268 326.803 103.44C326.803 102.612 326.163 101.941 325.374 101.941C324.584 101.941 323.944 102.612 323.944 103.44C323.944 104.268 324.584 104.939 325.374 104.939Z" fill="#0C0C0C"/>
<path d="M340.918 120.972C344.368 121.741 347.949 118.494 348.683 114.876C349.416 111.257 347.024 108.639 343.574 107.87L341.305 109.898L337.952 120.311L340.918 120.972Z" fill="#E98862"/>
<path d="M338.588 114.424C338.588 114.424 340.829 96.2418 335.853 94.0499C332.541 92.5901 323.186 95.9773 315.722 92.8036C312.457 91.4143 309.067 91.6227 308.42 93.2357C308.164 93.8743 307.868 83.8646 314.563 77.7145C319.894 72.8176 334.054 74.0805 339.994 77.2935C356.443 86.1895 344.14 108.809 344.14 108.809L342.186 114.829L338.588 114.424Z" fill="#0C0C0C"/>
<g opacity="0.52">
<path d="M315.516 115.725L315.494 115.721C314.382 115.476 312.542 114.934 312.715 114.063C312.861 113.34 316.309 105.95 316.703 105.109C316.737 105.037 316.796 104.982 316.869 104.956C316.942 104.93 317.021 104.935 317.09 104.971C317.159 105.006 317.212 105.069 317.237 105.145C317.261 105.221 317.256 105.304 317.223 105.377C315.693 108.649 313.381 113.696 313.282 114.187C313.35 114.419 314.461 114.873 315.612 115.127C315.685 115.144 315.748 115.189 315.789 115.253C315.831 115.318 315.847 115.397 315.835 115.473C315.822 115.55 315.782 115.619 315.723 115.666C315.664 115.712 315.59 115.734 315.516 115.725Z" fill="#0C0C0C"/>
</g>
<path d="M315.26 97.2514C314.167 96.673 312.945 96.4143 311.724 96.5025C311.124 96.5421 310.533 96.6759 309.971 96.8994C309.414 97.1178 308.887 97.4091 308.4 97.7663C308.319 97.8207 308.261 97.9064 308.239 98.005C308.218 98.1036 308.234 98.2072 308.284 98.2934C308.335 98.3796 308.416 98.4414 308.509 98.4656C308.603 98.4898 308.702 98.4743 308.785 98.4226L308.811 98.4073C309.257 98.117 309.736 97.8867 310.237 97.7219C310.731 97.5563 311.246 97.4703 311.765 97.4667C312.79 97.4509 313.8 97.7195 314.694 98.2452L314.728 98.266C314.79 98.3051 314.86 98.3309 314.932 98.3418C315.004 98.3526 315.077 98.3485 315.148 98.3294C315.219 98.3104 315.285 98.277 315.343 98.231C315.401 98.185 315.45 98.1274 315.487 98.0615C315.524 97.9956 315.548 97.9227 315.558 97.847C315.568 97.7713 315.563 97.6943 315.545 97.6204C315.526 97.5465 315.494 97.4772 315.449 97.4165C315.405 97.3558 315.35 97.3049 315.287 97.2666L315.26 97.2514Z" fill="#0C0C0C"/>
<path d="M323.433 99.5683C324.426 99.3011 325.468 99.3138 326.455 99.6049C326.955 99.7484 327.431 99.9702 327.868 100.263C328.312 100.558 328.719 100.909 329.079 101.31L329.099 101.331C329.167 101.4 329.258 101.439 329.353 101.44C329.447 101.44 329.539 101.402 329.608 101.334C329.677 101.266 329.718 101.172 329.722 101.073C329.727 100.974 329.695 100.876 329.633 100.801C329.25 100.325 328.811 99.9011 328.327 99.54C327.839 99.1728 327.3 98.8843 326.73 98.6842C325.571 98.2693 324.328 98.1893 323.13 98.4527C323.059 98.4689 322.992 98.4996 322.932 98.543C322.872 98.5864 322.822 98.6417 322.782 98.7057C322.703 98.8351 322.676 98.9921 322.707 99.1422C322.739 99.2924 322.825 99.4234 322.949 99.5064C323.072 99.5894 323.222 99.6177 323.365 99.585L323.393 99.5776L323.433 99.5683Z" fill="#0C0C0C"/>
<path d="M313.767 118.53C316.987 119.374 320.383 119.068 323.418 117.661C323.523 117.613 323.639 117.597 323.753 117.616C323.866 117.634 323.972 117.686 324.058 117.766C324.145 117.845 324.208 117.949 324.24 118.064C324.272 118.179 324.273 118.302 324.241 118.418C323.676 120.396 322.086 123.929 317.967 123.636C315.307 123.448 313.779 120.99 313.065 119.414C313.016 119.305 312.997 119.183 313.012 119.063C313.026 118.943 313.073 118.83 313.147 118.737C313.221 118.644 313.318 118.575 313.428 118.538C313.538 118.502 313.656 118.499 313.767 118.53Z" fill="white"/>
<path d="M326.543 80.305C328.081 76.5177 327.339 72.5589 324.886 71.4628C322.432 70.3667 319.196 72.5483 317.658 76.3356C316.12 80.1228 316.861 84.0816 319.315 85.1778C321.768 86.2739 325.004 84.0923 326.543 80.305Z" fill="#0C0C0C"/>
<path d="M330.253 158.964C345.307 158.22 345.941 144.819 345.941 144.819C345.941 144.819 353.4 145.325 358.359 146.028C366.477 147.18 371.832 150.067 376.094 154.536C380.059 158.695 382.472 163.193 379.918 191.915C378.068 212.711 379.37 258.454 379.37 258.454H287.633C287.633 258.454 281.227 192.37 280.467 183.008C279.017 165.137 274.923 161.192 283.219 151.986C289.236 145.31 304.768 144.819 311.02 144.82C311.121 144.82 309.753 159.978 330.253 158.964Z" fill="#B0ECFF"/>
<path d="M280.25 156.125L256.532 208.86L209.758 171.971L191.18 197.88L253.116 246.727C253.67 247.159 254.249 247.555 254.85 247.913C256.619 248.953 258.567 249.617 260.581 249.867C262.596 250.118 264.637 249.95 266.59 249.372C268.542 248.795 270.367 247.82 271.961 246.504C273.554 245.187 274.884 243.554 275.876 241.698L276.144 241.196L312.33 173.457L280.25 156.125Z" fill="#B0ECFF"/>
<path d="M382.89 258.917H-34.8778C-34.9949 258.917 -35.1072 258.868 -35.19 258.782C-35.2728 258.695 -35.3194 258.577 -35.3194 258.454C-35.3194 258.331 -35.2728 258.214 -35.19 258.127C-35.1072 258.04 -34.9949 257.991 -34.8778 257.991H382.89C383.007 257.991 383.119 258.04 383.202 258.127C383.285 258.214 383.331 258.331 383.331 258.454C383.331 258.577 383.285 258.695 383.202 258.782C383.119 258.868 383.007 258.917 382.89 258.917Z" fill="#292A2E"/>
<path d="M292.022 189.57H68.3115V269.768H292.022V189.57Z" fill="white"/>
<path d="M292.243 270H68.0907V189.339H292.243V270ZM68.5323 269.537H291.801V189.802H68.5323V269.537Z" fill="#0C0C0C"/>
<path d="M57.265 214.08L71.0744 207.612C71.3779 207.47 71.7062 207.396 72.0385 207.394C72.3709 207.392 72.6999 207.463 73.0046 207.602C73.3094 207.741 73.5832 207.945 73.8087 208.201C74.0342 208.457 74.2064 208.76 74.3143 209.089C74.4955 209.704 74.4526 210.368 74.1937 210.952C73.9348 211.535 73.4784 211.997 72.9131 212.248L69.9519 213.637L81.1728 213.759C82.4207 213.749 83.9574 214.575 83.8753 216.043C83.8789 216.611 83.699 217.163 83.3651 217.609C83.0312 218.055 82.5628 218.37 82.0365 218.501C82.0396 218.513 82.0414 218.526 82.0418 218.539C82.0406 218.548 82.0386 218.558 82.0361 218.567L83.9605 218.552C84.3166 218.55 84.6688 218.631 84.9913 218.789C85.3139 218.948 85.5987 219.179 85.8251 219.468C86.0515 219.756 86.2137 220.094 86.3 220.456C86.3862 220.819 86.3944 221.197 86.3238 221.563C86.2011 222.137 85.894 222.65 85.4538 223.016C85.0136 223.381 84.4671 223.577 83.9057 223.57L83.0871 223.576C83.0762 223.601 83.0613 223.624 83.0429 223.643C83.5969 223.774 84.0886 224.107 84.4301 224.583C84.7715 225.058 84.9405 225.646 84.9068 226.241C84.852 226.89 84.5657 227.494 84.1049 227.932C83.6441 228.37 83.0429 228.609 82.4212 228.602L80.3873 228.618C80.4158 228.639 80.4393 228.666 80.4559 228.698C80.4725 228.731 80.4816 228.766 80.4826 228.803C80.4808 228.847 80.467 228.889 80.4429 228.925C80.9056 229.185 81.2741 229.597 81.4917 230.098C81.7093 230.599 81.7639 231.161 81.6471 231.698C81.5134 232.259 81.2032 232.756 80.7666 233.109C80.33 233.462 79.7926 233.65 79.2414 233.643L62.0817 233.771C59.6813 233.789 57.3305 233.055 55.3306 231.663C53.3307 230.27 51.7727 228.284 50.8564 225.957C50.0663 223.95 50.0533 221.7 50.8202 219.683C51.587 217.667 53.0732 216.044 54.9631 215.158L57.265 214.08Z" fill="#E98862"/>
<g opacity="0.2">
<path d="M70.9291 218.437C70.93 218.497 70.9536 218.556 70.9949 218.598C71.0362 218.641 71.0919 218.665 71.1499 218.665L81.821 218.765C81.8796 218.766 81.936 218.742 81.9778 218.699C82.0195 218.656 82.0433 218.597 82.0438 218.536C82.0444 218.475 82.0216 218.415 81.9806 218.372C81.9395 218.328 81.8836 218.303 81.825 218.302L71.1539 218.201C71.0953 218.201 71.0392 218.226 70.9978 218.269C70.9564 218.313 70.9331 218.372 70.9331 218.433L70.9291 218.437Z" fill="#0C0C0C"/>
</g>
<g opacity="0.2">
<path d="M70.7569 223.373C70.7577 223.434 70.7813 223.492 70.8227 223.535C70.864 223.577 70.9197 223.601 70.9777 223.601L82.8866 223.714C82.9451 223.714 83.0013 223.689 83.0427 223.646C83.0841 223.603 83.1073 223.544 83.1073 223.482C83.1054 223.421 83.0815 223.364 83.0405 223.321C82.9995 223.278 82.9445 223.253 82.8866 223.251L70.9777 223.138C70.9485 223.138 70.9196 223.144 70.8925 223.155C70.8655 223.167 70.8409 223.184 70.8202 223.205C70.7994 223.227 70.783 223.252 70.7717 223.281C70.7605 223.309 70.7547 223.339 70.7547 223.37L70.7569 223.373Z" fill="#0C0C0C"/>
</g>
<g opacity="0.2">
<path d="M70.541 228.714C70.5418 228.775 70.5654 228.833 70.6067 228.876C70.6481 228.919 70.7038 228.943 70.7618 228.943L80.2614 229.033C80.32 229.033 80.3763 229.009 80.4181 228.966C80.4599 228.923 80.4837 228.865 80.4842 228.803C80.4847 228.742 80.462 228.683 80.4209 228.639C80.3799 228.595 80.3239 228.57 80.2654 228.57L70.7658 228.48C70.7072 228.48 70.651 228.504 70.6096 228.548C70.5682 228.591 70.545 228.65 70.545 228.711L70.541 228.714Z" fill="#0C0C0C"/>
</g>
<path d="M61.2176 239.868L-15.346 258.121C-17.8895 258.412 -20.4625 258.08 -22.8632 257.152C-25.2639 256.224 -27.4269 254.726 -29.1826 252.774C-30.9383 250.822 -32.2389 248.47 -32.9823 245.903C-33.7257 243.335 -33.8918 240.622 -33.4674 237.976L-24.7056 164.063C-23.977 159.521 -21.5577 155.468 -17.98 152.797C-14.4024 150.126 -9.95936 149.054 -5.62846 149.818C-1.29755 150.583 2.56651 153.12 5.11367 156.872C7.66083 160.624 8.68244 165.284 7.95376 169.826L3.7345 222.73L56.9285 210.104L61.2176 239.868Z" fill="#B0ECFF"/>
<path d="M-7.02979 224.809C-7.08524 224.808 -7.13848 224.786 -7.17894 224.746C-7.21939 224.706 -7.24411 224.652 -7.24817 224.594C-7.25223 224.536 -7.23534 224.479 -7.20085 224.433C-7.16637 224.388 -7.11681 224.357 -7.06203 224.348L3.60689 221.959C3.63558 221.954 3.66493 221.955 3.69319 221.963C3.72145 221.97 3.74805 221.983 3.77143 222.001C3.79481 222.019 3.81449 222.042 3.82931 222.068C3.84413 222.094 3.85378 222.123 3.85771 222.154C3.86631 222.214 3.85162 222.276 3.81685 222.325C3.78208 222.375 3.73007 222.408 3.67225 222.417L-6.99668 224.806C-7.00763 224.808 -7.0187 224.809 -7.02979 224.809Z" fill="#0C0C0C"/>
<path d="M-13.0489 258.454C-13.1075 258.458 -13.1651 258.438 -13.2092 258.397C-13.2533 258.356 -13.2803 258.299 -13.2841 258.238C-13.2879 258.176 -13.2683 258.116 -13.2295 258.07C-13.1908 258.023 -13.1362 257.995 -13.0776 257.991L60.7371 239.758L56.5545 210.443L3.67798 222.414C3.64378 222.419 3.60906 222.415 3.57651 222.403C3.54397 222.391 3.51447 222.372 3.49031 222.346C3.46622 222.32 3.44831 222.288 3.43803 222.253C3.42775 222.219 3.42539 222.182 3.43114 222.146L6.39721 191.919C6.40163 191.889 6.41178 191.86 6.42705 191.834C6.44233 191.808 6.46241 191.785 6.48613 191.768C6.50984 191.75 6.5367 191.737 6.56511 191.731C6.59353 191.724 6.62292 191.723 6.65155 191.729C6.70928 191.739 6.76079 191.773 6.79474 191.823C6.8287 191.873 6.84231 191.935 6.8326 191.996L3.9182 221.913L56.6574 209.932C56.6858 209.924 56.7154 209.922 56.7446 209.926C56.7738 209.93 56.802 209.94 56.8274 209.955C56.8528 209.971 56.8749 209.992 56.8926 210.016C56.9102 210.041 56.9231 210.069 56.9303 210.099L61.2193 239.865C61.2329 239.923 61.2242 239.985 61.1951 240.037C61.166 240.089 61.1188 240.127 61.0634 240.143L-13.0202 258.452C-13.0297 258.454 -13.0393 258.454 -13.0489 258.454Z" fill="#0C0C0C"/>
<path d="M298.918 227.974L285.109 221.505C284.805 221.363 284.477 221.289 284.145 221.287C283.812 221.286 283.483 221.356 283.179 221.495C282.874 221.634 282.6 221.838 282.375 222.094C282.149 222.35 281.977 222.653 281.869 222.983C281.688 223.598 281.731 224.261 281.99 224.845C282.249 225.429 282.705 225.891 283.27 226.141L286.231 227.531L275.01 227.652C273.763 227.642 272.226 228.468 272.308 229.937C272.304 230.504 272.484 231.056 272.818 231.502C273.152 231.949 273.621 232.263 274.147 232.394C274.144 232.407 274.142 232.419 274.141 232.432C274.142 232.441 274.144 232.451 274.147 232.46L272.223 232.446C271.867 232.443 271.515 232.524 271.192 232.683C270.869 232.841 270.584 233.073 270.358 233.361C270.132 233.649 269.969 233.987 269.883 234.349C269.797 234.712 269.789 235.09 269.859 235.456C269.982 236.03 270.289 236.543 270.729 236.909C271.17 237.274 271.716 237.47 272.277 237.464L273.096 237.47C273.107 237.495 273.122 237.517 273.141 237.537C272.587 237.667 272.095 238 271.753 238.476C271.412 238.952 271.243 239.539 271.277 240.134C271.332 240.783 271.618 241.387 272.079 241.825C272.54 242.263 273.141 242.503 273.763 242.496L275.797 242.511C275.768 242.532 275.744 242.559 275.728 242.592C275.711 242.624 275.702 242.66 275.701 242.696C275.703 242.74 275.716 242.782 275.741 242.818C275.278 243.078 274.909 243.49 274.692 243.991C274.474 244.492 274.42 245.054 274.536 245.591C274.67 246.152 274.98 246.649 275.417 247.002C275.854 247.355 276.391 247.544 276.943 247.536L294.102 247.665C296.503 247.683 298.854 246.948 300.854 245.556C302.854 244.163 304.411 242.176 305.327 239.849C306.118 237.842 306.131 235.592 305.364 233.575C304.597 231.559 303.111 229.936 301.221 229.05L298.918 227.974Z" fill="#E98862"/>
<g opacity="0.2">
<path d="M285.254 232.33C285.253 232.391 285.229 232.449 285.188 232.492C285.147 232.534 285.091 232.558 285.033 232.558L274.362 232.659C274.333 232.659 274.304 232.653 274.277 232.642C274.25 232.631 274.226 232.614 274.205 232.592C274.185 232.571 274.168 232.546 274.157 232.518C274.145 232.49 274.139 232.46 274.139 232.429C274.139 232.399 274.144 232.369 274.155 232.341C274.166 232.312 274.182 232.287 274.202 232.265C274.223 232.243 274.247 232.226 274.274 232.214C274.3 232.202 274.329 232.196 274.358 232.196L285.029 232.095C285.088 232.095 285.144 232.119 285.185 232.163C285.227 232.206 285.25 232.265 285.25 232.326L285.254 232.33Z" fill="#0C0C0C"/>
</g>
<g opacity="0.2">
<path d="M285.426 237.266C285.425 237.327 285.402 237.385 285.361 237.427C285.32 237.47 285.265 237.494 285.208 237.495L273.298 237.607C273.24 237.607 273.183 237.583 273.142 237.539C273.101 237.496 273.077 237.437 273.077 237.376C273.079 237.315 273.103 237.257 273.144 237.214C273.185 237.171 273.24 237.146 273.298 237.144L285.207 237.032C285.266 237.032 285.322 237.056 285.363 237.099C285.405 237.143 285.428 237.202 285.428 237.263L285.426 237.266Z" fill="#0C0C0C"/>
</g>
<g opacity="0.2">
<path d="M285.642 242.608C285.642 242.669 285.618 242.727 285.577 242.77C285.535 242.812 285.48 242.836 285.422 242.836L275.922 242.926C275.893 242.926 275.864 242.921 275.837 242.909C275.811 242.898 275.786 242.881 275.765 242.86C275.745 242.838 275.728 242.813 275.717 242.785C275.705 242.757 275.7 242.727 275.699 242.697C275.699 242.666 275.704 242.636 275.715 242.608C275.726 242.58 275.742 242.554 275.763 242.532C275.783 242.511 275.807 242.493 275.834 242.481C275.86 242.469 275.889 242.463 275.918 242.463L285.418 242.373C285.476 242.373 285.532 242.397 285.574 242.441C285.615 242.484 285.638 242.543 285.638 242.605L285.642 242.608Z" fill="#0C0C0C"/>
</g>
<path d="M299.381 253.761L371.529 258.121C374.072 258.412 376.645 258.08 379.046 257.152C381.447 256.224 383.61 254.726 385.366 252.774C387.121 250.822 388.422 248.47 389.165 245.903C389.909 243.335 390.075 240.622 389.65 237.976L380.89 164.061C380.53 161.812 379.75 159.659 378.596 157.726C377.442 155.793 375.936 154.118 374.165 152.795C372.393 151.472 370.391 150.528 368.271 150.017C366.152 149.506 363.958 149.438 361.813 149.816C359.669 150.195 357.616 151.012 355.773 152.223C353.93 153.433 352.332 155.012 351.071 156.87C349.81 158.728 348.91 160.828 348.423 163.051C347.935 165.273 347.87 167.575 348.231 169.824L352.45 225.969L299.698 223.995L299.381 253.761Z" fill="#B0ECFF"/>
<path d="M369.233 258.454C369.291 258.458 369.349 258.437 369.393 258.397C369.437 258.356 369.464 258.299 369.468 258.237C369.472 258.176 369.452 258.116 369.413 258.069C369.374 258.023 369.32 257.995 369.261 257.991L299.861 253.653L300.069 224.338L352.504 225.658C352.538 225.662 352.573 225.659 352.606 225.647C352.638 225.635 352.668 225.615 352.692 225.589C352.716 225.563 352.734 225.532 352.744 225.497C352.754 225.462 352.757 225.426 352.751 225.39L349.785 191.921C349.781 191.891 349.771 191.862 349.755 191.836C349.74 191.81 349.72 191.787 349.696 191.77C349.673 191.752 349.646 191.739 349.617 191.733C349.589 191.726 349.56 191.725 349.531 191.731C349.502 191.736 349.475 191.747 349.45 191.763C349.426 191.779 349.404 191.8 349.388 191.825C349.371 191.85 349.359 191.878 349.352 191.907C349.346 191.937 349.345 191.968 349.35 191.998L352.266 225.156L299.969 223.827C299.94 223.819 299.91 223.817 299.881 223.821C299.852 223.825 299.824 223.835 299.799 223.85C299.773 223.866 299.751 223.887 299.733 223.912C299.716 223.936 299.703 223.965 299.696 223.994L299.38 253.76C299.367 253.819 299.376 253.88 299.405 253.932C299.434 253.984 299.481 254.022 299.536 254.038L369.202 258.45C369.212 258.452 369.223 258.453 369.233 258.454Z" fill="#0C0C0C"/>
<path d="M121.349 242.044H115.485L112.195 228.663C112.073 228.187 111.866 227.202 111.573 225.71C111.279 224.217 111.111 223.216 111.066 222.704C111 223.331 110.833 224.339 110.567 225.727C110.301 227.115 110.096 228.105 109.953 228.698L106.68 242.044H100.833L94.6356 216.573H99.7027L102.809 230.476C103.352 233.043 103.745 235.268 103.989 237.149C104.055 236.487 104.207 235.462 104.446 234.074C104.684 232.686 104.908 231.609 105.119 230.842L108.657 216.573H113.524L117.063 230.842C117.218 231.481 117.412 232.457 117.644 233.769C117.877 235.081 118.054 236.208 118.174 237.15C118.285 236.244 118.462 235.114 118.704 233.761C118.947 232.407 119.168 231.312 119.367 230.477L122.458 216.573H127.525L121.349 242.044Z" fill="#00677C"/>
<path d="M144.573 242.044H130.585V216.573H144.573V220.998H135.736V226.591H143.959V231.014H135.736V237.583H144.573V242.044Z" fill="#00677C"/>
<path d="M149.64 242.044V216.573H154.79V237.585H164.641V242.045L149.64 242.044Z" fill="#00677C"/>
<path d="M179.178 220.7C178.305 220.659 177.436 220.846 176.649 221.246C175.863 221.646 175.184 222.246 174.674 222.991C173.611 224.519 173.08 226.648 173.08 229.377C173.08 235.058 175.112 237.898 179.176 237.898C181.298 237.812 183.392 237.358 185.373 236.555V241.085C183.252 241.982 180.982 242.426 178.695 242.392C175.162 242.392 172.46 241.268 170.588 239.021C168.715 236.773 167.779 233.547 167.78 229.342C167.73 226.942 168.201 224.562 169.159 222.381C170.009 220.47 171.39 218.872 173.121 217.799C174.965 216.703 177.058 216.152 179.176 216.205C181.645 216.232 184.075 216.846 186.286 217.999L184.624 222.39C183.731 221.944 182.816 221.548 181.883 221.205C181.015 220.878 180.101 220.708 179.178 220.7Z" fill="#00677C"/>
<path d="M212.586 229.273C212.586 233.489 211.589 236.729 209.596 238.995C207.602 241.26 204.745 242.392 201.023 242.392C197.302 242.392 194.445 241.26 192.451 238.995C190.458 236.73 189.461 233.477 189.461 229.238C189.461 224.998 190.461 221.76 192.46 219.524C194.459 217.289 197.324 216.171 201.056 216.17C204.789 216.17 207.643 217.297 209.621 219.551C211.598 221.805 212.586 225.045 212.586 229.273ZM194.86 229.273C194.86 232.118 195.375 234.261 196.406 235.701C197.436 237.142 198.975 237.862 201.024 237.862C205.133 237.862 207.187 234.999 207.187 229.273C207.187 223.535 205.144 220.666 201.057 220.666C199.008 220.666 197.463 221.389 196.42 222.835C195.378 224.281 194.858 226.427 194.86 229.273Z" fill="#00677C"/>
<path d="M227.903 242.044L222.055 222.06H221.906C222.116 226.125 222.221 228.837 222.222 230.196V242.044H217.619V216.573H224.63L230.378 236.052H230.478L236.575 216.573H243.585V242.044H238.785V229.987C238.785 229.418 238.793 228.762 238.809 228.018C238.825 227.274 238.9 225.3 239.033 222.094H238.884L232.621 242.044H227.903Z" fill="#00677C"/>
<path d="M263.687 242.044H249.698V216.573H263.686V220.998H254.849V226.591H263.073V231.014H254.849V237.583H263.687V242.044Z" fill="#00677C"/>
</g>
</g>
<defs>
<clipPath id="clip0_103_175">
<rect width="342" height="284" fill="white"/>
</clipPath>
<clipPath id="clip1_103_175">
<rect width="437.76" height="256" fill="white" transform="translate(-47.88 14)"/>
</clipPath>
</defs>
</svg>
