<svg width="342" height="256" viewBox="0 0 342 256" fill="none" xmlns="http://www.w3.org/2000/svg">
<g clip-path="url(#clip0_107_761)">
<path d="M250.452 169.177H188.105C185.567 169.177 183.509 171.234 183.509 173.772V207.574C183.509 210.112 185.567 212.169 188.105 212.169H250.452C252.99 212.169 255.048 210.112 255.048 207.574V173.772C255.048 171.234 252.99 169.177 250.452 169.177Z" fill="white"/>
<path opacity="0.1" d="M250.452 169.177H188.105C185.567 169.177 183.509 171.234 183.509 173.772V207.574C183.509 210.112 185.567 212.169 188.105 212.169H250.452C252.99 212.169 255.048 210.112 255.048 207.574V173.772C255.048 171.234 252.99 169.177 250.452 169.177Z" fill="#B0ECFF"/>
<path d="M235.342 192.229H229.822C229.486 192.229 229.213 192.501 229.213 192.837V205.07C229.213 205.406 229.486 205.679 229.822 205.679H235.342C235.678 205.679 235.951 205.406 235.951 205.07V192.837C235.951 192.501 235.678 192.229 235.342 192.229Z" fill="white"/>
<path d="M248.646 181.769H243.125C242.789 181.769 242.517 182.041 242.517 182.377V205.07C242.517 205.406 242.789 205.679 243.125 205.679H248.646C248.982 205.679 249.254 205.406 249.254 205.07V182.377C249.254 182.041 248.982 181.769 248.646 181.769Z" fill="white"/>
<path d="M195.432 192.229H189.911C189.575 192.229 189.303 192.501 189.303 192.837V205.07C189.303 205.406 189.575 205.679 189.911 205.679H195.432C195.768 205.679 196.04 205.406 196.04 205.07V192.837C196.04 192.501 195.768 192.229 195.432 192.229Z" fill="white"/>
<path d="M208.735 177.013H203.215C202.879 177.013 202.606 177.285 202.606 177.621V205.07C202.606 205.406 202.879 205.679 203.215 205.679H208.735C209.071 205.679 209.344 205.406 209.344 205.07V177.621C209.344 177.285 209.071 177.013 208.735 177.013Z" fill="white"/>
<path d="M222.039 189.214H216.518C216.182 189.214 215.91 189.487 215.91 189.823V205.07C215.91 205.406 216.182 205.679 216.518 205.679H222.039C222.375 205.679 222.647 205.406 222.647 205.07V189.823C222.647 189.487 222.375 189.214 222.039 189.214Z" fill="white"/>
<path d="M138.243 142.883H59.1136C55.892 142.883 53.2803 145.494 53.2803 148.715V191.616C53.2803 194.836 55.892 197.447 59.1136 197.447H138.243C141.465 197.447 144.076 194.836 144.076 191.616V148.715C144.076 145.494 141.465 142.883 138.243 142.883Z" fill="white"/>
<path opacity="0.1" d="M138.243 142.883H59.1136C55.892 142.883 53.2803 145.494 53.2803 148.715V191.616C53.2803 194.836 55.892 197.447 59.1136 197.447H138.243C141.465 197.447 144.076 194.836 144.076 191.616V148.715C144.076 145.494 141.465 142.883 138.243 142.883Z" fill="#B0ECFF"/>
<path d="M119.066 172.14H112.06C111.633 172.14 111.287 172.486 111.287 172.912V188.438C111.287 188.865 111.633 189.21 112.06 189.21H119.066C119.493 189.21 119.839 188.865 119.839 188.438V172.912C119.839 172.486 119.493 172.14 119.066 172.14Z" fill="white"/>
<path d="M135.951 158.865H128.944C128.518 158.865 128.172 159.21 128.172 159.637V188.439C128.172 188.865 128.518 189.211 128.944 189.211H135.951C136.377 189.211 136.723 188.865 136.723 188.439V159.637C136.723 159.21 136.377 158.865 135.951 158.865Z" fill="white"/>
<path d="M68.4123 172.14H61.4056C60.9791 172.14 60.6333 172.486 60.6333 172.912V188.438C60.6333 188.865 60.9791 189.21 61.4056 189.21H68.4123C68.8388 189.21 69.1845 188.865 69.1845 188.438V172.912C69.1845 172.486 68.8388 172.14 68.4123 172.14Z" fill="white"/>
<path d="M85.2969 152.828H78.2902C77.8637 152.828 77.5179 153.174 77.5179 153.6V188.438C77.5179 188.865 77.8637 189.21 78.2902 189.21H85.2969C85.7234 189.21 86.0692 188.865 86.0692 188.438V153.6C86.0692 153.174 85.7234 152.828 85.2969 152.828Z" fill="white"/>
<path d="M102.182 168.314H95.1751C94.7486 168.314 94.4028 168.66 94.4028 169.086V188.438C94.4028 188.865 94.7486 189.21 95.1751 189.21H102.182C102.608 189.21 102.954 188.865 102.954 188.438V169.086C102.954 168.66 102.608 168.314 102.182 168.314Z" fill="white"/>
<path d="M288.267 0H197.388C193.688 0 190.688 2.99872 190.688 6.69782V55.9691C190.688 59.6682 193.688 62.667 197.388 62.667H288.267C291.967 62.667 294.967 59.6682 294.967 55.9691V6.69782C294.967 2.99872 291.967 0 288.267 0Z" fill="white"/>
<path opacity="0.1" d="M288.267 0H197.388C193.688 0 190.688 2.99872 190.688 6.69782V55.9691C190.688 59.6682 193.688 62.667 197.388 62.667H288.267C291.967 62.667 294.967 59.6682 294.967 55.9691V6.69782C294.967 2.99872 291.967 0 288.267 0Z" fill="#B0ECFF"/>
<path d="M266.243 33.6019H258.196C257.706 33.6019 257.309 33.9989 257.309 34.4886V52.3202C257.309 52.8099 257.706 53.2069 258.196 53.2069H266.243C266.733 53.2069 267.13 52.8099 267.13 52.3202V34.4886C267.13 33.9989 266.733 33.6019 266.243 33.6019Z" fill="white"/>
<path d="M285.635 18.3545H277.588C277.098 18.3545 276.701 18.7515 276.701 19.2412V52.3201C276.701 52.8098 277.098 53.2068 277.588 53.2068H285.635C286.125 53.2068 286.522 52.8098 286.522 52.3201V19.2412C286.522 18.7515 286.125 18.3545 285.635 18.3545Z" fill="white"/>
<path d="M208.067 33.6019H200.02C199.53 33.6019 199.133 33.9989 199.133 34.4886V52.3202C199.133 52.8099 199.53 53.2069 200.02 53.2069H208.067C208.557 53.2069 208.954 52.8099 208.954 52.3202V34.4886C208.954 33.9989 208.557 33.6019 208.067 33.6019Z" fill="white"/>
<path d="M227.459 11.4219H219.412C218.922 11.4219 218.525 11.8189 218.525 12.3086V52.3201C218.525 52.8099 218.922 53.2069 219.412 53.2069H227.459C227.949 53.2069 228.346 52.8099 228.346 52.3201V12.3086C228.346 11.8189 227.949 11.4219 227.459 11.4219Z" fill="white"/>
<path d="M246.851 29.2073H238.804C238.314 29.2073 237.917 29.6043 237.917 30.094V52.3199C237.917 52.8096 238.314 53.2066 238.804 53.2066H246.851C247.341 53.2066 247.738 52.8096 247.738 52.3199V30.094C247.738 29.6043 247.341 29.2073 246.851 29.2073Z" fill="white"/>
<path d="M90.9314 51.7242H46.5979C44.793 51.7242 43.3298 53.187 43.3298 54.9914V79.0273C43.3298 80.8317 44.793 82.2945 46.5979 82.2945H90.9314C92.7363 82.2945 94.1994 80.8317 94.1994 79.0273V54.9914C94.1994 53.187 92.7363 51.7242 90.9314 51.7242Z" fill="white"/>
<path opacity="0.3" d="M90.9314 51.7242H46.5979C44.793 51.7242 43.3298 53.187 43.3298 54.9914V79.0273C43.3298 80.8317 44.793 82.2945 46.5979 82.2945H90.9314C92.7363 82.2945 94.1994 80.8317 94.1994 79.0273V54.9914C94.1994 53.187 92.7363 51.7242 90.9314 51.7242Z" fill="#B0ECFF"/>
<path d="M80.1875 68.1159H76.2618C76.0229 68.1159 75.8292 68.3095 75.8292 68.5484V77.2472C75.8292 77.4861 76.0229 77.6797 76.2618 77.6797H80.1875C80.4264 77.6797 80.6201 77.4861 80.6201 77.2472V68.5484C80.6201 68.3095 80.4264 68.1159 80.1875 68.1159Z" fill="white"/>
<path d="M89.6471 60.6778H85.7214C85.4825 60.6778 85.2888 60.8714 85.2888 61.1103V77.247C85.2888 77.4858 85.4825 77.6794 85.7214 77.6794H89.6471C89.886 77.6794 90.0797 77.4858 90.0797 77.247V61.1103C90.0797 60.8714 89.886 60.6778 89.6471 60.6778Z" fill="white"/>
<path d="M51.8079 68.1159H47.8822C47.6433 68.1159 47.4496 68.3095 47.4496 68.5484V77.2472C47.4496 77.4861 47.6433 77.6797 47.8822 77.6797H51.8079C52.0468 77.6797 52.2405 77.4861 52.2405 77.2472V68.5484C52.2405 68.3095 52.0468 68.1159 51.8079 68.1159Z" fill="white"/>
<path d="M61.2678 57.296H57.3421C57.1032 57.296 56.9095 57.4896 56.9095 57.7285V77.2472C56.9095 77.4861 57.1032 77.6797 57.3421 77.6797H61.2678C61.5068 77.6797 61.7004 77.4861 61.7004 77.2472V57.7285C61.7004 57.4896 61.5068 57.296 61.2678 57.296Z" fill="white"/>
<path d="M70.7276 65.972H66.8019C66.5629 65.972 66.3693 66.1657 66.3693 66.4045V77.247C66.3693 77.4858 66.5629 77.6794 66.8019 77.6794H70.7276C70.9665 77.6794 71.1601 77.4858 71.1601 77.247V66.4045C71.1601 66.1657 70.9665 65.972 70.7276 65.972Z" fill="white"/>
<path d="M85.5962 160.079L264.654 160.079C269.051 160.079 272.616 156.516 272.616 152.12V21.0566C272.616 16.6606 269.051 13.0969 264.654 13.0969L85.5962 13.0969C81.199 13.0969 77.6344 16.6606 77.6344 21.0566L77.6344 152.12C77.6344 156.516 81.199 160.079 85.5962 160.079Z" fill="white"/>
<path d="M77.3687 152.12V21.0566C77.3711 18.8759 78.2387 16.7853 79.7811 15.2433C81.3234 13.7014 83.4146 12.834 85.5959 12.8316H264.654C266.835 12.834 268.926 13.7014 270.469 15.2433C272.011 16.7853 272.878 18.8759 272.881 21.0566V152.12C272.878 154.3 272.011 156.391 270.469 157.933C268.926 159.475 266.835 160.342 264.654 160.345H85.5959C83.4146 160.342 81.3234 159.475 79.7811 157.933C78.2387 156.391 77.3711 154.3 77.3687 152.12ZM85.5959 13.3622C83.5554 13.3646 81.5991 14.176 80.1563 15.6185C78.7135 17.0609 77.9018 19.0167 77.8994 21.0566V152.12C77.9018 154.16 78.7134 156.115 80.1562 157.558C81.5991 159 83.5553 159.812 85.5959 159.814H264.654C266.694 159.812 268.651 159 270.093 157.558C271.536 156.115 272.348 154.16 272.35 152.12V21.0566C272.348 19.0166 271.536 17.0609 270.093 15.6184C268.65 14.1759 266.694 13.3645 264.654 13.3622H85.5959Z" fill="#292A2E"/>
<path d="M77.6343 21.0558V29.0651H272.615V21.0558C272.615 18.9448 271.776 16.9202 270.283 15.4274C268.79 13.9347 266.764 13.0961 264.653 13.0961H85.5961C83.4845 13.0961 81.4594 13.9347 79.9662 15.4274C78.4731 16.9202 77.6343 18.9448 77.6343 21.0558Z" fill="#292A2E"/>
<path d="M262.081 36.6759H186.107C184.242 36.6759 182.73 38.1873 182.73 40.0516V93.7817C182.73 95.646 184.242 97.1574 186.107 97.1574H262.081C263.945 97.1574 265.457 95.646 265.457 93.7817V40.0516C265.457 38.1873 263.945 36.6759 262.081 36.6759Z" fill="white"/>
<path opacity="0.15" d="M262.081 36.6759H186.107C184.242 36.6759 182.73 38.1873 182.73 40.0516V93.7817C182.73 95.646 184.242 97.1574 186.107 97.1574H262.081C263.945 97.1574 265.457 95.646 265.457 93.7817V40.0516C265.457 38.1873 263.945 36.6759 262.081 36.6759Z" fill="#B0ECFF"/>
<path d="M197.579 44.223H191.013C190.708 44.223 190.461 44.4702 190.461 44.7752V89.0581C190.461 89.3631 190.708 89.6103 191.013 89.6103H197.579C197.884 89.6103 198.132 89.3631 198.132 89.0581V44.7752C198.132 44.4702 197.884 44.223 197.579 44.223Z" fill="#FAFAFA"/>
<path opacity="0.6" d="M190.461 66.4712H198.131V89.0581C198.131 89.2046 198.073 89.345 197.969 89.4485C197.865 89.5521 197.725 89.6103 197.579 89.6103H191.013C190.867 89.6103 190.726 89.5521 190.623 89.4485C190.519 89.345 190.461 89.2046 190.461 89.0581V66.4712Z" fill="#B0ECFF"/>
<path d="M212.478 44.223H205.912C205.607 44.223 205.359 44.4702 205.359 44.7752V89.0581C205.359 89.3631 205.607 89.6103 205.912 89.6103H212.478C212.783 89.6103 213.03 89.3631 213.03 89.0581V44.7752C213.03 44.4702 212.783 44.223 212.478 44.223Z" fill="#FAFAFA"/>
<path opacity="0.6" d="M205.359 60.1806H213.029V89.0579C213.029 89.2043 212.971 89.3447 212.868 89.4483C212.764 89.5518 212.624 89.61 212.477 89.61H205.912C205.765 89.61 205.625 89.5518 205.521 89.4483C205.418 89.3447 205.359 89.2043 205.359 89.0579V60.1806Z" fill="#B0ECFF"/>
<path d="M257.174 44.223H250.608C250.303 44.223 250.056 44.4702 250.056 44.7752V89.0581C250.056 89.3631 250.303 89.6103 250.608 89.6103H257.174C257.479 89.6103 257.726 89.3631 257.726 89.0581V44.7752C257.726 44.4702 257.479 44.223 257.174 44.223Z" fill="#FAFAFA"/>
<path opacity="0.6" d="M250.056 53.8341H257.726V89.0584C257.726 89.2048 257.667 89.3453 257.564 89.4488C257.46 89.5524 257.32 89.6105 257.173 89.6105H250.608C250.462 89.6105 250.321 89.5524 250.218 89.4488C250.114 89.3453 250.056 89.2048 250.056 89.0584V53.8341H250.056Z" fill="#B0ECFF"/>
<path d="M227.377 44.223H220.811C220.506 44.223 220.258 44.4702 220.258 44.7752V89.0581C220.258 89.3631 220.506 89.6103 220.811 89.6103H227.377C227.682 89.6103 227.929 89.3631 227.929 89.0581V44.7752C227.929 44.4702 227.682 44.223 227.377 44.223Z" fill="#FAFAFA"/>
<path opacity="0.6" d="M220.258 76.6455H227.928V89.0581C227.928 89.2046 227.87 89.345 227.767 89.4485C227.663 89.5521 227.522 89.6103 227.376 89.6103H220.811C220.664 89.6103 220.524 89.5521 220.42 89.4485C220.317 89.345 220.258 89.2046 220.258 89.0581V76.6455Z" fill="#B0ECFF"/>
<path d="M242.276 44.223H235.71C235.404 44.223 235.157 44.4702 235.157 44.7752V89.0581C235.157 89.3631 235.404 89.6103 235.71 89.6103H242.276C242.581 89.6103 242.828 89.3631 242.828 89.0581V44.7752C242.828 44.4702 242.581 44.223 242.276 44.223Z" fill="#FAFAFA"/>
<path opacity="0.6" d="M235.156 68.7145H242.826V89.0579C242.826 89.2043 242.768 89.3447 242.664 89.4483C242.561 89.5518 242.42 89.61 242.274 89.61H235.709C235.637 89.61 235.565 89.5957 235.498 89.568C235.431 89.5402 235.37 89.4996 235.319 89.4483C235.268 89.397 235.227 89.3362 235.199 89.2692C235.171 89.2022 235.157 89.1304 235.157 89.0579V68.7145H235.156Z" fill="#B0ECFF"/>
<path opacity="0.15" d="M260.623 103.078H186.65C183.98 103.078 181.816 105.241 181.816 107.91V147.955C181.816 150.624 183.98 152.788 186.65 152.788H260.623C263.293 152.788 265.457 150.624 265.457 147.955V107.91C265.457 105.241 263.293 103.078 260.623 103.078Z" fill="#B0ECFF"/>
<path d="M231.849 115.494C232.841 115.494 233.646 114.69 233.646 113.698C233.646 112.706 232.841 111.902 231.849 111.902C230.857 111.902 230.052 112.706 230.052 113.698C230.052 114.69 230.857 115.494 231.849 115.494Z" fill="#B0ECFF"/>
<path d="M231.849 124.651C232.841 124.651 233.646 123.847 233.646 122.855C233.646 121.863 232.841 121.059 231.849 121.059C230.857 121.059 230.052 121.863 230.052 122.855C230.052 123.847 230.857 124.651 231.849 124.651Z" fill="#262626"/>
<path d="M231.849 133.808C232.841 133.808 233.646 133.004 233.646 132.012C233.646 131.02 232.841 130.215 231.849 130.215C230.857 130.215 230.052 131.02 230.052 132.012C230.052 133.004 230.857 133.808 231.849 133.808Z" fill="white"/>
<path opacity="0.5" d="M231.849 142.964C232.841 142.964 233.646 142.16 233.646 141.168C233.646 140.176 232.841 139.372 231.849 139.372C230.857 139.372 230.052 140.176 230.052 141.168C230.052 142.16 230.857 142.964 231.849 142.964Z" fill="#B0ECFF"/>
<path d="M256.783 113.697C256.783 113.967 256.676 114.225 256.485 114.416C256.295 114.606 256.036 114.714 255.767 114.714H238.496C238.256 114.718 238.022 114.64 237.832 114.492C237.643 114.344 237.51 114.136 237.456 113.902C237.426 113.754 237.429 113.601 237.465 113.455C237.501 113.308 237.569 113.172 237.665 113.055C237.76 112.938 237.88 112.844 238.017 112.779C238.153 112.715 238.302 112.681 238.453 112.681H255.767C255.9 112.681 256.032 112.707 256.156 112.758C256.279 112.81 256.391 112.884 256.485 112.979C256.58 113.073 256.655 113.185 256.706 113.308C256.757 113.432 256.783 113.564 256.783 113.697Z" fill="white"/>
<path d="M256.783 122.854C256.783 123.124 256.676 123.382 256.485 123.573C256.295 123.764 256.036 123.871 255.767 123.871H238.507C238.366 123.873 238.226 123.847 238.095 123.794C237.964 123.741 237.846 123.662 237.746 123.563C237.646 123.463 237.567 123.344 237.514 123.214C237.461 123.083 237.435 122.943 237.437 122.802C237.45 122.542 237.563 122.297 237.753 122.118C237.942 121.938 238.192 121.838 238.453 121.839H255.767C255.9 121.839 256.032 121.865 256.156 121.916C256.279 121.967 256.391 122.042 256.485 122.136C256.58 122.23 256.655 122.342 256.706 122.466C256.757 122.589 256.783 122.721 256.783 122.854Z" fill="white"/>
<path d="M256.783 132.012C256.783 132.281 256.676 132.54 256.485 132.73C256.295 132.921 256.036 133.028 255.766 133.028H238.348C238.106 133.028 237.874 132.932 237.703 132.76C237.531 132.589 237.435 132.357 237.435 132.115V131.908C237.435 131.666 237.531 131.434 237.703 131.263C237.874 131.092 238.106 130.996 238.348 130.996H255.766C255.9 130.996 256.032 131.022 256.155 131.073C256.279 131.124 256.391 131.199 256.485 131.293C256.58 131.387 256.654 131.499 256.706 131.623C256.757 131.746 256.783 131.878 256.783 132.012Z" fill="white"/>
<path d="M256.783 141.169C256.783 141.438 256.676 141.697 256.485 141.887C256.295 142.078 256.036 142.185 255.766 142.185H238.5C238.26 142.189 238.025 142.111 237.835 141.964C237.645 141.816 237.511 141.608 237.456 141.374C237.425 141.226 237.429 141.073 237.465 140.927C237.501 140.78 237.569 140.644 237.664 140.527C237.76 140.41 237.88 140.316 238.016 140.251C238.153 140.187 238.302 140.153 238.452 140.153H255.766C255.899 140.153 256.032 140.179 256.155 140.23C256.278 140.281 256.39 140.356 256.485 140.45C256.579 140.545 256.654 140.657 256.705 140.78C256.757 140.903 256.783 141.035 256.783 141.169Z" fill="white"/>
<path d="M198.137 127.433C198.138 129.623 198.817 131.758 200.082 133.546C201.347 135.333 203.136 136.684 205.201 137.413L202.296 144.495C198.302 142.99 194.962 140.132 192.859 136.418C190.756 132.704 190.022 128.37 190.787 124.171C191.552 119.973 193.766 116.175 197.043 113.441C200.321 110.706 204.454 109.208 208.723 109.207V116.852C205.916 116.852 203.223 117.967 201.238 119.951C199.253 121.935 198.137 124.627 198.137 127.433Z" fill="#B0ECFF"/>
<path d="M226.956 127.433H219.308C219.308 124.626 218.193 121.935 216.208 119.95C214.223 117.966 211.53 116.851 208.723 116.85V109.205C213.559 109.205 218.196 111.126 221.615 114.544C225.035 117.963 226.956 122.599 226.956 127.433Z" fill="#262626"/>
<path d="M226.956 127.433C226.955 131.563 225.552 135.571 222.976 138.8C220.401 142.029 216.805 144.289 212.777 145.208L211.482 137.651C213.728 137.044 215.712 135.715 217.127 133.868C218.541 132.021 219.308 129.759 219.309 127.433H226.956Z" fill="white"/>
<path opacity="0.5" d="M212.777 145.208C209.288 145.998 205.645 145.75 202.296 144.494L205.201 137.413C207.223 138.123 209.411 138.206 211.481 137.652L212.777 145.208Z" fill="#B0ECFF"/>
<path opacity="0.15" d="M171.203 36.6759H89.56C86.9217 36.6759 84.783 38.8141 84.783 41.4517V148.012C84.783 150.649 86.9217 152.788 89.56 152.788H171.203C173.841 152.788 175.98 150.649 175.98 148.012V41.4517C175.98 38.8141 173.841 36.6759 171.203 36.6759Z" fill="#B0ECFF"/>
<path d="M155.055 81.992C155.055 87.2903 153.484 92.4696 150.54 96.8749C147.595 101.28 143.411 104.714 138.514 106.741C133.618 108.769 128.23 109.3 123.033 108.266C117.835 107.232 113.06 104.681 109.313 100.935C105.565 97.1882 103.013 92.415 101.979 87.2185C100.945 82.0221 101.476 76.6359 103.504 71.7409C105.532 66.846 108.967 62.6622 113.373 59.7186C117.78 56.7751 122.96 55.2039 128.26 55.2039V81.992H155.055Z" fill="#FAFAFA"/>
<path opacity="0.6" d="M158.341 78.5123H131.547V51.7242C138.653 51.7245 145.468 54.547 150.493 59.5707C155.518 64.5944 158.341 71.4079 158.341 78.5123Z" fill="#B0ECFF"/>
<path opacity="0.6" d="M100.475 123.977C101.467 123.977 102.272 123.173 102.272 122.181C102.272 121.189 101.467 120.384 100.475 120.384C99.4826 120.384 98.6782 121.189 98.6782 122.181C98.6782 123.173 99.4826 123.977 100.475 123.977Z" fill="#B0ECFF"/>
<path d="M100.475 133.134C101.467 133.134 102.272 132.329 102.272 131.337C102.272 130.345 101.467 129.541 100.475 129.541C99.4826 129.541 98.6782 130.345 98.6782 131.337C98.6782 132.329 99.4826 133.134 100.475 133.134Z" fill="#FAFAFA"/>
<path opacity="0.6" d="M162.033 122.181C162.033 122.451 161.926 122.709 161.735 122.9C161.545 123.09 161.286 123.198 161.017 123.198H107.122C106.882 123.202 106.647 123.124 106.458 122.976C106.268 122.828 106.135 122.62 106.081 122.385C106.051 122.238 106.054 122.085 106.091 121.938C106.127 121.792 106.195 121.655 106.291 121.539C106.386 121.422 106.506 121.328 106.643 121.263C106.779 121.198 106.928 121.165 107.079 121.165H161.017C161.15 121.165 161.282 121.191 161.406 121.242C161.529 121.293 161.641 121.368 161.735 121.463C161.83 121.557 161.905 121.669 161.956 121.792C162.007 121.916 162.033 122.048 162.033 122.181Z" fill="#B0ECFF"/>
<path d="M162.033 131.337C162.033 131.607 161.926 131.865 161.735 132.056C161.545 132.246 161.286 132.353 161.016 132.353H107.133C106.992 132.355 106.852 132.329 106.721 132.276C106.59 132.223 106.472 132.145 106.372 132.045C106.272 131.946 106.193 131.827 106.14 131.696C106.087 131.566 106.061 131.426 106.062 131.285C106.076 131.025 106.189 130.78 106.378 130.6C106.567 130.421 106.818 130.321 107.079 130.321H161.016C161.15 130.321 161.282 130.347 161.405 130.398C161.529 130.449 161.641 130.524 161.735 130.619C161.83 130.713 161.904 130.825 161.956 130.948C162.007 131.072 162.033 131.204 162.033 131.337Z" fill="white"/>
<path d="M76.9963 227.398C76.9677 227.398 76.9393 227.392 76.9128 227.381C76.8864 227.37 76.8623 227.354 76.8421 227.334C76.5345 227.026 76.0337 221.389 74.6842 204.602C74.1319 197.734 73.6102 191.246 73.2296 187.303C73.2031 187.022 73.0932 186.989 73.0574 186.978C72.5364 186.821 70.9517 188.07 70.0672 189.164C70.0491 189.187 70.0269 189.205 70.0017 189.219C69.9766 189.232 69.9489 189.241 69.9204 189.244C69.8919 189.247 69.8631 189.244 69.8356 189.236C69.8081 189.228 69.7825 189.215 69.7602 189.197C69.7379 189.179 69.7194 189.157 69.7057 189.131C69.692 189.106 69.6834 189.079 69.6804 189.05C69.6774 189.022 69.68 188.993 69.6881 188.965C69.6963 188.938 69.7097 188.912 69.7277 188.89C70.3116 188.167 72.2195 186.271 73.1829 186.56C73.3277 186.61 73.4528 186.705 73.5394 186.831C73.6261 186.958 73.6698 187.108 73.664 187.261C74.0449 191.208 74.5664 197.697 75.1192 204.567C75.9393 214.768 76.8681 226.324 77.1736 227.052C77.1968 227.085 77.2106 227.123 77.2135 227.163C77.2163 227.203 77.2082 227.243 77.1899 227.279C77.1716 227.314 77.1439 227.344 77.1097 227.365C77.0756 227.386 77.0364 227.397 76.9963 227.397V227.398Z" fill="#494949"/>
<path d="M72.6697 194.538C76.2898 191.637 77.4897 187.122 75.3497 184.453C73.2096 181.784 68.5401 181.972 64.92 184.873C61.2998 187.774 60.0999 192.29 62.24 194.959C64.38 197.628 69.0495 197.44 72.6697 194.538Z" fill="#0CBC8B"/>
<path opacity="0.2" d="M72.6697 194.538C76.2898 191.637 77.4897 187.122 75.3497 184.453C73.2096 181.784 68.5401 181.972 64.92 184.873C61.2998 187.774 60.0999 192.29 62.24 194.959C64.38 197.628 69.0495 197.44 72.6697 194.538Z" fill="white"/>
<path d="M63.2543 195.637C63.2336 195.637 63.2134 195.631 63.1959 195.62C63.1785 195.609 63.1645 195.593 63.1557 195.574C63.1469 195.556 63.1437 195.535 63.1463 195.514C63.1489 195.494 63.1572 195.474 63.1704 195.459L73.4876 183.02C73.5061 182.998 73.5326 182.984 73.5615 182.981C73.5903 182.979 73.619 182.987 73.6413 183.006C73.6635 183.024 73.6776 183.051 73.6803 183.08C73.6829 183.109 73.6741 183.137 73.6556 183.159L63.3384 195.598C63.3282 195.61 63.3153 195.62 63.3008 195.627C63.2862 195.634 63.2703 195.637 63.2543 195.637Z" fill="white"/>
<path d="M79.2466 224.731C79.2119 224.731 79.1776 224.723 79.1467 224.707C79.1158 224.691 79.0892 224.668 79.0691 224.639C79.0489 224.611 79.0358 224.578 79.0309 224.544C79.026 224.509 79.0293 224.474 79.0407 224.441L82.9154 213.299C83.0294 212.972 83.2238 212.678 83.4807 212.445C83.7377 212.212 84.049 212.048 84.3862 211.966C84.7233 211.885 85.0755 211.889 85.4104 211.979C85.7454 212.07 86.0523 212.242 86.3032 212.482L88.352 214.438C88.3926 214.479 88.4158 214.533 88.4165 214.59C88.4173 214.648 88.3956 214.703 88.3561 214.744C88.3166 214.785 88.2624 214.809 88.2053 214.811C88.1481 214.813 88.0926 214.792 88.0505 214.754L86.0017 212.797C85.8037 212.608 85.5614 212.472 85.297 212.401C85.0326 212.329 84.7545 212.326 84.4883 212.39C84.2221 212.454 83.9764 212.584 83.7735 212.768C83.5707 212.952 83.4172 213.184 83.3273 213.442L79.4526 224.586C79.4375 224.628 79.4096 224.665 79.3727 224.691C79.3358 224.717 79.2918 224.731 79.2466 224.731Z" fill="#494949"/>
<path d="M94.076 220.607C96.7589 218.484 96.5994 213.815 93.7199 210.178C90.8403 206.541 86.3311 205.313 83.6483 207.436C80.9654 209.559 81.1249 214.229 84.0044 217.866C86.8839 221.503 91.3931 222.73 94.076 220.607Z" fill="#0CBC8B"/>
<path d="M75.2357 226.687C75.1867 226.687 75.139 226.671 75.1005 226.64C75.062 226.61 75.0348 226.567 75.0234 226.52L68.5213 199.334C68.4769 199.149 68.3823 198.979 68.2478 198.844C68.1133 198.709 67.9442 198.614 67.7589 198.568C67.5737 198.523 67.3796 198.53 67.198 198.588C67.0164 198.646 66.8543 198.753 66.7296 198.897L64.7248 201.213C64.7063 201.236 64.6836 201.254 64.6578 201.268C64.632 201.282 64.6037 201.29 64.5747 201.292C64.5456 201.295 64.5164 201.292 64.4887 201.283C64.4609 201.274 64.4353 201.259 64.4132 201.24C64.3912 201.221 64.3732 201.198 64.3603 201.172C64.3474 201.145 64.3398 201.117 64.3381 201.088C64.3364 201.059 64.3406 201.03 64.3503 201.002C64.3601 200.975 64.3752 200.949 64.3949 200.928L66.3997 198.612C66.577 198.407 66.8074 198.255 67.0654 198.173C67.3235 198.09 67.5992 198.081 67.8624 198.145C68.1255 198.209 68.3659 198.345 68.557 198.537C68.7481 198.729 68.8826 198.969 68.9456 199.233L75.4478 226.418C75.4544 226.446 75.4556 226.475 75.4511 226.503C75.4466 226.532 75.4365 226.559 75.4216 226.583C75.4066 226.607 75.3869 226.629 75.3637 226.645C75.3405 226.662 75.3143 226.674 75.2864 226.681C75.2698 226.685 75.2528 226.687 75.2357 226.687Z" fill="#494949"/>
<path d="M72.836 207.254C73.6266 202.683 71.5343 198.506 68.1628 197.923C64.7912 197.34 61.4171 200.572 60.6265 205.143C59.836 209.714 61.9283 213.891 65.2998 214.474C68.6714 215.057 72.0454 211.824 72.836 207.254Z" fill="#0CBC8B"/>
<path d="M76.9966 227.398C76.9877 227.398 76.9789 227.397 76.9701 227.396C76.9126 227.389 76.8604 227.359 76.8248 227.314C76.7892 227.268 76.7731 227.21 76.78 227.153L80.9329 193.443C80.9781 193.076 81.1285 192.73 81.3659 192.446C81.6033 192.162 81.9177 191.953 82.2712 191.843C82.6247 191.734 83.0023 191.729 83.3586 191.829C83.715 191.929 84.0348 192.129 84.2798 192.407L89.0266 197.781C89.0456 197.803 89.0602 197.828 89.0695 197.855C89.0788 197.882 89.0827 197.911 89.0809 197.939C89.0792 197.968 89.0718 197.996 89.0592 198.022C89.0466 198.047 89.0291 198.07 89.0076 198.089C88.9862 198.108 88.9612 198.123 88.9341 198.132C88.907 198.142 88.8783 198.145 88.8497 198.144C88.8211 198.142 88.7932 198.135 88.7674 198.122C88.7417 198.109 88.7186 198.092 88.6997 198.07L83.9528 192.696C83.7635 192.481 83.5163 192.326 83.241 192.249C82.9656 192.172 82.6738 192.176 82.4005 192.26C82.1273 192.345 81.8844 192.506 81.7008 192.726C81.5173 192.945 81.4011 193.213 81.366 193.496L77.2129 227.206C77.2064 227.259 77.1809 227.307 77.141 227.343C77.1012 227.378 77.0498 227.398 76.9966 227.398Z" fill="#494949"/>
<path d="M93.8945 200.768C95.5507 197.775 93.6021 193.529 89.5422 191.283C85.4823 189.038 80.8485 189.645 79.1923 192.638C77.5362 195.631 79.4848 199.878 83.5447 202.123C87.6046 204.368 92.2384 203.762 93.8945 200.768Z" fill="#0CBC8B"/>
<path opacity="0.2" d="M94.076 220.607C96.7589 218.484 96.5994 213.815 93.7199 210.178C90.8403 206.541 86.3311 205.313 83.6483 207.436C80.9654 209.559 81.1249 214.229 84.0044 217.866C86.8839 221.503 91.3931 222.73 94.076 220.607Z" fill="white"/>
<path opacity="0.5" d="M72.836 207.254C73.6266 202.683 71.5343 198.506 68.1628 197.923C64.7912 197.34 61.4171 200.572 60.6265 205.143C59.836 209.714 61.9283 213.891 65.2998 214.474C68.6714 215.057 72.0454 211.824 72.836 207.254Z" fill="white"/>
<path opacity="0.5" d="M93.8945 200.768C95.5507 197.775 93.6021 193.529 89.5422 191.283C85.4823 189.038 80.8485 189.645 79.1923 192.638C77.5362 195.631 79.4848 199.878 83.5447 202.123C87.6046 204.368 92.2384 203.762 93.8945 200.768Z" fill="white"/>
<path d="M82.3081 256H71.6844L69.9241 222.019H84.0685L82.3081 256Z" fill="#292A2E"/>
<path opacity="0.3" d="M82.3081 256H71.6844L69.9241 222.019H84.0685L82.3081 256Z" fill="white"/>
<path d="M94.0771 220.715C94.0606 220.715 94.0443 220.712 94.0295 220.704C94.0146 220.697 94.0016 220.687 93.9914 220.674L83.5636 207.503C83.5546 207.492 83.548 207.479 83.5441 207.466C83.5402 207.452 83.539 207.437 83.5406 207.423C83.5423 207.409 83.5467 207.395 83.5537 207.383C83.5606 207.37 83.57 207.359 83.5812 207.35C83.5924 207.341 83.6053 207.335 83.6191 207.331C83.6328 207.327 83.6473 207.326 83.6615 207.327C83.6757 207.329 83.6895 207.333 83.702 207.34C83.7145 207.347 83.7256 207.357 83.7345 207.368L94.1626 220.538C94.1805 220.561 94.1886 220.59 94.1852 220.619C94.1819 220.647 94.1672 220.674 94.1445 220.692C94.1254 220.707 94.1016 220.715 94.0771 220.715Z" fill="white"/>
<path d="M93.2013 201.824C93.1782 201.824 93.1557 201.816 93.137 201.803L79.7931 192.062C79.781 192.053 79.7708 192.043 79.7629 192.03C79.7551 192.018 79.7498 192.004 79.7473 191.99C79.7448 191.976 79.7453 191.961 79.7486 191.947C79.7519 191.933 79.7581 191.919 79.7667 191.907C79.7752 191.896 79.7861 191.886 79.7986 191.878C79.8111 191.871 79.825 191.866 79.8394 191.864C79.8539 191.862 79.8686 191.863 79.8827 191.866C79.8968 191.87 79.91 191.877 79.9215 191.885L93.2658 201.627C93.2844 201.64 93.2982 201.659 93.3053 201.681C93.3123 201.703 93.3123 201.727 93.3051 201.748C93.298 201.77 93.2841 201.789 93.2654 201.803C93.2468 201.816 93.2243 201.824 93.2013 201.824Z" fill="white"/>
<path d="M64.7588 214.332C64.7492 214.332 64.7396 214.33 64.7304 214.328C64.7026 214.32 64.6789 214.302 64.6645 214.277C64.65 214.253 64.6459 214.223 64.6531 214.195L68.901 198.284C68.9088 198.256 68.9269 198.233 68.9517 198.218C68.9765 198.204 69.0059 198.2 69.0337 198.206C69.0615 198.214 69.0853 198.232 69.0997 198.257C69.1142 198.282 69.1183 198.311 69.111 198.339L64.8639 214.251C64.8577 214.274 64.8441 214.294 64.8251 214.309C64.8061 214.324 64.7828 214.331 64.7588 214.332Z" fill="white"/>
<path d="M281.512 256H63.7782C63.7289 256 63.6817 255.98 63.6468 255.946C63.612 255.911 63.5924 255.864 63.5924 255.814C63.5924 255.765 63.612 255.718 63.6468 255.683C63.6817 255.648 63.7289 255.629 63.7782 255.629H281.512C281.561 255.629 281.609 255.648 281.643 255.683C281.678 255.718 281.698 255.765 281.698 255.814C281.698 255.864 281.678 255.911 281.643 255.946C281.609 255.98 281.561 256 281.512 256Z" fill="#292A2E"/>
<path d="M119.173 244.094C119.173 244.094 120.371 250.304 126.186 250.651C132 250.998 130.74 255.629 130.74 255.629H108.517V244.527L119.173 244.094Z" fill="#B0ECFF"/>
<path d="M107.01 130.819C107.01 130.819 108.672 128.953 108.657 133.187C108.602 148.982 107.536 248.057 107.536 248.057L122.14 247.934L130.986 130.178L107.01 130.819Z" fill="#262626"/>
<path d="M144.109 244.094C144.109 244.094 145.308 250.304 151.123 250.65C156.939 250.996 155.678 255.627 155.678 255.627H133.454V244.527L144.109 244.094Z" fill="#B0ECFF"/>
<path d="M146.934 132.046C146.934 132.046 148.758 186.028 148.569 188.666L146.853 247.647L132.491 247.913L130.175 186.532C130.175 186.532 128.657 169.6 124.565 153.878C122.471 145.808 121.211 137.545 120.805 129.219L146.934 132.046Z" fill="#262626"/>
<path d="M127.987 170.319L129.184 152.009C129.184 152.009 130.414 159.621 130.414 166.182C130.414 169.389 129.754 182.086 129.754 182.086L127.987 170.319Z" fill="#0A0A0A"/>
<path d="M106.851 130.818L106.803 130.821C106.803 130.821 106.839 129.9 106.851 130.818Z" fill="#333333"/>
<path d="M106.911 130.818L106.863 130.821C106.863 130.821 106.898 129.9 106.911 130.818Z" fill="#333333"/>
<path d="M186.934 87.0029C186.846 86.8288 186.706 86.6862 186.534 86.5949C186.361 86.5036 186.165 86.4681 185.971 86.4932C185.973 86.4761 185.969 86.4588 185.961 86.4439C185.952 86.4323 185.94 86.4233 185.926 86.4177C185.913 86.4122 185.898 86.4103 185.883 86.4123L186.536 85.9443C186.732 85.8106 186.872 85.6106 186.932 85.3814C186.991 85.1521 186.966 84.9091 186.86 84.6973C186.748 84.4914 186.565 84.3341 186.344 84.2561C186.123 84.1781 185.881 84.1849 185.665 84.2751C185.667 84.2658 185.661 84.2571 185.66 84.2486L185.928 84.0565C186.111 83.9297 186.246 83.7434 186.308 83.5291C186.37 83.3149 186.356 83.0858 186.268 82.8806C186.21 82.7531 186.125 82.64 186.019 82.5495C185.912 82.4589 185.787 82.393 185.652 82.3567C185.517 82.3204 185.375 82.3145 185.237 82.3394C185.1 82.3644 184.969 82.4195 184.856 82.5009L184.236 82.9448C184.235 82.9411 184.236 82.9368 184.234 82.9334C184.232 82.9299 184.225 82.9286 184.221 82.9249C184.364 82.765 184.447 82.5615 184.458 82.3478C184.47 82.1341 184.408 81.923 184.283 81.749C183.992 81.2788 183.317 81.3751 182.916 81.662L179.272 84.1786L179.923 83.0822C180.054 82.8712 180.1 82.6183 180.052 82.3747C180.004 82.131 179.865 81.9146 179.664 81.7692C179.557 81.6978 179.437 81.649 179.311 81.6256C179.185 81.6022 179.055 81.6047 178.93 81.633C178.805 81.6614 178.687 81.7149 178.583 81.7903C178.479 81.8658 178.392 81.9616 178.326 82.0719L174.77 88.0581C174.353 88.7604 174.226 89.5977 174.416 90.392C174.606 91.1864 175.099 91.8753 175.789 92.3123C176.59 92.8191 177.524 93.0754 178.471 93.0482C179.418 93.021 180.336 92.7116 181.106 92.1597L186.609 88.2157C186.792 88.0797 186.924 87.886 186.983 87.6658C187.042 87.4457 187.025 87.2121 186.934 87.0029Z" fill="#E98862"/>
<g opacity="0.25">
<path d="M180.63 85.4317C180.643 85.4501 180.663 85.4626 180.686 85.4664C180.708 85.4702 180.731 85.4651 180.75 85.4521L184.213 83.0544C184.222 83.0479 184.23 83.0396 184.237 83.0299C184.243 83.0203 184.247 83.0096 184.249 82.9983C184.251 82.9871 184.251 82.9755 184.248 82.9643C184.246 82.9531 184.241 82.9425 184.235 82.9331C184.228 82.9237 184.22 82.9157 184.21 82.9095C184.201 82.9033 184.19 82.899 184.179 82.897C184.168 82.895 184.156 82.8951 184.145 82.8976C184.134 82.9 184.123 82.9046 184.114 82.9111L180.651 85.3088C180.632 85.322 180.619 85.3422 180.615 85.3649C180.611 85.3876 180.616 85.4111 180.629 85.4301L180.63 85.4317Z" fill="#0C0C0C"/>
</g>
<g opacity="0.25">
<path d="M181.646 86.9878C181.659 87.0062 181.679 87.0186 181.702 87.0224C181.724 87.0262 181.747 87.021 181.766 87.008L185.63 84.3322C185.649 84.3189 185.662 84.2988 185.666 84.276C185.67 84.2533 185.665 84.2299 185.652 84.2109C185.638 84.1926 185.618 84.1801 185.596 84.176C185.573 84.1719 185.55 84.1765 185.531 84.1889L181.666 86.8647C181.647 86.8779 181.634 86.8981 181.63 86.9209C181.626 86.9437 181.631 86.9672 181.644 86.9862L181.646 86.9878Z" fill="#0C0C0C"/>
</g>
<g opacity="0.25">
<path d="M182.736 88.6792C182.749 88.6976 182.769 88.7101 182.792 88.7139C182.814 88.7177 182.837 88.7126 182.856 88.6997L185.939 86.5651C185.958 86.552 185.971 86.5318 185.975 86.5091C185.979 86.4863 185.974 86.4629 185.961 86.4439C185.948 86.4249 185.927 86.4119 185.905 86.4078C185.882 86.4036 185.859 86.4087 185.84 86.4219L182.757 88.5564C182.738 88.5696 182.725 88.5897 182.721 88.6125C182.717 88.6352 182.722 88.6586 182.735 88.6777L182.736 88.6792Z" fill="#0C0C0C"/>
</g>
<path d="M172.671 86.6946L162.226 104.48L149.481 87.7665L138.895 97.3067L156.971 120.711L157.09 120.878C157.813 121.868 158.777 122.659 159.891 123.174C161.004 123.689 162.231 123.913 163.454 123.823C164.678 123.734 165.859 123.334 166.886 122.662C167.912 121.99 168.751 121.068 169.322 119.983L184.176 93.091L172.671 86.6946Z" fill="#B0ECFF"/>
<path d="M161.202 106.619C161.179 106.619 161.157 106.613 161.137 106.602C161.117 106.591 161.1 106.575 161.088 106.555C161.076 106.536 161.07 106.514 161.069 106.491C161.068 106.468 161.073 106.446 161.083 106.425L162.107 104.419C162.124 104.388 162.151 104.364 162.185 104.354C162.218 104.343 162.255 104.346 162.286 104.362C162.317 104.378 162.341 104.406 162.352 104.439C162.363 104.473 162.36 104.509 162.344 104.54L161.32 106.546C161.309 106.568 161.292 106.586 161.271 106.599C161.25 106.612 161.226 106.619 161.202 106.619Z" fill="#0C0C0C"/>
<path d="M148.745 104.378L148.426 109.996L148.691 110.011L149.01 104.393L148.745 104.378Z" fill="#0C0C0C"/>
<path d="M115.087 63.7245C115.087 63.7245 114.598 69.9771 113.163 72.2311C109.033 78.7198 107.774 86.0589 111.789 89.9469C115.804 93.835 141.698 94.1897 143.762 85.3757C145.499 77.9565 141.964 77.1159 141.173 70.9686C140.815 68.1875 139.809 62.3533 139.809 62.3533" fill="#0A0A0A"/>
<path d="M137.17 83.9671C137.125 83.9613 136.629 92.1897 127.067 91.4726C120.448 90.9767 118.087 83.9554 117.936 83.9554C118.65 83.8039 119.852 83.584 120.168 83.4142C121.211 82.8543 122.5 82.2717 122.836 80.2481C123.03 79.0806 122.702 73.1146 122.803 71.9344L132.964 74.2019C132.822 76.694 131.828 82.472 135.311 83.4948C135.89 83.6638 136.515 83.8193 137.17 83.9671Z" fill="#E98862"/>
<path opacity="0.52" d="M133.106 81.1334C132.947 80.6207 132.844 80.092 132.8 79.5569C132.689 78.3358 132.711 77.1061 132.867 75.8899C130.801 75.6111 128.856 74.7589 127.251 73.4301C127.062 74.1268 126.025 77.1711 126.312 77.8326C126.855 79.0841 129.407 81.1334 133.106 81.1334Z" fill="#0C0C0C"/>
<path d="M131.759 78.5436C127.749 78.8846 122.584 77.2228 121.573 71.8774L120.659 67.0541C119.647 61.7086 121.635 56.8439 126.67 55.8914C131.704 54.9389 136.288 58.5603 137.3 63.9057L137.704 66.0411C138.092 68.092 138.914 77.935 131.759 78.5436Z" fill="#E98862"/>
<path d="M136.269 66.2737C136.618 66.2737 136.9 65.9913 136.9 65.6428C136.9 65.2943 136.618 65.0119 136.269 65.0119C135.92 65.0119 135.638 65.2943 135.638 65.6428C135.638 65.9913 135.92 66.2737 136.269 66.2737Z" fill="#0C0C0C"/>
<path d="M129.804 67.1374C130.152 67.1374 130.435 66.8549 130.435 66.5065C130.435 66.158 130.152 65.8755 129.804 65.8755C129.455 65.8755 129.173 66.158 129.173 66.5065C129.173 66.8549 129.455 67.1374 129.804 67.1374Z" fill="#0C0C0C"/>
<path opacity="0.52" d="M133.351 71.1332L133.361 71.1316C133.565 71.0916 133.767 71.0403 133.965 70.9779C134.261 70.8827 134.649 70.7253 134.598 70.4579C134.541 70.1533 133.084 67.0249 132.918 66.6694C132.911 66.6538 132.901 66.6399 132.888 66.6282C132.876 66.6166 132.861 66.6076 132.845 66.6017C132.829 66.5958 132.812 66.5931 132.795 66.5938C132.778 66.5945 132.761 66.5986 132.746 66.6058C132.73 66.613 132.716 66.6231 132.705 66.6357C132.693 66.6483 132.684 66.6631 132.679 66.6791C132.673 66.6952 132.67 66.7122 132.671 66.7293C132.672 66.7463 132.676 66.763 132.684 66.7784C133.305 68.1109 134.305 70.3008 134.344 70.5059C134.311 70.6012 133.819 70.7816 133.313 70.8774C133.28 70.8832 133.25 70.9017 133.23 70.9291C133.211 70.9564 133.202 70.9904 133.207 71.0238C133.212 71.0571 133.23 71.0872 133.257 71.1076C133.284 71.128 133.318 71.1371 133.351 71.1329V71.1332Z" fill="#0C0C0C"/>
<path opacity="0.52" d="M132.606 73.4396C133.428 73.3331 134.212 73.0351 134.897 72.5696C134.926 72.5509 134.946 72.5215 134.953 72.488C134.96 72.4545 134.953 72.4195 134.935 72.3908C134.916 72.3621 134.887 72.342 134.853 72.3349C134.819 72.3278 134.785 72.3344 134.756 72.3531C133.274 73.3183 131.801 73.4746 130.497 72.8041C130.471 72.7898 130.444 72.7769 130.416 72.7654C130.384 72.7538 130.348 72.7554 130.317 72.77C130.286 72.7846 130.262 72.8109 130.25 72.8432C130.239 72.8754 130.24 72.911 130.255 72.942C130.27 72.9731 130.296 72.9971 130.328 73.0087C130.338 73.013 130.355 73.022 130.379 73.0352C131.065 73.3886 131.84 73.5294 132.606 73.4396Z" fill="#0C0C0C"/>
<path d="M116.632 68.7349L121.145 67.9079C124.563 66.525 125.596 60.6099 125.596 60.6099C125.596 60.6099 129.748 64.6553 139.809 62.3544C139.809 62.3544 137.792 48.3273 122.928 52.4048C118.135 53.72 114.695 58.5483 115.124 65.0013C115.425 69.5248 116.632 68.7349 116.632 68.7349Z" fill="#0A0A0A"/>
<path d="M122.194 73.4468C120.664 73.7363 119.114 72.3346 118.823 70.805C118.533 69.2754 119.614 68.1974 121.144 67.9079L122.126 68.7835L123.508 73.1979L122.194 73.4468Z" fill="#E98862"/>
<path d="M133.84 64.1116C134.287 63.8234 134.802 63.6606 135.333 63.6404C135.594 63.6286 135.856 63.6563 136.109 63.7224C136.36 63.7867 136.601 63.8824 136.828 64.0071C136.86 64.0228 136.884 64.0506 136.896 64.0842C136.908 64.1179 136.905 64.1548 136.89 64.1869C136.875 64.219 136.847 64.2437 136.813 64.2556C136.78 64.2675 136.743 64.2656 136.711 64.2504L136.701 64.2459C136.491 64.1429 136.27 64.0667 136.041 64.019C135.815 63.9706 135.583 63.9566 135.353 63.9777C134.897 64.0158 134.459 64.1741 134.083 64.4364L134.071 64.4454C134.049 64.4611 134.025 64.4724 133.999 64.4786C133.973 64.4848 133.946 64.4859 133.92 64.4817C133.893 64.4776 133.868 64.4683 133.845 64.4543C133.823 64.4404 133.803 64.4222 133.787 64.4006C133.771 64.379 133.76 64.3546 133.754 64.3286C133.748 64.3027 133.747 64.2758 133.751 64.2495C133.755 64.2231 133.764 64.1979 133.778 64.1751C133.792 64.1524 133.81 64.1326 133.832 64.117L133.84 64.1116Z" fill="#0C0C0C"/>
<path d="M129.816 65.0588C129.371 64.9498 128.905 64.9605 128.465 65.0899C128.243 65.1534 128.032 65.2501 127.839 65.3767C127.643 65.5042 127.464 65.6557 127.305 65.8278L127.298 65.8349C127.273 65.8597 127.24 65.874 127.205 65.8746C127.17 65.8752 127.136 65.8622 127.11 65.8383C127.085 65.8144 127.069 65.7815 127.068 65.7465C127.066 65.7115 127.078 65.6772 127.101 65.6508C127.267 65.4525 127.458 65.2761 127.668 65.1257C127.88 64.9726 128.114 64.8523 128.362 64.7689C128.865 64.5962 129.404 64.5617 129.925 64.6691C129.977 64.6804 130.023 64.7122 130.053 64.7576C130.082 64.8029 130.092 64.858 130.081 64.9108C130.07 64.9636 130.038 65.0097 129.992 65.039C129.947 65.0683 129.892 65.0784 129.839 65.0671L129.831 65.065L129.816 65.0588Z" fill="#0C0C0C"/>
<path opacity="0.52" d="M132.781 74.6535C132.93 74.6365 133.077 74.6069 133.22 74.5651C133.253 74.5556 133.281 74.5335 133.298 74.5035C133.315 74.4735 133.319 74.4381 133.309 74.4051C133.3 74.3721 133.277 74.3443 133.247 74.3277C133.217 74.311 133.182 74.307 133.149 74.3165C132.284 74.5656 131.792 74.2369 131.771 74.2215C131.743 74.2018 131.708 74.1941 131.674 74.2001C131.64 74.206 131.61 74.2252 131.591 74.2533C131.571 74.2815 131.563 74.3163 131.569 74.3501C131.575 74.384 131.594 74.4141 131.623 74.4338C131.972 74.6386 132.381 74.7163 132.781 74.6535Z" fill="#0C0C0C"/>
<path d="M121.155 67.8506L121.11 67.7256C126.828 65.6736 125.43 60.0639 125.415 60.0074L125.543 59.9737C125.559 60.0312 126.989 65.7569 121.155 67.8506Z" fill="#0C0C0C"/>
<path opacity="0.1" d="M129.273 71.5048C129.933 71.4338 130.426 70.9838 130.374 70.4998C130.322 70.0158 129.745 69.681 129.085 69.752C128.425 69.8231 127.932 70.273 127.984 70.757C128.036 71.241 128.613 71.5758 129.273 71.5048Z" fill="#0C0C0C"/>
<path opacity="0.1" d="M136.282 69.6739C136.335 70.1573 136.913 70.4916 137.573 70.4216C137.687 70.4091 137.799 70.3849 137.909 70.3494C137.946 69.7742 137.954 69.2207 137.943 68.7078C137.761 68.66 137.571 68.6467 137.383 68.6686C136.723 68.7384 136.231 69.1883 136.282 69.6739Z" fill="#0C0C0C"/>
<path d="M149.05 102.083C148.748 105.62 147.283 127.689 146.994 132.046H108.678C108.453 128.116 105.848 110.933 104.993 103.248C104.177 95.9151 102.576 92.2438 103.75 90.0759C105.668 86.5328 110.908 84.4853 114.481 84.0016C116.663 83.7065 119.945 83.4948 119.945 83.4948C119.945 83.4948 120.223 89.1144 126.849 89.4272C135.868 89.8517 135.266 83.4948 135.31 83.4948C136.772 83.4948 145.119 84.4195 147.161 85.6296C152.725 88.9241 149.689 94.5877 149.05 102.083Z" fill="#B0ECFF"/>
<path d="M173.92 104.554L170.227 122.5C170.152 122.864 169.955 123.192 169.667 123.429C169.38 123.665 169.021 123.796 168.649 123.8L143.217 124.016C142.974 124.018 142.734 123.966 142.515 123.863C142.295 123.761 142.101 123.61 141.947 123.423C141.793 123.236 141.682 123.016 141.624 122.781C141.566 122.545 141.561 122.3 141.61 122.062L145.303 104.116C145.378 103.751 145.576 103.424 145.863 103.187C146.151 102.951 146.51 102.82 146.883 102.817L172.314 102.601C172.557 102.599 172.796 102.651 173.016 102.754C173.235 102.857 173.429 103.007 173.583 103.194C173.737 103.382 173.847 103.601 173.906 103.836C173.964 104.071 173.969 104.316 173.92 104.554Z" fill="#292A2E"/>
<path d="M150.206 117.301C150.219 117.538 150.147 117.771 150.002 117.958C149.857 118.145 149.65 118.274 149.417 118.32L148.635 118.493C148.649 118.497 148.661 118.505 148.671 118.516C148.682 118.526 148.689 118.539 148.693 118.554C148.695 118.57 148.691 118.587 148.682 118.601C148.871 118.654 149.038 118.764 149.16 118.917C149.283 119.069 149.355 119.255 149.367 119.45C149.368 119.678 149.293 119.899 149.152 120.078C149.012 120.257 148.816 120.384 148.595 120.437L141.984 121.905C141.646 121.981 141.3 122.019 140.954 122.019C140.182 122.019 139.422 121.831 138.74 121.472C138.057 121.113 137.471 120.593 137.034 119.957C136.571 119.285 136.388 118.458 136.525 117.653C136.661 116.847 137.107 116.127 137.767 115.646L143.39 111.536C143.514 111.445 143.658 111.386 143.81 111.363L143.292 113.876L143.43 113.844L143.459 113.839L147.772 112.961C148.252 112.854 148.911 113.03 148.995 113.576C149.041 113.785 149.014 114.004 148.92 114.196C148.826 114.388 148.669 114.543 148.475 114.635C148.478 114.637 148.483 114.64 148.483 114.645C148.483 114.651 148.481 114.653 148.481 114.659L149.226 114.494C149.363 114.464 149.504 114.464 149.641 114.495C149.777 114.526 149.905 114.587 150.014 114.673C150.124 114.76 150.214 114.869 150.276 114.994C150.339 115.119 150.373 115.257 150.376 115.396C150.375 115.619 150.298 115.835 150.157 116.008C150.016 116.181 149.819 116.299 149.601 116.343L149.279 116.415C149.277 116.426 149.279 116.436 149.274 116.444C149.508 116.446 149.733 116.535 149.905 116.693C150.077 116.852 150.185 117.068 150.206 117.301Z" fill="#E98862"/>
<g opacity="0.25">
<path d="M144.188 115.53C144.193 115.552 144.206 115.571 144.225 115.583C144.245 115.596 144.268 115.6 144.29 115.595L148.416 114.749C148.428 114.747 148.438 114.743 148.448 114.736C148.457 114.73 148.465 114.722 148.472 114.712C148.478 114.702 148.482 114.692 148.484 114.681C148.487 114.669 148.486 114.658 148.484 114.647C148.482 114.635 148.477 114.625 148.471 114.615C148.465 114.606 148.456 114.598 148.447 114.591C148.437 114.585 148.427 114.581 148.415 114.579C148.404 114.576 148.393 114.576 148.381 114.579L144.255 115.425C144.232 115.429 144.212 115.443 144.2 115.462C144.187 115.481 144.182 115.505 144.187 115.528L144.188 115.53Z" fill="#0C0C0C"/>
</g>
<g opacity="0.25">
<path d="M144.511 117.359C144.516 117.382 144.529 117.401 144.548 117.413C144.568 117.425 144.591 117.43 144.613 117.425L149.218 116.481C149.241 116.476 149.261 116.463 149.273 116.444C149.286 116.424 149.291 116.401 149.286 116.378C149.281 116.356 149.267 116.337 149.248 116.324C149.229 116.311 149.206 116.306 149.183 116.31L144.578 117.255C144.566 117.257 144.556 117.261 144.546 117.268C144.537 117.274 144.529 117.282 144.522 117.292C144.516 117.301 144.512 117.312 144.509 117.323C144.507 117.334 144.507 117.346 144.51 117.357L144.511 117.359Z" fill="#0C0C0C"/>
</g>
<g opacity="0.25">
<path d="M144.849 119.342C144.854 119.365 144.868 119.384 144.887 119.396C144.906 119.408 144.929 119.413 144.951 119.408L148.625 118.655C148.636 118.653 148.647 118.648 148.656 118.642C148.666 118.635 148.674 118.627 148.68 118.618C148.686 118.608 148.691 118.597 148.693 118.586C148.695 118.575 148.695 118.563 148.693 118.552C148.69 118.541 148.686 118.53 148.679 118.521C148.673 118.511 148.665 118.503 148.655 118.497C148.646 118.491 148.635 118.486 148.624 118.484C148.612 118.482 148.601 118.482 148.59 118.484L144.916 119.237C144.894 119.242 144.874 119.255 144.861 119.275C144.848 119.294 144.844 119.318 144.848 119.34L144.849 119.342Z" fill="#0C0C0C"/>
</g>
<path d="M141.575 124.52L105.708 131C104.589 131.121 103.457 130.982 102.401 130.593C101.344 130.203 100.393 129.575 99.6203 128.756C98.8479 127.937 98.2758 126.951 97.9488 125.874C97.6217 124.797 97.5487 123.659 97.7355 122.549L102.755 92.7119C102.913 91.7679 103.256 90.8644 103.763 90.0529C104.271 89.2414 104.933 88.5378 105.713 87.9824C106.493 87.427 107.374 87.0307 108.307 86.816C109.24 86.6014 110.206 86.5726 111.15 86.7314C112.094 86.8902 112.998 87.2334 113.809 87.7414C114.621 88.2495 115.324 88.9124 115.879 89.6922C116.434 90.4721 116.829 91.3537 117.043 92.2865C117.257 93.2194 117.285 94.1853 117.126 95.129L113.702 115.669L139.998 112.368L141.575 124.52Z" fill="#B0ECFF"/>
<path d="M105.708 131.132C105.674 131.132 105.643 131.12 105.618 131.097C105.594 131.075 105.579 131.044 105.576 131.011C105.573 130.978 105.582 130.945 105.602 130.919C105.622 130.893 105.652 130.875 105.684 130.869L141.427 124.412L139.883 112.516L113.719 115.801C113.698 115.803 113.677 115.801 113.658 115.794C113.638 115.787 113.621 115.776 113.607 115.761C113.592 115.746 113.581 115.728 113.575 115.708C113.569 115.689 113.568 115.668 113.571 115.647L115.747 102.52C115.75 102.502 115.756 102.486 115.765 102.471C115.775 102.456 115.787 102.443 115.801 102.433C115.815 102.423 115.831 102.416 115.848 102.412C115.865 102.408 115.883 102.407 115.9 102.411C115.917 102.413 115.934 102.42 115.949 102.429C115.963 102.438 115.976 102.45 115.986 102.464C115.996 102.478 116.004 102.494 116.008 102.511C116.012 102.528 116.012 102.546 116.009 102.563L113.862 115.515L139.981 112.236C140.016 112.231 140.051 112.241 140.079 112.262C140.106 112.284 140.124 112.316 140.129 112.35L141.706 124.502C141.71 124.536 141.701 124.57 141.681 124.597C141.661 124.625 141.631 124.644 141.598 124.65L105.731 131.13C105.724 131.132 105.716 131.132 105.708 131.132Z" fill="#0C0C0C"/>
<path d="M113.682 115.538L111.375 115.907L111.417 116.17L113.724 115.8L113.682 115.538Z" fill="#0C0C0C"/>
<path d="M292.501 146.791H214.01C210.75 146.791 208.107 149.433 208.107 152.692V179.56C208.107 182.82 210.75 185.462 214.01 185.462H292.501C295.762 185.462 298.405 182.82 298.405 179.56V152.692C298.405 149.433 295.762 146.791 292.501 146.791Z" fill="white"/>
<path opacity="0.4" d="M292.501 146.791H214.01C210.75 146.791 208.107 149.433 208.107 152.692V179.56C208.107 182.82 210.75 185.462 214.01 185.462H292.501C295.762 185.462 298.405 182.82 298.405 179.56V152.692C298.405 149.433 295.762 146.791 292.501 146.791Z" fill="#B0ECFF"/>
<path d="M292.501 185.726H214.01C212.374 185.724 210.807 185.074 209.65 183.918C208.494 182.762 207.843 181.194 207.841 179.559V152.693C207.843 151.058 208.494 149.491 209.65 148.335C210.807 147.179 212.374 146.528 214.01 146.526H292.501C294.137 146.528 295.705 147.179 296.861 148.335C298.018 149.491 298.668 151.058 298.67 152.693V179.56C298.668 181.195 298.017 182.762 296.861 183.918C295.704 185.074 294.137 185.724 292.501 185.726ZM214.01 147.056C212.515 147.058 211.082 147.652 210.025 148.709C208.968 149.766 208.373 151.199 208.372 152.693V179.56C208.374 181.054 208.969 182.487 210.026 183.543C211.082 184.6 212.515 185.194 214.01 185.196H292.501C293.996 185.194 295.429 184.599 296.486 183.543C297.543 182.486 298.138 181.053 298.139 179.559V152.693C298.138 151.199 297.543 149.766 296.486 148.71C295.429 147.653 293.996 147.059 292.501 147.057L214.01 147.056Z" fill="#292A2E"/>
<path d="M216.204 177.222C216.132 177.222 216.062 177.203 216.001 177.167C215.939 177.13 215.889 177.078 215.854 177.015C215.82 176.952 215.803 176.882 215.806 176.81C215.808 176.739 215.83 176.669 215.869 176.609C215.955 176.477 224.63 163.216 238.415 163.216C245.619 163.216 249.983 165.995 254.204 168.682C258.111 171.169 261.801 173.519 267.512 173.519C279.187 173.519 288.593 156.567 288.686 156.396C288.737 156.303 288.822 156.235 288.924 156.205C289.025 156.175 289.134 156.187 289.227 156.238C289.319 156.288 289.388 156.374 289.418 156.475C289.448 156.576 289.436 156.685 289.385 156.778C288.994 157.494 279.655 174.316 267.512 174.316C261.57 174.316 257.784 171.906 253.776 169.354C249.652 166.727 245.387 164.012 238.415 164.012C225.07 164.012 216.623 176.91 216.539 177.04C216.503 177.096 216.453 177.142 216.395 177.174C216.336 177.206 216.27 177.222 216.204 177.222Z" fill="white"/>
<path d="M289.147 158.145C290.008 158.145 290.705 157.448 290.705 156.588C290.705 155.727 290.008 155.03 289.147 155.03C288.287 155.03 287.589 155.727 287.589 156.588C287.589 157.448 288.287 158.145 289.147 158.145Z" fill="white"/>
</g>
<defs>
<clipPath id="clip0_107_761">
<rect width="255.34" height="256" fill="white" transform="translate(43.3298)"/>
</clipPath>
</defs>
</svg>
