<svg width="342" height="256" viewBox="0 0 342 256" fill="none" xmlns="http://www.w3.org/2000/svg">
<g clip-path="url(#clip0_107_61)">
<g clip-path="url(#clip1_107_61)">
<path d="M15.2518 106.936L8.82239 108.393L16.883 141.084L23.3124 139.627L15.2518 106.936Z" fill="#F0F6FF"/>
<path d="M22.324 104.399L16.8037 133.093L20.3733 133.724L25.8935 105.031L22.324 104.399Z" fill="#C1D8ED"/>
<path d="M22.3257 104.39L21.6976 107.555L25.2634 108.205L25.8915 105.04L22.3257 104.39Z" fill="#DEE8F5"/>
<path d="M11.2759 111.691L9.29364 112.44L20.8604 140.593L22.8426 139.844L11.2759 111.691Z" fill="#00677C"/>
<path d="M26.1769 124.01H8.74127V145.377H26.1769V124.01Z" fill="#C1D8ED"/>
<path d="M389.88 244.077H-47.88C-43.0831 232.348 -34.2269 222.398 -21.7378 219.446C-3.47108 215.134 15.8602 226.992 34.0868 222.533C44.4416 220.003 52.5934 212.629 61.16 206.506C93.4775 183.403 137.764 176.574 176.006 188.803C195.995 195.192 214.209 206.365 234.685 211.114C261.163 217.259 288.854 212.163 316.083 211.324C342.603 210.507 380.6 220.867 389.88 244.077Z" fill="#F3F5FD"/>
<path d="M222.589 146.625C222.589 146.625 217.668 144.123 218.767 131.275L208.6 129.467C208.6 129.467 209.745 140.987 204.599 144.644L222.589 146.625Z" fill="#E98862"/>
<g opacity="0.15">
<path d="M206.683 142.238L215.127 136.043L208.494 135.977C208.302 138.154 207.687 140.278 206.683 142.238Z" fill="black"/>
</g>
<path d="M224.536 126.296C223.832 130.194 221.613 133.885 218.027 135.143C214.118 136.631 209.889 137.179 205.709 136.74C194.579 135.865 196.781 111.601 202.064 106.886C207.348 102.171 222.856 105.158 224.742 113.041C225.719 117.118 225.205 122.584 224.536 126.296Z" fill="#E98862"/>
<path d="M198.391 107.724C198.723 107.218 199.188 106.806 199.74 106.529C204.682 103.951 213.842 103.06 218.241 104.322C223.344 105.786 229.744 109.888 228.104 119.835C228.035 120.254 227.96 120.658 227.883 121.056C229.495 120.791 231.152 120.958 232.672 121.536C234.192 122.115 235.516 123.083 236.5 124.336C237.484 125.588 238.089 127.076 238.25 128.636C238.411 130.196 238.121 131.769 237.411 133.182C236.702 134.594 235.601 135.793 234.229 136.645C232.856 137.498 231.266 137.972 229.631 138.015C227.996 138.059 226.381 137.67 224.961 136.891C223.542 136.113 222.373 134.975 221.584 133.602C220.826 134.229 220.009 134.785 219.141 135.264C218.532 135.61 218.385 135.325 218.173 134.68C217.435 132.415 216.71 123.46 217.289 116.957L205.296 116.559L203.206 110.859L201.494 116.559H197.41C196.864 113.469 196.299 109.968 198.391 107.724Z" fill="#0F1011"/>
<path d="M208.615 123.293C209.124 123.293 209.537 122.897 209.537 122.409C209.537 121.921 209.124 121.525 208.615 121.525C208.105 121.525 207.692 121.921 207.692 122.409C207.692 122.897 208.105 123.293 208.615 123.293Z" fill="#0F1011"/>
<path d="M201.34 122.721C201.85 122.721 202.262 122.325 202.262 121.837C202.262 121.348 201.85 120.952 201.34 120.952C200.831 120.952 200.418 121.348 200.418 121.837C200.418 122.325 200.831 122.721 201.34 122.721Z" fill="#0F1011"/>
<path d="M199.742 119.953C199.628 119.954 199.517 119.911 199.435 119.833C199.353 119.756 199.307 119.65 199.306 119.54C199.305 119.43 199.35 119.324 199.431 119.246C199.512 119.167 199.622 119.123 199.737 119.122L202.18 119.093C202.293 119.094 202.402 119.138 202.484 119.214C202.565 119.29 202.613 119.393 202.618 119.502C202.619 119.557 202.608 119.611 202.587 119.662C202.566 119.712 202.535 119.758 202.495 119.798C202.456 119.837 202.408 119.868 202.356 119.889C202.304 119.911 202.247 119.922 202.191 119.923L199.748 119.953H199.742Z" fill="#0F1011"/>
<path d="M210.604 120.807C210.57 120.807 210.536 120.803 210.503 120.796L208.095 120.239C208.039 120.227 207.986 120.204 207.939 120.172C207.892 120.14 207.853 120.1 207.823 120.053C207.792 120.006 207.772 119.954 207.763 119.9C207.754 119.846 207.756 119.79 207.769 119.737C207.783 119.683 207.807 119.633 207.841 119.588C207.875 119.544 207.918 119.507 207.967 119.478C208.016 119.45 208.071 119.431 208.127 119.423C208.184 119.415 208.242 119.418 208.298 119.431L210.706 119.987C210.809 120.011 210.899 120.07 210.96 120.154C211.02 120.237 211.047 120.339 211.034 120.44C211.022 120.541 210.971 120.634 210.892 120.702C210.813 120.769 210.71 120.807 210.604 120.807Z" fill="#0F1011"/>
<path d="M213.409 124.572C213.34 125.555 213.677 126.524 214.347 127.27C215.017 128.017 215.967 128.48 216.991 128.56C218.015 128.64 219.03 128.331 219.818 127.699C220.606 127.067 221.102 126.163 221.2 125.182C221.251 124.69 221.198 124.193 221.045 123.721C220.891 123.249 220.64 122.811 220.306 122.434C219.973 122.057 219.563 121.748 219.102 121.526C218.642 121.304 218.139 121.172 217.624 121.14C214.841 121.059 213.588 122.509 213.409 124.572Z" fill="#E98862"/>
<g opacity="0.15">
<path d="M204.521 127.312C204.49 127.312 204.458 127.308 204.428 127.299L202.209 126.645C202.166 126.632 202.126 126.611 202.092 126.582C202.059 126.554 202.031 126.519 202.013 126.479C201.994 126.44 201.985 126.397 201.985 126.354C201.984 126.311 201.994 126.268 202.012 126.229L203.471 123.113C203.506 123.039 203.57 122.981 203.649 122.953C203.728 122.924 203.815 122.926 203.892 122.96C203.969 122.993 204.029 123.054 204.059 123.13C204.089 123.206 204.087 123.29 204.052 123.363L202.74 126.163L204.616 126.716C204.688 126.738 204.75 126.784 204.79 126.846C204.83 126.907 204.846 126.981 204.835 127.053C204.824 127.125 204.786 127.19 204.729 127.238C204.671 127.286 204.598 127.312 204.522 127.312H204.521Z" fill="black"/>
</g>
<path d="M208.191 129.372C208.191 129.372 204.787 129.716 202.4 128.916C202.4 128.916 202.419 131.066 205.112 131.278C207.805 131.49 208.191 129.372 208.191 129.372Z" fill="white"/>
<path d="M183.415 240.975C182.206 240.781 168.563 238.547 168.563 238.547L170.814 225.917C170.814 225.917 184.414 228.144 185.62 228.338L183.415 240.975Z" fill="#E98862"/>
<path d="M160.782 253.091C160.724 253.431 160.74 253.779 160.829 254.113C160.918 254.447 161.078 254.759 161.298 255.032C161.519 255.304 161.795 255.529 162.111 255.694C162.426 255.859 162.774 255.96 163.132 255.99C163.628 256.032 164.127 255.937 164.569 255.717C165.01 255.497 165.378 255.16 165.627 254.746L173.334 240.862C173.482 240.592 173.568 240.296 173.586 239.992C173.603 239.688 173.552 239.384 173.435 239.101C172.325 236.844 171.999 234.305 172.506 231.857C172.983 229.963 174.005 228.237 175.456 226.873C175.596 226.756 175.699 226.602 175.752 226.43C175.805 226.259 175.806 226.076 175.755 225.904C175.703 225.732 175.602 225.577 175.463 225.458C175.324 225.339 175.152 225.26 174.968 225.231L167.464 224.027C167.242 223.991 167.016 223.998 166.797 224.047C166.579 224.095 166.372 224.185 166.19 224.31C166.007 224.435 165.853 224.594 165.734 224.777C165.616 224.96 165.536 225.163 165.5 225.375L160.782 253.091Z" fill="#C1D8ED"/>
<path d="M225.64 206.813C231.3 207.039 237.065 207.198 242.831 207.334L251.495 207.517L260.149 207.667L261.012 207.682C264.586 207.746 268.002 209.108 270.571 211.492C273.14 213.876 274.67 217.105 274.854 220.529C275.038 223.952 273.861 227.315 271.561 229.94C269.261 232.564 266.009 234.255 262.46 234.671L176.933 244.629L173.451 220.395L258.596 207.792L260.907 234.796L252.12 235.341L243.338 235.85C237.474 236.175 231.608 236.479 225.637 236.714L225.64 206.813Z" fill="#262626"/>
<path d="M247.214 235.668C235.406 234.02 234.229 233.715 233.841 233.618L237.316 221.245C237.277 221.235 237.226 221.221 237.163 221.208C238.131 221.411 244.132 222.29 249.137 222.988L247.214 235.668Z" fill="#E98862"/>
<path d="M261.963 246.682C262.087 247.005 262.14 247.35 262.119 247.694C262.098 248.038 262.003 248.374 261.84 248.681C261.677 248.988 261.45 249.26 261.173 249.48C260.896 249.699 260.575 249.861 260.23 249.956C259.751 250.088 259.243 250.085 258.765 249.949C258.287 249.813 257.86 249.549 257.534 249.189L247.219 236.959C247.021 236.722 246.879 236.447 246.802 236.152C246.725 235.857 246.715 235.55 246.773 235.251C247.417 232.833 247.234 230.28 246.251 227.969C245.409 226.197 244.064 224.688 242.37 223.614C242.208 223.524 242.076 223.392 241.99 223.233C241.904 223.074 241.867 222.895 241.883 222.716C241.899 222.538 241.968 222.368 242.082 222.225C242.195 222.083 242.348 221.974 242.524 221.913L249.651 219.364C249.861 219.289 250.084 219.255 250.308 219.263C250.532 219.271 250.753 219.321 250.957 219.41C251.16 219.5 251.344 219.627 251.496 219.785C251.649 219.943 251.767 220.128 251.845 220.329L261.963 246.682Z" fill="#C1D8ED"/>
<path d="M206.649 234.515C203.065 234.222 199.483 234.011 195.901 233.813C192.319 233.63 188.737 233.447 185.157 233.325L179.786 233.126L174.416 232.978C170.836 232.863 167.257 232.816 163.678 232.751L164.918 208.094C171.619 208.992 178.328 209.818 185.035 210.663C191.742 211.509 198.456 212.288 205.17 213.08L215.245 214.218L225.328 215.302C232.053 215.995 238.78 216.683 245.52 217.251L242.562 241.554C235.867 240.618 229.156 239.803 222.445 238.991L212.373 237.82L202.294 236.703C195.571 235.991 188.85 235.269 182.122 234.609C175.393 233.95 168.665 233.273 161.929 232.668C158.698 232.377 155.702 230.927 153.539 228.609C151.375 226.29 150.205 223.274 150.261 220.164C150.318 217.053 151.597 214.078 153.842 211.833C156.088 209.588 159.135 208.238 162.374 208.055L163.171 208.012C166.745 207.81 170.319 207.628 173.892 207.378L179.252 207.026L184.61 206.625C188.182 206.367 191.754 206.046 195.325 205.729C198.896 205.395 202.467 205.049 206.036 204.621L206.649 234.515Z" fill="#262626"/>
<path d="M238.643 203.07L240.527 233.399L186.124 232.786L190.231 205.935L238.643 203.07Z" fill="#262626"/>
<path d="M186.369 207.977C189.035 213.853 241.426 216.294 242.126 205.958C242.572 199.38 236.526 193.638 236.526 180.819C236.526 167.999 248.828 157.119 238.805 147.509C235.896 144.721 230.876 142.921 224.754 142.915C224.296 146.338 202.621 146.35 202.456 142.994C201.629 143.006 200.986 143.018 200.585 143.037C179.471 143.909 188.749 161.458 188.952 178.384C189.2 198.19 183.62 201.924 186.369 207.977Z" fill="#B0ECFF"/>
<path d="M202.456 142.994C202.621 146.35 204.524 151.286 210.398 151.658C218.225 152.153 224.296 146.338 224.754 142.915H224.735C217.028 142.915 206.949 142.927 202.456 142.994Z" fill="#E98862"/>
<path d="M255.652 201.232C254.012 201.233 252.426 200.676 251.174 199.661L228.929 181.642L236.926 172.565L229.047 156.838L241.554 151.077L261.904 191.699C262.413 192.713 262.645 193.834 262.578 194.958C262.512 196.081 262.149 197.17 261.525 198.122C260.9 199.074 260.034 199.859 259.006 200.403C257.979 200.947 256.825 201.232 255.652 201.232Z" fill="#B0ECFF"/>
<path d="M165.338 205.412C164.163 205.41 163.009 205.112 161.993 204.547C160.977 203.982 160.134 203.17 159.55 202.193C158.965 201.216 158.659 200.109 158.663 198.982C158.667 197.856 158.981 196.751 159.573 195.778L189.108 147.192L200.653 153.646L185.982 177.773L187.209 178.54L170.941 202.5C170.334 203.395 169.504 204.13 168.525 204.638C167.546 205.147 166.451 205.413 165.338 205.412Z" fill="#B0ECFF"/>
<path d="M207.491 188.938C218.226 178.645 230.225 185.235 230.225 185.235V153.758C214.895 150.055 207.491 157.769 207.491 157.769C207.491 157.769 198.574 149.849 184.305 155.609V187.361C184.305 187.361 190.91 183.52 197.5 185.164C204.091 186.808 207.491 188.938 207.491 188.938Z" fill="#9EBCEA"/>
<path d="M236.474 174.072L231.925 179.991C231.925 179.991 221.023 178.691 219.876 169.658C219.744 168.621 220.21 165.237 222.531 166.127C225.834 167.395 228.043 169.287 230.785 171.917C230.088 170.72 229.238 169.031 229.786 168.722C231.227 167.909 235.109 172.813 236.474 174.072Z" fill="#E98862"/>
<path d="M187.704 178.724L180.411 173.147C181.728 171.006 183.555 168.144 184.713 168.535C185.311 168.742 184.815 170.554 184.369 171.86C186.533 168.772 188.486 166.021 191.541 164.581C193.781 163.519 194.767 166.515 194.85 167.558C195.296 173.538 190.809 177.04 187.704 178.724Z" fill="#E98862"/>
<path d="M189.575 180.158L170.566 203.003L160.118 195.01L179.126 172.165L180.411 173.147L187.704 178.724L189.575 180.158Z" fill="#B0ECFF"/>
<path d="M237.883 171.478L228.929 181.641L251.173 199.66L260.127 189.497L237.883 171.478Z" fill="#B0ECFF"/>
<path d="M73.7415 244.078H80.1954L80.1954 183.201H73.7415L73.7415 244.078Z" fill="#C1D8ED"/>
<path d="M79.0531 244.078H85.5071L85.5071 183.201H79.0531L79.0531 244.078Z" fill="#DEE8F5"/>
<path d="M-1.33292 244.078H5.12103L5.12103 183.201H-1.33292L-1.33292 244.078Z" fill="#DEE8F5"/>
<path d="M56.0405 244.078H62.4944L62.4944 183.201H56.0405L56.0405 244.078Z" fill="#C1D8ED"/>
<path d="M61.3522 244.078H67.8062L67.8062 183.201H61.3522L61.3522 244.078Z" fill="#DEE8F5"/>
<path d="M62.4542 144.234H-24.3451V184.66H62.4542V144.234Z" fill="#C1D8ED"/>
<path d="M85.5065 144.234H-1.29282V184.66H85.5065V144.234Z" fill="#DEE8F5"/>
<g opacity="0.53">
<path d="M80.8375 149.981H3.37741V178.735H80.8375V149.981Z" fill="#F3F5FD"/>
</g>
<path d="M42.1075 167.656C44.0074 167.656 45.5476 166.18 45.5476 164.358C45.5476 162.536 44.0074 161.059 42.1075 161.059C40.2075 161.059 38.6673 162.536 38.6673 164.358C38.6673 166.18 40.2075 167.656 42.1075 167.656Z" fill="white"/>
<path d="M137.619 227.961V225.33H122.323V244.075H137.619V240.898C139.408 240.898 141.123 240.216 142.388 239.003C143.653 237.79 144.364 236.145 144.364 234.43C144.364 232.714 143.653 231.069 142.388 229.856C141.123 228.643 139.408 227.962 137.619 227.962V227.961ZM137.619 238.226V230.635C138.143 230.629 138.663 230.722 139.149 230.91C139.636 231.098 140.078 231.377 140.451 231.73C140.824 232.083 141.12 232.504 141.323 232.968C141.525 233.431 141.629 233.929 141.629 234.432C141.629 234.935 141.525 235.432 141.323 235.896C141.12 236.36 140.824 236.781 140.451 237.134C140.078 237.487 139.636 237.766 139.149 237.954C138.663 238.142 138.143 238.235 137.619 238.229V238.226Z" fill="#00677C"/>
<path d="M85.5071 61.58L118.642 61.58V22.9883L85.5071 22.9883V61.58Z" fill="#C1D8ED"/>
<path d="M86.8047 61.58L119.94 61.58V22.9883L86.8047 22.9883V61.58Z" fill="#DEE8F5"/>
<path d="M89.5798 58.9197H117.165V25.6493H89.5798V58.9197Z" fill="white"/>
<path d="M97.1461 47.5467H111.898V30.9981H97.1461V47.5467Z" fill="#C1D8ED"/>
<path d="M97.932 53.5709H97.9327C100.878 53.5709 103.266 51.2814 103.266 48.457V48.4564C103.266 45.6321 100.878 43.3426 97.9327 43.3426H97.932C94.9865 43.3426 92.5987 45.6321 92.5987 48.4564V48.457C92.5987 51.2814 94.9865 53.5709 97.932 53.5709Z" fill="#DEE8F5"/>
<path d="M92.5993 40.4741H104.521V38.2171H92.5993V40.4741Z" fill="#F3F5FD"/>
<path d="M306.287 244.077H347.266V235.18H306.287V244.077Z" fill="#C1D8ED"/>
<path d="M305.583 226.303H346.562V217.406H305.583V226.303Z" fill="#C1D8ED"/>
<path d="M320.271 244.077H363.606V235.18H320.271V244.077Z" fill="#DEE8F5"/>
<g opacity="0.62">
<path d="M323.809 244.077H325.912V235.18H323.809V244.077Z" fill="#C1D8ED"/>
</g>
<g opacity="0.62">
<path d="M328.015 244.077H330.118V235.18H328.015V244.077Z" fill="#C1D8ED"/>
</g>
<path d="M319.567 226.303H362.902V217.406H319.567V226.303Z" fill="#DEE8F5"/>
<path d="M329.871 224.3H360.111V219.41H329.871V224.3Z" fill="#F3F5FD"/>
<g opacity="0.62">
<path d="M323.104 226.303H327.085V217.406H323.104V226.303Z" fill="#C1D8ED"/>
</g>
<path d="M343.924 226.293H302.945V235.191H343.924V226.293Z" fill="#C1D8ED"/>
<path d="M360.264 226.293H316.928V235.191H360.264V226.293Z" fill="#F3F5FD"/>
<path d="M321.897 233.611C323.55 233.611 324.889 232.326 324.889 230.742C324.889 229.157 323.55 227.873 321.897 227.873C320.245 227.873 318.905 229.157 318.905 230.742C318.905 232.326 320.245 233.611 321.897 233.611Z" fill="#DEE8F5"/>
<path d="M328.045 232.923H347.175V228.561H328.045V232.923Z" fill="#DEE8F5"/>
<path d="M303.547 217.495H344.526V208.597H303.547V217.495Z" fill="#C1D8ED"/>
<path d="M302.843 199.721H343.822V190.824H302.843V199.721Z" fill="#C1D8ED"/>
<path d="M317.531 217.495H360.867V208.597H317.531V217.495Z" fill="#DEE8F5"/>
<g opacity="0.62">
<path d="M321.069 217.495H323.172V208.597H321.069V217.495Z" fill="#C1D8ED"/>
</g>
<g opacity="0.62">
<path d="M325.276 217.495H327.379V208.597H325.276V217.495Z" fill="#C1D8ED"/>
</g>
<path d="M316.827 199.721H360.162V190.824H316.827V199.721Z" fill="#DEE8F5"/>
<path d="M327.131 197.717H357.372V192.828H327.131V197.717Z" fill="#F3F5FD"/>
<g opacity="0.62">
<path d="M320.364 199.721H324.345V190.824H320.364V199.721Z" fill="#C1D8ED"/>
</g>
<path d="M341.184 199.711H300.205V208.608H341.184V199.711Z" fill="#C1D8ED"/>
<path d="M357.524 199.711H314.188V208.608H357.524V199.711Z" fill="#F3F5FD"/>
<path d="M319.157 207.029C320.81 207.029 322.149 205.744 322.149 204.16C322.149 202.575 320.81 201.291 319.157 201.291C317.504 201.291 316.165 202.575 316.165 204.16C316.165 205.744 317.504 207.029 319.157 207.029Z" fill="#DEE8F5"/>
<path d="M325.305 206.34H344.434V201.979H325.305V206.34Z" fill="#DEE8F5"/>
</g>
</g>
<defs>
<clipPath id="clip0_107_61">
<rect width="342" height="256" fill="white"/>
</clipPath>
<clipPath id="clip1_107_61">
<rect width="437.76" height="256" fill="white" transform="translate(-47.88)"/>
</clipPath>
</defs>
</svg>
