<svg width="342" height="256" viewBox="0 0 342 256" fill="none" xmlns="http://www.w3.org/2000/svg">
<g clip-path="url(#clip0_107_1752)">
<path d="M137.63 14.473H12.2578V139.845H137.63V14.473Z" fill="#F4F4F4"/>
<path d="M12.2576 14.473H10.8208V139.845H12.2576V14.473Z" fill="#F4F4F4"/>
<path opacity="0.05" d="M12.2576 14.473H10.8208V139.845H12.2576V14.473Z" fill="#292A2E"/>
<path opacity="0.05" d="M42.6295 100.865V68.0635H69.4988V87.1205H111.12V120.863H128.809V139.845H111.12H107.712H18.2886V100.865H42.6295Z" fill="#292A2E"/>
<path opacity="0.34" d="M66.0501 71.6247H46.4836V75.1863H66.0501V71.6247Z" fill="#FFFFFA"/>
<path opacity="0.34" d="M66.0501 79.0049H46.4836V82.5665H66.0501V79.0049Z" fill="#FFFFFA"/>
<path opacity="0.34" d="M66.0501 86.3851H46.4836V89.9468H66.0501V86.3851Z" fill="#FFFFFA"/>
<path opacity="0.34" d="M25.3651 104.322H21.7585V107.884H25.3651V104.322Z" fill="#FFFFFA"/>
<path opacity="0.34" d="M25.3651 111.702H21.7585V115.264H25.3651V111.702Z" fill="#FFFFFA"/>
<path opacity="0.34" d="M25.3651 119.082H21.7585V122.644H25.3651V119.082Z" fill="#FFFFFA"/>
<path opacity="0.34" d="M32.0364 104.322H28.4299V107.884H32.0364V104.322Z" fill="#FFFFFA"/>
<path opacity="0.34" d="M32.0364 111.702H28.4299V115.264H32.0364V111.702Z" fill="#FFFFFA"/>
<path opacity="0.34" d="M32.0364 119.082H28.4299V122.644H32.0364V119.082Z" fill="#FFFFFA"/>
<path opacity="0.34" d="M38.5281 104.322H34.9216V107.884H38.5281V104.322Z" fill="#FFFFFA"/>
<path opacity="0.34" d="M38.5281 111.702H34.9216V115.264H38.5281V111.702Z" fill="#FFFFFA"/>
<path opacity="0.34" d="M38.5281 119.082H34.9216V122.644H38.5281V119.082Z" fill="#FFFFFA"/>
<path d="M12.2578 76.4559H37.4846V14.473H39.571V76.4559H107.712V14.473H109.798V76.4559H137.63V78.5422H109.798V139.845H107.712V78.5422H39.571V139.845H37.4846V78.5422H12.2578V76.4559Z" fill="white"/>
<path d="M142.625 139.694H7.26343V143.863H142.625V139.694Z" fill="#F4F4F4"/>
<path opacity="0.1" d="M142.625 139.694H7.26343V143.863H142.625V139.694Z" fill="#292A2E"/>
<path opacity="0.1" d="M7.26302 139.694H5.30884V143.863H7.26302V139.694Z" fill="#292A2E"/>
<path opacity="0.1" d="M7.26302 139.694H5.30884V143.863H7.26302V139.694Z" fill="#292A2E"/>
<path d="M10.8206 19.8112L137.63 19.8112V16.7113L10.8206 16.7113V19.8112Z" fill="white"/>
<path d="M10.8206 25.6013L137.63 25.6013V22.5013L10.8206 22.5013V25.6013Z" fill="white"/>
<path d="M10.8206 31.3908L137.63 31.3908V28.2908L10.8206 28.2908V31.3908Z" fill="white"/>
<path d="M10.8206 37.1808L137.63 37.1808V34.0809L10.8206 34.0809V37.1808Z" fill="white"/>
<path d="M10.8206 42.9714L137.63 42.9714V39.8714L10.8206 39.8714V42.9714Z" fill="white"/>
<path d="M24.2893 46.4674H26.1897L26.1897 14.4725H24.2893L24.2893 46.4674Z" fill="white"/>
<path d="M25.0784 51.0623C26.5203 51.0623 27.6891 49.8935 27.6891 48.4517C27.6891 47.0098 26.5203 45.841 25.0784 45.841C23.6366 45.841 22.4678 47.0098 22.4678 48.4517C22.4678 49.8935 23.6366 51.0623 25.0784 51.0623Z" fill="white"/>
<path d="M298.979 13.7726H246.227V82.4348H298.979V13.7726Z" fill="#F4F4F4"/>
<path d="M298.978 82.4348H300.689V13.7725H298.978V82.4348Z" fill="#F4F4F4"/>
<path opacity="0.05" d="M298.978 82.4348H300.689V13.7725H298.978V82.4348Z" fill="#292A2E"/>
<path opacity="0.05" d="M289.369 26.2799H255.836V69.9269H289.369V26.2799Z" fill="#292A2E"/>
<path opacity="0.03" d="M289.369 26.2799H287.622V69.9269H289.369V26.2799Z" fill="#292A2E"/>
<path d="M342.121 99.3201H298.979V142.859H342.121V99.3201Z" fill="#F4F4F4"/>
<path opacity="0.05" d="M334.262 107.251H306.837V134.927H334.262V107.251Z" fill="#292A2E"/>
<path opacity="0.03" d="M334.262 107.251H332.514V134.927H334.262V107.251Z" fill="#292A2E"/>
<path d="M290.671 0.462372L273.764 23.1209V215.93C273.764 217.753 273.04 219.501 271.751 220.789C270.463 222.078 268.715 222.802 266.893 222.802H131.334C130.432 222.802 129.538 222.624 128.705 222.279C127.871 221.933 127.114 221.427 126.476 220.789C125.838 220.151 125.331 219.394 124.986 218.56C124.641 217.726 124.463 216.833 124.463 215.93V19.0266C124.463 14.1032 126.419 9.38134 129.901 5.89989C133.382 2.41843 138.104 0.462503 143.027 0.462372H290.671Z" fill="white"/>
<path d="M266.893 223.169H131.334C129.415 223.167 127.575 222.403 126.217 221.046C124.86 219.689 124.096 217.85 124.093 215.93V19.0265C124.099 14.0066 126.095 9.19395 129.645 5.64435C133.194 2.09475 138.007 0.0980596 143.027 0.0923157L290.67 0.0923157C290.739 0.0924979 290.806 0.11174 290.864 0.147895C290.923 0.18405 290.97 0.235697 291.001 0.297076C291.031 0.358455 291.044 0.427152 291.038 0.495507C291.032 0.563861 291.007 0.629185 290.966 0.684193L274.134 23.2436V215.93C274.131 217.85 273.367 219.689 272.009 221.046C270.652 222.403 268.812 223.167 266.893 223.169ZM143.027 0.832163C138.203 0.837646 133.579 2.7563 130.168 6.16721C126.757 9.57812 124.838 14.2027 124.833 19.0265V215.93C124.835 217.654 125.521 219.306 126.74 220.525C127.958 221.743 129.61 222.429 131.334 222.432H266.893C268.616 222.429 270.268 221.743 271.487 220.525C272.706 219.306 273.391 217.654 273.394 215.93V23.1208C273.394 23.041 273.42 22.9633 273.467 22.8993L289.932 0.832163H143.027Z" fill="#292A2E"/>
<path opacity="0.3" d="M246.062 25.0597H152.045C151.741 25.0597 151.494 25.3064 151.494 25.6106V26.5113C151.494 26.8155 151.741 27.0622 152.045 27.0622H246.062C246.366 27.0622 246.613 26.8155 246.613 26.5113V25.6106C246.613 25.3064 246.366 25.0597 246.062 25.0597Z" fill="#262626"/>
<path d="M273.677 17.3689C273.677 12.885 275.458 8.58478 278.629 5.4142C281.8 2.24362 286.1 0.462402 290.584 0.462402C295.068 0.462402 299.368 2.24362 302.538 5.4142C305.709 8.58478 307.49 12.885 307.49 17.3689V31.6425H273.677V17.3689Z" fill="white"/>
<path d="M307.49 32.0123H273.677C273.579 32.0123 273.485 31.9733 273.415 31.9039C273.346 31.8346 273.307 31.7405 273.307 31.6423V17.3687C273.295 15.0922 273.733 12.8358 274.596 10.729C275.458 8.62231 276.729 6.70688 278.334 5.09283C279.94 3.47877 281.849 2.19794 283.951 1.32393C286.053 0.449932 288.307 0 290.583 0C292.86 0 295.114 0.449932 297.216 1.32393C299.318 2.19794 301.227 3.47877 302.832 5.09283C304.438 6.70688 305.708 8.62231 306.571 10.729C307.434 12.8358 307.872 15.0922 307.859 17.3687V31.6423C307.859 31.7405 307.82 31.8346 307.751 31.9039C307.682 31.9733 307.588 32.0123 307.49 32.0123ZM274.048 31.2724H307.121V17.3687C307.133 15.1895 306.714 13.0295 305.888 11.0128C305.063 8.99605 303.847 7.16241 302.31 5.61727C300.773 4.07213 298.946 2.84597 296.934 2.00927C294.922 1.17257 292.764 0.741845 290.585 0.741845C288.406 0.741845 286.248 1.17257 284.236 2.00927C282.223 2.84597 280.396 4.07213 278.86 5.61727C277.323 7.16241 276.107 8.99605 275.281 11.0128C274.456 13.0295 274.037 15.1895 274.048 17.3687V31.2724Z" fill="#292A2E"/>
<path opacity="0.3" d="M261.108 67.0997H197.348C197.094 67.0997 196.888 67.3055 196.888 67.5594V67.5599C196.888 67.8138 197.094 68.0196 197.348 68.0196H261.108C261.362 68.0196 261.568 67.8138 261.568 67.5599V67.5594C261.568 67.3055 261.362 67.0997 261.108 67.0997Z" fill="#262626"/>
<path opacity="0.3" d="M261.108 60.5684H197.348C197.094 60.5684 196.888 60.7742 196.888 61.0281V61.0286C196.888 61.2825 197.094 61.4883 197.348 61.4883H261.108C261.362 61.4883 261.568 61.2825 261.568 61.0286V61.0281C261.568 60.7742 261.362 60.5684 261.108 60.5684Z" fill="#262626"/>
<path opacity="0.3" d="M261.108 54.0365H197.348C197.094 54.0365 196.888 54.2423 196.888 54.4962V54.4967C196.888 54.7506 197.094 54.9564 197.348 54.9564H261.108C261.362 54.9564 261.568 54.7506 261.568 54.4967V54.4962C261.568 54.2423 261.362 54.0365 261.108 54.0365Z" fill="#262626"/>
<path opacity="0.3" d="M261.108 47.5052H197.348C197.094 47.5052 196.888 47.711 196.888 47.9648V47.9653C196.888 48.2192 197.094 48.425 197.348 48.425H261.108C261.362 48.425 261.568 48.2192 261.568 47.9653V47.9648C261.568 47.711 261.362 47.5052 261.108 47.5052Z" fill="#262626"/>
<path opacity="0.3" d="M261.108 40.9447H197.348C197.094 40.9447 196.888 41.1505 196.888 41.4044V41.4049C196.888 41.6588 197.094 41.8646 197.348 41.8646H261.108C261.362 41.8646 261.568 41.6588 261.568 41.4049V41.4044C261.568 41.1505 261.362 40.9447 261.108 40.9447Z" fill="#262626"/>
<path opacity="0.3" d="M234.747 73.6311H197.348C197.094 73.6311 196.888 73.8369 196.888 74.0908V74.0913C196.888 74.3452 197.094 74.551 197.348 74.551H234.747C235.001 74.551 235.206 74.3452 235.206 74.0913V74.0908C235.206 73.8369 235.001 73.6311 234.747 73.6311Z" fill="#262626"/>
<path opacity="0.9" d="M186.974 35.6952H138.048C137.215 35.6952 136.539 36.3707 136.539 37.204V77.3096C136.539 78.1429 137.215 78.8184 138.048 78.8184H186.974C187.808 78.8184 188.483 78.1429 188.483 77.3096V37.204C188.483 36.3707 187.808 35.6952 186.974 35.6952Z" fill="#0CBC8B"/>
<path opacity="0.8" d="M154.655 52.8118C156.731 52.8118 158.414 51.1291 158.414 49.0534C158.414 46.9777 156.731 45.295 154.655 45.295C152.579 45.295 150.897 46.9777 150.897 49.0534C150.897 51.1291 152.579 52.8118 154.655 52.8118Z" fill="white"/>
<path opacity="0.5" d="M159.831 66.6262L170.727 54.471C171.407 53.7124 172.359 53.2525 173.376 53.191C174.393 53.1295 175.394 53.4714 176.161 54.1425L188.483 64.9315V78.8179H173.588" fill="white"/>
<path opacity="0.8" d="M173.588 78.8179L149.962 57.8803C149.264 57.2617 148.366 56.916 147.433 56.907C146.5 56.8979 145.595 57.226 144.885 57.831L136.54 64.9335V78.8199" fill="white"/>
<path opacity="0.3" d="M261.065 110.254H137.043C136.789 110.254 136.583 110.46 136.583 110.714V110.714C136.583 110.968 136.789 111.174 137.043 111.174H261.065C261.319 111.174 261.524 110.968 261.524 110.714V110.714C261.524 110.46 261.319 110.254 261.065 110.254Z" fill="#262626"/>
<path opacity="0.3" d="M261.065 103.723H137.043C136.789 103.723 136.583 103.928 136.583 104.182V104.183C136.583 104.437 136.789 104.643 137.043 104.643H261.065C261.319 104.643 261.524 104.437 261.524 104.183V104.182C261.524 103.928 261.319 103.723 261.065 103.723Z" fill="#262626"/>
<path opacity="0.3" d="M261.065 97.1908H137.043C136.789 97.1908 136.583 97.3966 136.583 97.6505V97.651C136.583 97.9049 136.789 98.1107 137.043 98.1107H261.065C261.319 98.1107 261.524 97.9049 261.524 97.651V97.6505C261.524 97.3966 261.319 97.1908 261.065 97.1908Z" fill="#262626"/>
<path opacity="0.3" d="M261.065 90.6595H137.043C136.789 90.6595 136.583 90.8653 136.583 91.1191V91.1196C136.583 91.3735 136.789 91.5793 137.043 91.5793H261.065C261.319 91.5793 261.524 91.3735 261.524 91.1196V91.1191C261.524 90.8653 261.319 90.6595 261.065 90.6595Z" fill="#262626"/>
<path opacity="0.3" d="M174.442 116.786H137.043C136.789 116.786 136.583 116.992 136.583 117.246V117.246C136.583 117.5 136.789 117.706 137.043 117.706H174.442C174.696 117.706 174.902 117.5 174.902 117.246V117.246C174.902 116.992 174.696 116.786 174.442 116.786Z" fill="#262626"/>
<path opacity="0.3" d="M261.065 147.92H137.043C136.789 147.92 136.583 148.125 136.583 148.379V148.38C136.583 148.634 136.789 148.84 137.043 148.84H261.065C261.319 148.84 261.524 148.634 261.524 148.38V148.379C261.524 148.125 261.319 147.92 261.065 147.92Z" fill="#262626"/>
<path opacity="0.3" d="M261.065 141.388H137.043C136.789 141.388 136.583 141.594 136.583 141.848V141.848C136.583 142.102 136.789 142.308 137.043 142.308H261.065C261.319 142.308 261.524 142.102 261.524 141.848V141.848C261.524 141.594 261.319 141.388 261.065 141.388Z" fill="#262626"/>
<path opacity="0.3" d="M261.065 134.856H137.043C136.789 134.856 136.583 135.062 136.583 135.316V135.317C136.583 135.571 136.789 135.776 137.043 135.776H261.065C261.319 135.776 261.524 135.571 261.524 135.317V135.316C261.524 135.062 261.319 134.856 261.065 134.856Z" fill="#262626"/>
<path opacity="0.3" d="M261.065 128.325H137.043C136.789 128.325 136.583 128.531 136.583 128.785V128.785C136.583 129.039 136.789 129.245 137.043 129.245H261.065C261.319 129.245 261.524 129.039 261.524 128.785V128.785C261.524 128.531 261.319 128.325 261.065 128.325Z" fill="#262626"/>
<path opacity="0.3" d="M174.442 154.451H137.043C136.789 154.451 136.583 154.657 136.583 154.911V154.911C136.583 155.165 136.789 155.371 137.043 155.371H174.442C174.696 155.371 174.902 155.165 174.902 154.911V154.911C174.902 154.657 174.696 154.451 174.442 154.451Z" fill="#262626"/>
<path d="M322.752 249.408C322.812 249.408 322.871 249.391 322.922 249.359C322.973 249.328 323.014 249.282 323.04 249.228L331.474 231.925C331.509 231.849 331.512 231.763 331.484 231.684C331.455 231.606 331.398 231.542 331.323 231.505C331.248 231.469 331.162 231.463 331.083 231.489C331.004 231.515 330.938 231.571 330.899 231.644L322.465 248.948C322.441 248.997 322.43 249.05 322.433 249.105C322.436 249.159 322.452 249.211 322.481 249.257C322.51 249.303 322.55 249.341 322.597 249.368C322.644 249.394 322.698 249.408 322.752 249.408Z" fill="#292A2E"/>
<path d="M308.491 248.404C308.562 248.404 308.63 248.38 308.686 248.337C308.742 248.294 308.782 248.233 308.8 248.165L318.562 210.894C318.573 210.853 318.576 210.811 318.57 210.769C318.564 210.728 318.55 210.688 318.529 210.652C318.508 210.615 318.48 210.584 318.446 210.558C318.413 210.533 318.375 210.514 318.334 210.504C318.294 210.493 318.251 210.49 318.21 210.496C318.168 210.502 318.128 210.516 318.092 210.537C318.056 210.558 318.024 210.586 317.998 210.62C317.973 210.653 317.955 210.691 317.944 210.732L308.181 248.003C308.16 248.085 308.172 248.172 308.215 248.245C308.257 248.319 308.328 248.372 308.41 248.393C308.436 248.4 308.464 248.404 308.491 248.404Z" fill="#292A2E"/>
<path d="M289.868 250.054C289.92 250.054 289.972 250.041 290.019 250.016C290.066 249.991 290.105 249.955 290.135 249.911C290.164 249.867 290.182 249.817 290.187 249.764C290.192 249.711 290.184 249.658 290.164 249.61L280.071 225.844C280.038 225.766 279.975 225.704 279.897 225.673C279.818 225.641 279.73 225.642 279.652 225.675C279.574 225.708 279.512 225.771 279.48 225.849C279.448 225.928 279.449 226.016 279.482 226.094L289.574 249.861C289.599 249.918 289.64 249.967 289.692 250.001C289.744 250.035 289.805 250.054 289.868 250.054Z" fill="#292A2E"/>
<path d="M308.129 255.56C308.155 255.56 308.182 255.557 308.207 255.551C308.289 255.53 308.36 255.477 308.404 255.405C308.447 255.332 308.46 255.245 308.44 255.162L296.713 208.251C296.703 208.211 296.685 208.172 296.66 208.138C296.635 208.105 296.604 208.076 296.568 208.055C296.531 208.033 296.492 208.019 296.45 208.013C296.408 208.006 296.366 208.008 296.325 208.019C296.285 208.029 296.246 208.047 296.213 208.072C296.179 208.097 296.15 208.128 296.129 208.164C296.107 208.201 296.093 208.24 296.087 208.282C296.081 208.324 296.083 208.366 296.093 208.407L307.819 255.318C307.836 255.387 307.876 255.448 307.932 255.492C307.989 255.536 308.058 255.56 308.129 255.56Z" fill="#292A2E"/>
<path d="M303.971 217.864C307.153 211.176 305.077 203.54 299.334 200.808C293.591 198.076 286.357 201.284 283.175 207.972C279.994 214.66 282.07 222.297 287.813 225.028C293.555 227.76 300.79 224.553 303.971 217.864Z" fill="#0CBC8B"/>
<path opacity="0.4" d="M303.971 217.864C307.153 211.176 305.077 203.54 299.334 200.808C293.591 198.076 286.357 201.284 283.175 207.972C279.994 214.66 282.07 222.297 287.813 225.028C293.555 227.76 300.79 224.553 303.971 217.864Z" fill="white"/>
<path d="M284.235 233.306C285.895 229.185 284.441 224.718 280.988 223.327C277.535 221.936 273.391 224.149 271.731 228.27C270.072 232.39 271.526 236.858 274.979 238.248C278.431 239.639 282.576 237.426 284.235 233.306Z" fill="#0CBC8B"/>
<path d="M324.922 228.018C330.051 226.463 332.661 220.098 330.752 213.804C328.842 207.509 323.137 203.667 318.008 205.223C312.878 206.778 310.268 213.142 312.178 219.437C314.087 225.732 319.793 229.574 324.922 228.018Z" fill="#0CBC8B"/>
<path d="M333.609 241.414C336.472 240.935 338.245 237.28 337.571 233.252C336.897 229.223 334.03 226.345 331.168 226.824C328.305 227.303 326.531 230.957 327.206 234.986C327.88 239.015 330.747 241.893 333.609 241.414Z" fill="#0CBC8B"/>
<path d="M280.456 256H330.268V243.587H280.456V256Z" fill="#292A2E"/>
<path opacity="0.3" d="M280.456 256H330.268V243.587H280.456V256Z" fill="white"/>
<path d="M304.066 240.468C306.091 235.442 304.302 229.985 300.07 228.281C295.838 226.577 290.767 229.27 288.742 234.296C286.718 239.323 288.507 244.779 292.739 246.484C296.97 248.188 302.042 245.495 304.066 240.468Z" fill="#0CBC8B"/>
<path d="M315.121 245.237C319.336 245.237 322.753 241.821 322.753 237.606C322.753 233.391 319.336 229.975 315.121 229.975C310.907 229.975 307.49 233.391 307.49 237.606C307.49 241.821 310.907 245.237 315.121 245.237Z" fill="#0CBC8B"/>
<path opacity="0.68" d="M284.235 233.306C285.895 229.185 284.441 224.718 280.988 223.327C277.535 221.936 273.391 224.149 271.731 228.27C270.072 232.39 271.526 236.858 274.979 238.248C278.431 239.639 282.576 237.426 284.235 233.306Z" fill="white"/>
<path opacity="0.68" d="M324.922 228.018C330.051 226.463 332.661 220.098 330.752 213.804C328.842 207.509 323.137 203.667 318.008 205.223C312.878 206.778 310.268 213.142 312.178 219.437C314.087 225.732 319.793 229.574 324.922 228.018Z" fill="white"/>
<path opacity="0.68" d="M333.609 241.414C336.472 240.935 338.245 237.28 337.571 233.252C336.897 229.223 334.03 226.345 331.168 226.824C328.305 227.303 326.531 230.957 327.206 234.986C327.88 239.015 330.747 241.893 333.609 241.414Z" fill="white"/>
<path opacity="0.68" d="M304.066 240.468C306.091 235.442 304.302 229.985 300.07 228.281C295.838 226.577 290.767 229.27 288.742 234.296C286.718 239.323 288.507 244.779 292.739 246.484C296.97 248.188 302.042 245.495 304.066 240.468Z" fill="white"/>
<path opacity="0.4" d="M315.121 245.237C319.336 245.237 322.753 241.821 322.753 237.606C322.753 233.391 319.336 229.975 315.121 229.975C310.907 229.975 307.49 233.391 307.49 237.606C307.49 241.821 310.907 245.237 315.121 245.237Z" fill="white"/>
<path d="M290.608 231.182C296.4 232.8 299.448 228.066 299.448 228.066L299.445 228.06C296.357 227.139 292.931 228.434 290.608 231.182Z" fill="#292A2E"/>
<path d="M327.196 233.12C330.047 232.028 332.41 229.946 333.852 227.254C333.071 226.837 332.175 226.685 331.3 226.822C328.888 227.225 327.25 229.883 327.196 233.12Z" fill="#292A2E"/>
<path d="M313.759 230.097C315.981 232.099 318.756 233.38 321.72 233.773C320.931 232.417 319.744 231.336 318.319 230.679C316.895 230.021 315.303 229.818 313.759 230.097Z" fill="#292A2E"/>
<path d="M348.615 255.886H6.28693C6.15612 255.886 6.03066 255.834 5.93816 255.741C5.84567 255.649 5.7937 255.523 5.7937 255.392C5.7937 255.261 5.84567 255.136 5.93816 255.044C6.03066 254.951 6.15612 254.899 6.28693 254.899H348.615C348.745 254.899 348.871 254.951 348.963 255.044C349.056 255.136 349.108 255.261 349.108 255.392C349.108 255.523 349.056 255.649 348.963 255.741C348.871 255.834 348.745 255.886 348.615 255.886Z" fill="#292A2E"/>
<path d="M189.002 99.1973L182.733 111.859L182.835 109.942C182.856 109.323 182.641 108.719 182.234 108.252C181.827 107.785 181.257 107.49 180.64 107.427C180.321 107.405 180.001 107.449 179.699 107.556C179.397 107.662 179.121 107.829 178.885 108.046C178.65 108.263 178.462 108.525 178.332 108.817C178.201 109.109 178.132 109.425 178.128 109.745L177.733 133.465L185.332 133.783C187.692 133.882 190.028 133.274 192.041 132.036C194.053 130.799 195.65 128.989 196.627 126.838L201.034 117.088C201.273 116.585 201.331 116.016 201.198 115.476C201.065 114.936 200.75 114.458 200.305 114.124C199.898 113.831 199.407 113.675 198.905 113.681C198.403 113.686 197.916 113.851 197.515 114.153C197.496 114.12 197.468 114.092 197.435 114.073C197.403 114.056 197.367 114.048 197.331 114.048C197.295 114.049 197.26 114.059 197.229 114.077L198.045 112.28C198.312 111.721 198.358 111.081 198.172 110.49C197.986 109.899 197.583 109.401 197.044 109.096C196.552 108.84 195.986 108.766 195.446 108.887C194.905 109.007 194.424 109.314 194.087 109.754C194.078 109.731 194.065 109.709 194.048 109.691L194.384 108.951C194.622 108.449 194.68 107.879 194.548 107.339C194.415 106.799 194.1 106.322 193.655 105.988C193.161 105.631 192.548 105.48 191.944 105.567C191.341 105.653 190.794 105.969 190.42 106.45C190.404 106.444 190.389 106.44 190.373 106.437L192.983 101.164C193.245 100.636 193.286 100.026 193.098 99.4672C192.91 98.9089 192.507 98.4483 191.979 98.1866C191.451 97.925 190.841 97.8838 190.283 98.0722C189.724 98.2605 189.264 98.6629 189.002 99.1909V99.1973Z" fill="#E98862"/>
<path opacity="0.2" d="M190.56 106.685C190.557 106.711 190.549 106.735 190.538 106.758L187.943 111.851C187.93 111.877 187.911 111.9 187.889 111.918C187.867 111.937 187.842 111.952 187.814 111.961C187.786 111.97 187.757 111.973 187.728 111.971C187.699 111.969 187.671 111.961 187.645 111.948C187.619 111.934 187.596 111.916 187.577 111.894C187.558 111.872 187.544 111.846 187.535 111.819C187.526 111.791 187.523 111.762 187.525 111.733C187.527 111.704 187.535 111.676 187.548 111.65L190.143 106.557C190.167 106.511 190.206 106.475 190.254 106.455C190.302 106.434 190.355 106.432 190.405 106.447C190.455 106.462 190.497 106.494 190.526 106.538C190.554 106.581 190.566 106.633 190.56 106.685H190.56Z" fill="#0A0A0A"/>
<path opacity="0.2" d="M194.104 109.857C194.101 109.882 194.094 109.906 194.083 109.929L192.074 113.947C192.062 113.975 192.045 114 192.023 114.021C192.001 114.041 191.975 114.058 191.947 114.068C191.919 114.078 191.889 114.083 191.859 114.081C191.829 114.079 191.799 114.072 191.772 114.058C191.745 114.045 191.721 114.026 191.702 114.003C191.683 113.98 191.668 113.953 191.66 113.924C191.651 113.895 191.648 113.865 191.652 113.835C191.655 113.805 191.665 113.776 191.68 113.75L193.688 109.732C193.711 109.685 193.75 109.648 193.798 109.627C193.846 109.606 193.9 109.603 193.95 109.618C194 109.633 194.043 109.666 194.071 109.709C194.1 109.753 194.112 109.806 194.105 109.857L194.104 109.857Z" fill="#0A0A0A"/>
<path opacity="0.2" d="M197.551 114.298C197.547 114.325 197.539 114.351 197.527 114.375L196.533 116.25C196.52 116.276 196.502 116.3 196.48 116.32C196.457 116.34 196.431 116.355 196.403 116.364C196.375 116.373 196.345 116.377 196.315 116.374C196.285 116.372 196.256 116.363 196.23 116.349C196.204 116.335 196.181 116.316 196.162 116.293C196.143 116.27 196.129 116.243 196.121 116.214C196.113 116.186 196.11 116.156 196.114 116.126C196.118 116.097 196.127 116.068 196.142 116.042L197.135 114.167C197.16 114.122 197.199 114.086 197.247 114.066C197.295 114.047 197.348 114.045 197.397 114.06C197.447 114.076 197.489 114.108 197.517 114.151C197.545 114.195 197.557 114.247 197.551 114.298Z" fill="#0A0A0A"/>
<path d="M173.948 117.705L155.359 171.024L125.148 131.516L96.8796 155.135L149.105 210.905C150.962 213.027 153.349 214.619 156.021 215.52C158.693 216.42 161.556 216.597 164.319 216.032C167.082 215.466 169.646 214.18 171.75 212.302C173.854 210.424 175.423 208.023 176.298 205.342L201.753 126.83L173.948 117.705Z" fill="#B0ECFF"/>
<path d="M8.97257 232.168C6.38165 232.168 3.82907 231.542 1.53215 230.343C-0.764765 229.145 -2.73799 227.409 -4.21952 225.283C-5.70105 223.158 -6.647 220.705 -6.97684 218.136C-7.30667 215.566 -7.01062 212.954 -6.1139 210.524C-5.20388 208.057 16.2172 149.962 20.2784 139.494L50.2634 151.128C47.9803 157.013 39.7083 179.321 33.0595 197.294L44.102 196.094L47.5783 228.068L10.7127 232.074C10.1348 232.137 9.55389 232.168 8.97257 232.168Z" fill="#B0ECFF"/>
<path d="M28.244 230.526L23.3403 254.934H118.584L113.099 230.061L28.244 230.526Z" fill="#262626"/>
<path d="M48.8375 121.446C40.8797 122.038 32.7656 124.622 26.7901 129.911C17.7782 137.888 18.5802 142.874 23.079 164.966C26.9499 183.974 25.414 192.28 28.0034 227.355C28.0799 228.391 28.2431 230.526 28.2431 230.526L113.368 230.384C113.368 230.384 121.343 183.849 125.748 162.385C129.097 146.067 137.893 126.258 100.805 122.266C100.708 122.255 70.9624 119.804 48.8375 121.446Z" fill="#B0ECFF"/>
<path d="M100.805 122.266C100.707 122.253 98.0046 132.421 76.919 130.839C62.3193 129.745 58.7621 119.809 58.4277 119.809C60.0016 119.474 62.5571 119.127 63.2565 118.754C65.5549 117.521 67.2295 116.015 68.0719 112.789C68.7313 110.265 69.0672 100.552 69.0672 95.6781L91.5295 100.725C91.2163 106.223 89.0248 118.968 96.7054 121.224C97.9834 121.598 99.36 121.942 100.805 122.266Z" fill="#E98862"/>
<path d="M90.7504 111.535C81.8954 112.234 70.52 108.495 68.3577 96.6808L66.4079 86.0206C64.2476 74.2062 68.7009 63.4937 79.8238 61.4577C90.9477 59.4231 101.014 67.48 103.175 79.2944L104.038 84.0141C104.871 88.5489 106.552 110.289 90.7504 111.535Z" fill="#E98862"/>
<path d="M98.9632 100.688C97.3735 92.7019 96.645 87.3711 96.7294 81.7517C98.9681 77.8246 98.3797 73.3174 97.8707 71.3697C100.065 72.5667 100.982 72.6974 103.05 72.6974C103.05 72.6974 99.3469 57.8379 86.7621 53.8392C84.4484 52.9386 78.54 51.8012 70.6946 52.8769C64.0217 53.7924 47.5734 58.7814 45.2237 77.2993V77.3096C45.1457 77.9237 43.5664 94.9856 40.4181 103.171C36.1852 114.176 30.2428 117.595 30.3937 130.292C30.5875 146.623 60.612 148.798 78.7215 147.576C96.831 146.354 106.94 140.399 107.071 128.629C107.215 115.442 102.144 116.667 98.9632 100.688Z" fill="#0A0A0A"/>
<path d="M98.968 93.9937C95.5879 94.6117 92.1861 91.4964 91.5695 88.1158C90.953 84.7352 93.3506 82.3702 96.7312 81.7531L98.968 93.9937Z" fill="#E98862"/>
<path d="M121.81 183.854C121.796 183.853 121.783 183.852 121.77 183.85C121.742 183.844 121.716 183.834 121.692 183.819C121.668 183.803 121.648 183.783 121.632 183.76C121.616 183.737 121.605 183.711 121.599 183.683C121.594 183.656 121.593 183.627 121.598 183.6L125.168 161.24C125.181 161.186 125.213 161.139 125.26 161.109C125.306 161.079 125.362 161.068 125.417 161.078C125.471 161.088 125.52 161.119 125.552 161.164C125.584 161.209 125.597 161.265 125.589 161.32L122.021 183.679C122.012 183.728 121.986 183.773 121.947 183.805C121.908 183.837 121.86 183.854 121.81 183.854Z" fill="#0C0C0C"/>
<path d="M28.2442 230.741C28.1888 230.741 28.1356 230.719 28.0957 230.681C28.0558 230.642 28.0323 230.59 28.0301 230.534L25.3627 161.288C25.3605 161.231 25.3808 161.176 25.4194 161.134C25.458 161.092 25.5116 161.068 25.5684 161.065C25.6245 161.066 25.6784 161.087 25.7196 161.125C25.7608 161.163 25.7862 161.215 25.7908 161.271L28.4587 230.518C28.4609 230.575 28.4404 230.63 28.4017 230.672C28.3631 230.714 28.3094 230.738 28.2526 230.741H28.2442Z" fill="#0C0C0C"/>
</g>
<defs>
<clipPath id="clip0_107_1752">
<rect width="342" height="256" fill="white"/>
</clipPath>
</defs>
</svg>
