<svg width="342" height="256" viewBox="0 0 342 256" fill="none" xmlns="http://www.w3.org/2000/svg">
<g clip-path="url(#clip0_107_1289)">
<path d="M28.6954 256C24.0013 256.004 19.4203 254.56 15.5782 251.863C11.7361 249.166 8.82021 245.349 7.22891 240.933C4.24653 232.625 -10.0366 185.96 49.1379 146.031C107.194 106.855 83.0499 52.0335 156.722 41.6283C233.389 37.1556 244.33 93.1995 278.301 142.242C297.991 170.669 334.987 190.778 337.814 225.155C341.43 247.076 328.543 256.009 315.709 256.001C243.956 255.953 28.6954 256 28.6954 256Z" fill="#F3F5FD"/>
<path d="M240.141 0H97.4513V185.103H240.141V0Z" fill="#DEE8F5"/>
<path d="M229.874 9.61179H107.718V73.6417H229.874V9.61179Z" fill="#C1D8ED"/>
<path d="M121.03 27.9334H115.643V65.3398H121.03V27.9334Z" fill="white"/>
<path d="M151.266 31.6482H145.879V65.339H151.266V31.6482Z" fill="white"/>
<path d="M131.109 20.0166H125.722V65.3391H131.109V20.0166Z" fill="white"/>
<path d="M141.187 36.8061H135.8V65.3394H141.187V36.8061Z" fill="white"/>
<path d="M161.344 26.1086H155.957V65.3394H161.344V26.1086Z" fill="white"/>
<path d="M171.423 22.9455H166.036V65.3391H171.423V22.9455Z" fill="white"/>
<path d="M181.501 36.8061H176.114V65.3394H181.501V36.8061Z" fill="white"/>
<path d="M191.58 27.9334H186.193V65.3398H191.58V27.9334Z" fill="white"/>
<path d="M221.815 31.6482H216.428V65.339H221.815V31.6482Z" fill="white"/>
<path d="M201.658 20.0166H196.271V65.3391H201.658V20.0166Z" fill="white"/>
<path d="M211.737 36.8061H206.35V65.3394H211.737V36.8061Z" fill="white"/>
<path d="M117.569 100.995C122.584 100.995 126.649 96.93 126.649 91.9155C126.649 86.9009 122.584 82.8358 117.569 82.8358C112.555 82.8358 108.49 86.9009 108.49 91.9155C108.49 96.93 112.555 100.995 117.569 100.995Z" fill="white"/>
<path d="M229.102 85.8538H134.634V89.8421H229.102V85.8538Z" fill="white"/>
<path d="M163.846 93.4345H134.634V97.4229H163.846V93.4345Z" fill="white"/>
<path d="M115.992 96.5932C115.732 96.593 115.482 96.4937 115.294 96.3155L111.802 93.0221C111.608 92.8363 111.496 92.5814 111.489 92.3131C111.483 92.0447 111.582 91.7846 111.766 91.5894C111.951 91.3942 112.205 91.2796 112.473 91.2707C112.741 91.2619 113.002 91.3593 113.199 91.542L115.936 94.1243L121.882 87.5712C121.971 87.4693 122.079 87.3862 122.201 87.3266C122.322 87.2671 122.455 87.2324 122.59 87.2246C122.725 87.2167 122.86 87.2358 122.987 87.2808C123.115 87.3259 123.232 87.3959 123.332 87.4867C123.433 87.5776 123.514 87.6876 123.571 87.8101C123.628 87.9327 123.66 88.0654 123.665 88.2006C123.671 88.3357 123.649 88.4706 123.602 88.5973C123.554 88.7239 123.482 88.8399 123.389 88.9383L116.745 96.2597C116.654 96.3599 116.544 96.4409 116.422 96.4981C116.299 96.5553 116.166 96.5875 116.031 96.5928L115.992 96.5932Z" fill="#C1D8ED"/>
<path d="M117.569 125.354C122.584 125.354 126.649 121.289 126.649 116.275C126.649 111.26 122.584 107.195 117.569 107.195C112.555 107.195 108.49 111.26 108.49 116.275C108.49 121.289 112.555 125.354 117.569 125.354Z" fill="white"/>
<path d="M229.102 110.213H134.634V114.202H229.102V110.213Z" fill="white"/>
<path d="M163.846 117.794H134.634V121.782H163.846V117.794Z" fill="white"/>
<path d="M115.992 120.953C115.732 120.953 115.483 120.854 115.294 120.676L111.802 117.382C111.608 117.196 111.496 116.942 111.489 116.673C111.483 116.405 111.582 116.145 111.766 115.95C111.951 115.754 112.205 115.64 112.473 115.631C112.741 115.622 113.002 115.719 113.199 115.902L115.936 118.484L121.882 111.932C121.971 111.83 122.079 111.747 122.201 111.687C122.322 111.628 122.455 111.593 122.59 111.585C122.725 111.577 122.86 111.596 122.987 111.641C123.115 111.686 123.232 111.756 123.332 111.847C123.433 111.938 123.514 112.048 123.571 112.171C123.628 112.293 123.66 112.426 123.665 112.561C123.671 112.696 123.649 112.831 123.602 112.958C123.554 113.084 123.482 113.2 123.389 113.299L116.746 120.62C116.655 120.72 116.545 120.801 116.423 120.858C116.3 120.915 116.167 120.948 116.032 120.953H115.992Z" fill="#C1D8ED"/>
<path d="M117.569 149.714C122.584 149.714 126.649 145.649 126.649 140.634C126.649 135.62 122.584 131.555 117.569 131.555C112.555 131.555 108.49 135.62 108.49 140.634C108.49 145.649 112.555 149.714 117.569 149.714Z" fill="white"/>
<path d="M229.102 134.573H134.634V138.561H229.102V134.573Z" fill="white"/>
<path d="M163.846 142.154H134.634V146.142H163.846V142.154Z" fill="white"/>
<path d="M115.992 145.312C115.732 145.312 115.483 145.213 115.294 145.035L111.802 141.742C111.702 141.651 111.621 141.541 111.564 141.418C111.507 141.295 111.475 141.163 111.47 141.028C111.465 140.893 111.487 140.758 111.534 140.631C111.582 140.505 111.654 140.389 111.747 140.29C111.84 140.192 111.951 140.113 112.075 140.059C112.199 140.004 112.332 139.974 112.467 139.972C112.602 139.969 112.737 139.993 112.862 140.043C112.988 140.093 113.102 140.167 113.199 140.262L115.936 142.844L121.882 136.291C121.971 136.19 122.08 136.106 122.201 136.047C122.322 135.987 122.455 135.953 122.59 135.945C122.725 135.937 122.86 135.956 122.987 136.001C123.115 136.046 123.232 136.116 123.332 136.207C123.433 136.298 123.514 136.408 123.571 136.53C123.628 136.653 123.66 136.786 123.666 136.921C123.671 137.056 123.649 137.191 123.602 137.318C123.554 137.444 123.482 137.56 123.389 137.659L116.745 144.98C116.654 145.08 116.544 145.161 116.422 145.218C116.299 145.275 116.166 145.307 116.031 145.313L115.992 145.312Z" fill="#C1D8ED"/>
<path d="M117.569 174.073C122.584 174.073 126.649 170.008 126.649 164.994C126.649 159.979 122.584 155.914 117.569 155.914C112.555 155.914 108.49 159.979 108.49 164.994C108.49 170.008 112.555 174.073 117.569 174.073Z" fill="white"/>
<path d="M229.102 158.932H134.634V162.921H229.102V158.932Z" fill="white"/>
<path d="M163.846 166.513H134.634V170.501H163.846V166.513Z" fill="white"/>
<path d="M115.992 169.672C115.732 169.672 115.482 169.572 115.294 169.394L111.802 166.101C111.608 165.915 111.496 165.66 111.489 165.392C111.483 165.124 111.582 164.864 111.766 164.668C111.951 164.473 112.205 164.359 112.473 164.35C112.741 164.341 113.002 164.438 113.199 164.621L115.936 167.203L121.882 160.65C121.971 160.549 122.079 160.465 122.201 160.406C122.322 160.346 122.455 160.312 122.59 160.304C122.725 160.296 122.86 160.315 122.987 160.36C123.115 160.405 123.232 160.475 123.332 160.566C123.433 160.657 123.514 160.767 123.571 160.889C123.628 161.012 123.66 161.145 123.665 161.28C123.671 161.415 123.649 161.55 123.602 161.677C123.554 161.803 123.482 161.919 123.389 162.018L116.745 169.339C116.654 169.439 116.544 169.52 116.422 169.577C116.299 169.634 116.166 169.667 116.031 169.672H115.992Z" fill="#C1D8ED"/>
<path d="M220.182 251.615C219.284 244.067 219.284 243.29 219.284 243.035H227.799C227.799 243.009 227.799 242.975 227.799 242.936C227.829 243.566 228.258 247.41 228.639 250.61L220.182 251.615Z" fill="#E98862"/>
<path d="M254.109 252.634C254.109 252.634 254.08 243.816 254.08 243.035H262.595C262.595 243.814 262.624 252.606 262.624 252.606L254.109 252.634Z" fill="#E98862"/>
<path d="M217.039 248.671C217.744 231.058 217.747 211.846 218.006 194.201C220.889 174.895 222.491 153.738 226.089 134.57L226.198 134.602L226.514 132.441L257.361 131.846L264.818 248.444L249.869 249.707L240.486 153.131C237.505 167.369 235.506 182.135 232.868 196.229C232.868 196.229 231.98 231.568 232.04 248.927L217.039 248.671Z" fill="#262626"/>
<path d="M243.758 255.927C243.539 255.926 243.323 255.882 243.121 255.797C242.919 255.713 242.736 255.589 242.582 255.434C242.428 255.279 242.306 255.094 242.224 254.892C242.141 254.69 242.099 254.473 242.1 254.254C242.1 254.213 242.1 254.172 242.105 254.13C242.13 253.814 242.244 253.511 242.435 253.258C242.626 253.004 242.886 252.81 243.183 252.699L253.093 249.38C253.286 249.316 253.489 249.295 253.69 249.317C253.891 249.34 254.085 249.405 254.258 249.509C255.621 250.455 257.25 250.939 258.908 250.889C260.199 250.797 261.438 250.344 262.484 249.582C262.576 249.507 262.688 249.459 262.806 249.444C262.924 249.43 263.044 249.449 263.151 249.5C263.259 249.551 263.349 249.632 263.413 249.732C263.476 249.833 263.51 249.95 263.509 250.069V254.915C263.509 255.203 263.395 255.479 263.191 255.682C262.988 255.886 262.712 256 262.424 256H262.419L243.758 255.927Z" fill="#C1D8ED"/>
<path d="M209.807 255.927C209.588 255.926 209.372 255.882 209.17 255.797C208.968 255.713 208.785 255.589 208.631 255.434C208.477 255.279 208.355 255.094 208.272 254.892C208.19 254.69 208.147 254.473 208.148 254.254C208.148 254.213 208.148 254.172 208.154 254.13C208.178 253.814 208.293 253.511 208.484 253.258C208.675 253.004 208.934 252.81 209.232 252.699L219.142 249.38C219.334 249.316 219.538 249.295 219.739 249.317C219.94 249.34 220.134 249.405 220.307 249.509C221.669 250.455 223.299 250.939 224.957 250.889C226.248 250.797 227.487 250.344 228.533 249.582C228.625 249.507 228.737 249.459 228.855 249.444C228.973 249.43 229.092 249.449 229.2 249.5C229.307 249.551 229.398 249.632 229.461 249.732C229.525 249.833 229.558 249.95 229.558 250.069V254.915C229.558 255.203 229.444 255.479 229.24 255.682C229.036 255.886 228.76 256 228.473 256H228.468L209.807 255.927Z" fill="#C1D8ED"/>
<path d="M266.439 145.147C266.439 146.356 265.803 150.395 266.827 150.684C267.443 150.857 268.169 147.846 268.169 147.846" fill="#E98862"/>
<path d="M271.285 144.513C271.285 144.513 274.636 152.668 270.814 157.354C270.716 157.473 270.585 157.56 270.437 157.604C270.29 157.648 270.132 157.645 269.986 157.598C269.839 157.551 269.71 157.46 269.616 157.338C269.522 157.217 269.466 157.069 269.457 156.915C269.27 153.756 268.634 147.268 266.552 148.026V142.931" fill="#E98862"/>
<path d="M195.729 101.061C195.729 101.061 191.051 97.3443 190.718 96.009C190.386 94.6737 193.683 92.0479 193.683 92.0479C193.683 92.0479 189.301 87.6318 190.175 86.99C191.206 86.234 196.291 92.6591 196.291 92.6591C196.291 92.6591 195.572 90.3474 196.468 90.1958C196.836 90.1337 197.127 90.4952 197.703 92.1307C198.359 93.9948 199.67 96.8001 199.67 96.8001L195.729 101.061Z" fill="#E98862"/>
<path d="M247.888 88.3597C247.888 88.3597 244.627 86.9589 244.627 78.3928L238.071 77.7251C238.071 77.7251 239.422 85.2947 236.354 87.9847L247.888 88.3597Z" fill="#E98862"/>
<path d="M248.02 74.7929C247.784 77.4126 246.576 79.9717 244.367 80.9923C241.966 82.1813 239.31 82.7644 236.631 82.6906C229.516 82.6906 229.595 66.5052 232.696 63.1085C235.797 59.7119 245.806 60.881 247.431 66.0041C248.273 68.6534 248.244 72.3008 248.02 74.7929Z" fill="#E98862"/>
<path d="M237.699 73.635C238.023 73.635 238.286 73.3721 238.286 73.0478C238.286 72.7235 238.023 72.4606 237.699 72.4606C237.374 72.4606 237.111 72.7235 237.111 73.0478C237.111 73.3721 237.374 73.635 237.699 73.635Z" fill="#B0ECFF"/>
<path d="M238.853 71.8843C238.839 71.8843 238.825 71.8831 238.81 71.8809L237.251 71.6384C237.178 71.6271 237.113 71.5876 237.07 71.5285C237.027 71.4694 237.009 71.3956 237.02 71.3233C237.032 71.251 237.071 71.1861 237.13 71.1429C237.189 71.0998 237.263 71.0818 237.335 71.0931L238.895 71.3356C238.964 71.3459 239.027 71.3819 239.07 71.4364C239.114 71.4909 239.135 71.5599 239.13 71.6295C239.125 71.699 239.093 71.764 239.042 71.8113C238.991 71.8585 238.923 71.8846 238.853 71.8843Z" fill="#B0ECFF"/>
<path d="M233.393 68.4943C236.176 80.9747 238.738 84.3107 245.189 81.8119C246.668 81.2389 250.211 77.7251 250.566 70.2477C250.884 63.5629 245.536 60.0434 242.174 59.5756C229.398 57.7991 228.95 69.3349 228.95 69.3349C235.361 70.434 244.095 68.6178 244.095 68.6178" fill="#0F1011"/>
<path d="M248.783 70.2443C251.919 70.2443 254.462 67.7018 254.462 64.5655C254.462 61.4292 251.919 58.8867 248.783 58.8867C245.647 58.8867 243.104 61.4292 243.104 64.5655C243.104 67.7018 245.647 70.2443 248.783 70.2443Z" fill="#0F1011"/>
<path d="M200.656 96.119L214.498 111.692L225.338 92.2875C226.368 89.2418 228.698 87.1977 233.443 86.9964C235.071 86.9264 243.014 86.914 248.83 86.914C252.738 86.914 255.945 88.1116 257.797 89.9653C258.73 90.8846 259.429 92.015 259.833 93.2609L259.889 93.2403L269.196 118.548C269.301 118.831 269.376 119.125 269.42 119.425L273.176 144.732L264.431 146.031L260.741 121.174L256.983 110.954C256.592 112.525 256.379 114.134 256.347 115.753C256.347 124.27 260.197 128.086 259.916 132.457C259.469 139.327 226.088 137.704 224.387 133.801C222.636 129.776 226.19 127.297 226.034 114.132C226.017 112.7 225.906 111.201 225.754 109.675L219.185 121.432C218.841 122.048 218.355 122.572 217.767 122.962C217.179 123.352 216.506 123.595 215.805 123.671C215.103 123.748 214.394 123.655 213.736 123.401C213.078 123.148 212.49 122.74 212.021 122.213L193.823 100.924L200.656 96.119Z" fill="#B0ECFF"/>
<path d="M233.092 75.5414C233.092 76.2019 233.354 76.8354 233.821 77.3025C234.288 77.7696 234.922 78.032 235.582 78.032C236.243 78.032 236.876 77.7696 237.343 77.3025C237.81 76.8354 238.073 76.2019 238.073 75.5414C238.084 74.892 237.837 74.2647 237.385 73.7976C236.934 73.3306 236.315 73.0619 235.666 73.0508H235.582C233.808 73.138 233.092 74.1657 233.092 75.5414Z" fill="#E98862"/>
<path d="M287.05 230.538C288.569 230.041 290.127 230.601 291.618 231.733C289.655 226.774 288.844 222.294 292.202 222.092C294.551 221.951 296.351 223.754 297.718 226.316C298.199 221.811 299.439 218.451 302.218 219.564C305.269 220.788 305.733 224.979 305.27 229.365C306.615 227.125 308.062 225.876 309.376 227.19C313.298 231.111 303.672 242.164 303.672 242.164H301.282L299.918 243.645C300.194 244.229 300.345 244.576 300.345 244.576L298.612 248.103C298.612 248.103 280.748 232.601 287.05 230.538Z" fill="#8DDBE0"/>
<path d="M291.336 256H304.866L307.131 240.206H289.072L291.336 256Z" fill="#C1D8ED"/>
<path d="M60.6577 174.566L56.9956 173.7L52.4047 193.118L56.0668 193.984L60.6577 174.566Z" fill="#F0F6FF"/>
<path d="M52.9683 172.192L50.9353 172.567L54.0794 189.611L56.1125 189.236L52.9683 172.192Z" fill="#C1D8ED"/>
<path d="M52.9678 172.186L50.9369 172.573L51.2946 174.452L53.3255 174.066L52.9678 172.186Z" fill="#DEE8F5"/>
<path d="M59.2605 176.526L52.6726 193.249L53.8015 193.694L60.3894 176.971L59.2605 176.526Z" fill="#0CBC8B"/>
<path d="M60.7035 183.842H50.7728V196.534H60.7035V183.842Z" fill="#DEE8F5"/>
<path d="M87.2125 256H90.9269V219.46H87.2125V256Z" fill="#C1D8ED"/>
<path d="M90.2694 256H93.9838V219.46H90.2694V256Z" fill="#DEE8F5"/>
<path d="M40.9477 256H44.6621L44.6621 219.46H40.9477L40.9477 256Z" fill="#C1D8ED"/>
<path d="M44.0046 256H47.719L47.719 219.46H44.0046L44.0046 256Z" fill="#DEE8F5"/>
<path d="M77.0251 256H80.7395V219.46H77.0251V256Z" fill="#C1D8ED"/>
<path d="M80.082 256H83.7964V219.46H80.082V256Z" fill="#DEE8F5"/>
<path d="M30.76 256H34.4744L34.4744 219.46H30.76L30.76 256Z" fill="#C1D8ED"/>
<path d="M33.8172 256H37.5316L37.5316 219.46H33.8172L33.8172 256Z" fill="#DEE8F5"/>
<path d="M80.7164 196.071H30.76V220.336H80.7164V196.071Z" fill="#C1D8ED"/>
<path d="M93.9842 196.071H44.0278V220.336H93.9842V196.071Z" fill="#DEE8F5"/>
<g opacity="0.53">
<path d="M91.2968 199.52H46.7153V216.779H91.2968V199.52Z" fill="#F3F5FD"/>
</g>
<path d="M69.0058 210.13C70.0994 210.13 70.9859 209.243 70.9859 208.15C70.9859 207.056 70.0994 206.17 69.0058 206.17C67.9122 206.17 67.0256 207.056 67.0256 208.15C67.0256 209.243 67.9122 210.13 69.0058 210.13Z" fill="white"/>
</g>
<defs>
<clipPath id="clip0_107_1289">
<rect width="334.864" height="256" fill="white" transform="translate(3.56799)"/>
</clipPath>
</defs>
</svg>
